<mxfile host="Electron" agent="Mozilla/5.0 (Windows NT 10.0; Win64; x64) AppleWebKit/537.36 (KHTML, like Gecko) draw.io/27.0.2 Chrome/134.0.6998.205 Electron/35.3.0 Safari/537.36" version="27.0.2">
  <diagram id="DxI4TnYp4jybKZeAr68A" name="Page-2">
    <mxGraphModel dx="2276" dy="912" grid="1" gridSize="10" guides="1" tooltips="1" connect="1" arrows="1" fold="1" page="1" pageScale="1" pageWidth="850" pageHeight="1100" background="#ffffff" math="0" shadow="0">
      <root>
        <mxCell id="0" />
        <mxCell id="1" parent="0" />
        <mxCell id="OSBObG9JWodtX16g0ous-4" style="edgeStyle=orthogonalEdgeStyle;rounded=0;orthogonalLoop=1;jettySize=auto;html=1;" parent="1" source="OSBObG9JWodtX16g0ous-1" edge="1">
          <mxGeometry relative="1" as="geometry">
            <mxPoint x="90" y="80" as="targetPoint" />
          </mxGeometry>
        </mxCell>
        <mxCell id="OSBObG9JWodtX16g0ous-8" style="edgeStyle=orthogonalEdgeStyle;rounded=0;orthogonalLoop=1;jettySize=auto;html=1;exitX=0.5;exitY=1;exitDx=0;exitDy=0;" parent="1" source="OSBObG9JWodtX16g0ous-1" edge="1">
          <mxGeometry relative="1" as="geometry">
            <mxPoint x="90" y="430" as="targetPoint" />
          </mxGeometry>
        </mxCell>
        <mxCell id="OSBObG9JWodtX16g0ous-29" style="edgeStyle=orthogonalEdgeStyle;rounded=0;orthogonalLoop=1;jettySize=auto;html=1;exitX=0;exitY=0.5;exitDx=0;exitDy=0;" parent="1" source="OSBObG9JWodtX16g0ous-1" edge="1">
          <mxGeometry relative="1" as="geometry">
            <mxPoint x="20" y="240" as="targetPoint" />
          </mxGeometry>
        </mxCell>
        <mxCell id="OSBObG9JWodtX16g0ous-1" value="" style="rounded=0;whiteSpace=wrap;html=1;fillColor=none;dashed=1;strokeColor=#666666;" parent="1" vertex="1">
          <mxGeometry x="20" y="60" width="140" height="450" as="geometry" />
        </mxCell>
        <mxCell id="OSBObG9JWodtX16g0ous-9" value="" style="rounded=0;whiteSpace=wrap;html=1;fillColor=none;dashed=1;strokeColor=#666666;" parent="1" vertex="1">
          <mxGeometry x="670" y="60" width="120" height="450" as="geometry" />
        </mxCell>
        <mxCell id="OSBObG9JWodtX16g0ous-10" value="" style="rounded=0;whiteSpace=wrap;html=1;fillColor=none;dashed=1;strokeColor=#666666;" parent="1" vertex="1">
          <mxGeometry x="200" y="60" width="430" height="450" as="geometry" />
        </mxCell>
        <mxCell id="OSBObG9JWodtX16g0ous-12" value="&lt;font style=&quot;color: rgb(51, 0, 0);&quot;&gt;Data Warehouse&lt;/font&gt;" style="text;html=1;align=center;verticalAlign=middle;whiteSpace=wrap;rounded=0;strokeColor=none;fontSize=18;fillColor=#FFFFFF;" parent="1" vertex="1">
          <mxGeometry x="345" y="50" width="160" height="30" as="geometry" />
        </mxCell>
        <mxCell id="OSBObG9JWodtX16g0ous-13" value="&lt;font style=&quot;color: rgb(51, 0, 0);&quot;&gt;Sources&lt;/font&gt;" style="text;html=1;align=center;verticalAlign=middle;whiteSpace=wrap;rounded=0;strokeColor=none;fontSize=18;fillColor=#FFFFFF;" parent="1" vertex="1">
          <mxGeometry x="45" y="50" width="90" height="30" as="geometry" />
        </mxCell>
        <mxCell id="OSBObG9JWodtX16g0ous-14" value="&lt;font style=&quot;color: rgb(51, 0, 0);&quot;&gt;Consume&lt;/font&gt;" style="text;html=1;align=center;verticalAlign=middle;whiteSpace=wrap;rounded=0;strokeColor=none;fontSize=18;fillColor=#FFFFFF;" parent="1" vertex="1">
          <mxGeometry x="685" y="50" width="90" height="30" as="geometry" />
        </mxCell>
        <mxCell id="OSBObG9JWodtX16g0ous-15" value="&lt;font style=&quot;color: rgb(0, 0, 0);&quot;&gt;Bronze Layer&lt;/font&gt;" style="rounded=1;whiteSpace=wrap;html=1;fillColor=#fad7ac;strokeColor=#b46504;" parent="1" vertex="1">
          <mxGeometry x="210" y="90" width="110" height="30" as="geometry" />
        </mxCell>
        <mxCell id="OSBObG9JWodtX16g0ous-16" value="" style="rounded=1;whiteSpace=wrap;html=1;fillColor=none;strokeColor=#b46504;" parent="1" vertex="1">
          <mxGeometry x="210" y="130" width="120" height="350" as="geometry" />
        </mxCell>
        <mxCell id="OSBObG9JWodtX16g0ous-17" value="&lt;font style=&quot;color: rgb(0, 0, 0);&quot;&gt;Silver Layer&lt;/font&gt;" style="rounded=1;whiteSpace=wrap;html=1;fillColor=#eeeeee;strokeColor=#36393d;" parent="1" vertex="1">
          <mxGeometry x="360" y="90" width="110" height="30" as="geometry" />
        </mxCell>
        <mxCell id="OSBObG9JWodtX16g0ous-18" value="&lt;font style=&quot;color: rgb(0, 0, 0);&quot;&gt;Gold Layer&lt;/font&gt;" style="rounded=1;whiteSpace=wrap;html=1;fillColor=#fff2cc;strokeColor=#d6b656;" parent="1" vertex="1">
          <mxGeometry x="500" y="90" width="110" height="30" as="geometry" />
        </mxCell>
        <mxCell id="OSBObG9JWodtX16g0ous-19" value="" style="rounded=1;whiteSpace=wrap;html=1;fillColor=none;strokeColor=#36393d;" parent="1" vertex="1">
          <mxGeometry x="360" y="130" width="120" height="350" as="geometry" />
        </mxCell>
        <mxCell id="OSBObG9JWodtX16g0ous-20" value="" style="rounded=1;whiteSpace=wrap;html=1;fillColor=none;strokeColor=#d6b656;" parent="1" vertex="1">
          <mxGeometry x="500" y="130" width="120" height="350" as="geometry" />
        </mxCell>
        <mxCell id="OSBObG9JWodtX16g0ous-21" value="CRM" style="image;aspect=fixed;html=1;points=[];align=center;fontSize=12;image=img/lib/azure2/general/Folder_Blank.svg;whiteSpace=wrap;" parent="1" vertex="1">
          <mxGeometry x="56" y="130" width="61.61" height="50" as="geometry" />
        </mxCell>
        <mxCell id="OSBObG9JWodtX16g0ous-23" value="" style="image;aspect=fixed;html=1;points=[];align=center;fontSize=12;image=img/lib/azure2/general/File.svg;" parent="1" vertex="1">
          <mxGeometry x="100" y="160" width="24.35" height="30" as="geometry" />
        </mxCell>
        <mxCell id="OSBObG9JWodtX16g0ous-24" value="ERP" style="image;aspect=fixed;html=1;points=[];align=center;fontSize=12;image=img/lib/azure2/general/Folder_Blank.svg;whiteSpace=wrap;" parent="1" vertex="1">
          <mxGeometry x="56" y="240" width="61.61" height="50" as="geometry" />
        </mxCell>
        <mxCell id="OSBObG9JWodtX16g0ous-25" value="" style="image;aspect=fixed;html=1;points=[];align=center;fontSize=12;image=img/lib/azure2/general/File.svg;" parent="1" vertex="1">
          <mxGeometry x="100" y="270" width="24.35" height="30" as="geometry" />
        </mxCell>
        <mxCell id="OSBObG9JWodtX16g0ous-27" value="" style="endArrow=none;html=1;rounded=0;fontColor=#000000;strokeColor=#000000;" parent="1" edge="1">
          <mxGeometry width="50" height="50" relative="1" as="geometry">
            <mxPoint x="50" y="340" as="sourcePoint" />
            <mxPoint x="130" y="340" as="targetPoint" />
          </mxGeometry>
        </mxCell>
        <mxCell id="OSBObG9JWodtX16g0ous-28" value="&lt;font style=&quot;color: rgb(0, 0, 0); font-size: 11px;&quot;&gt;&lt;b&gt;Object Type: &lt;/b&gt;CSV Files&lt;/font&gt;&lt;div&gt;&lt;font color=&quot;#000000&quot;&gt;&lt;span style=&quot;font-size: 11px;&quot;&gt;&lt;br&gt;&lt;/span&gt;&lt;/font&gt;&lt;div style=&quot;text-align: left;&quot;&gt;&lt;font color=&quot;#000000&quot;&gt;&lt;span style=&quot;font-size: 11px;&quot;&gt;&lt;b&gt;Interface:&lt;/b&gt; Files in Folders&lt;/span&gt;&lt;/font&gt;&lt;/div&gt;&lt;/div&gt;" style="text;html=1;align=center;verticalAlign=middle;whiteSpace=wrap;rounded=0;" parent="1" vertex="1">
          <mxGeometry x="20" y="360" width="140" height="40" as="geometry" />
        </mxCell>
        <mxCell id="OSBObG9JWodtX16g0ous-30" value="" style="html=1;verticalLabelPosition=bottom;align=center;labelBackgroundColor=#ffffff;verticalAlign=top;strokeWidth=2;strokeColor=#b46504;shadow=0;dashed=0;shape=mxgraph.ios7.icons.data;fillColor=#fad7ac;" parent="1" vertex="1">
          <mxGeometry x="250" y="151" width="30" height="39" as="geometry" />
        </mxCell>
        <mxCell id="OSBObG9JWodtX16g0ous-31" value="" style="html=1;verticalLabelPosition=bottom;align=center;labelBackgroundColor=#ffffff;verticalAlign=top;strokeWidth=2;strokeColor=#36393d;shadow=0;dashed=0;shape=mxgraph.ios7.icons.data;fillColor=#eeeeee;" parent="1" vertex="1">
          <mxGeometry x="400" y="151" width="30" height="39" as="geometry" />
        </mxCell>
        <mxCell id="OSBObG9JWodtX16g0ous-32" value="" style="html=1;verticalLabelPosition=bottom;align=center;labelBackgroundColor=#ffffff;verticalAlign=top;strokeWidth=2;strokeColor=#d6b656;shadow=0;dashed=0;shape=mxgraph.ios7.icons.data;fillColor=#fff2cc;" parent="1" vertex="1">
          <mxGeometry x="540" y="151" width="30" height="39" as="geometry" />
        </mxCell>
        <mxCell id="OSBObG9JWodtX16g0ous-33" value="" style="shape=flexArrow;endArrow=classic;html=1;rounded=0;strokeColor=#33FFFF;fillColor=#66FFFF;" parent="1" edge="1">
          <mxGeometry width="50" height="50" relative="1" as="geometry">
            <mxPoint x="140" y="239.5" as="sourcePoint" />
            <mxPoint x="210" y="239.5" as="targetPoint" />
          </mxGeometry>
        </mxCell>
        <mxCell id="OSBObG9JWodtX16g0ous-34" value="" style="shape=flexArrow;endArrow=classic;html=1;rounded=0;strokeColor=#33FFFF;fillColor=#66FFFF;" parent="1" edge="1">
          <mxGeometry width="50" height="50" relative="1" as="geometry">
            <mxPoint x="310" y="239" as="sourcePoint" />
            <mxPoint x="380" y="239" as="targetPoint" />
          </mxGeometry>
        </mxCell>
        <mxCell id="OSBObG9JWodtX16g0ous-35" value="" style="shape=flexArrow;endArrow=classic;html=1;rounded=0;strokeColor=#33FFFF;fillColor=#66FFFF;" parent="1" edge="1">
          <mxGeometry width="50" height="50" relative="1" as="geometry">
            <mxPoint x="460" y="240" as="sourcePoint" />
            <mxPoint x="530" y="240" as="targetPoint" />
          </mxGeometry>
        </mxCell>
        <mxCell id="OSBObG9JWodtX16g0ous-36" value="" style="shape=flexArrow;endArrow=classic;html=1;rounded=0;strokeColor=#33FFFF;fillColor=#66FFFF;" parent="1" edge="1">
          <mxGeometry width="50" height="50" relative="1" as="geometry">
            <mxPoint x="610" y="239" as="sourcePoint" />
            <mxPoint x="680" y="239" as="targetPoint" />
          </mxGeometry>
        </mxCell>
        <mxCell id="OSBObG9JWodtX16g0ous-37" value="&lt;font style=&quot;color: rgb(0, 0, 0);&quot;&gt;Raw Data&lt;/font&gt;" style="text;html=1;align=center;verticalAlign=middle;whiteSpace=wrap;rounded=0;fontSize=10;" parent="1" vertex="1">
          <mxGeometry x="235" y="200" width="60" height="30" as="geometry" />
        </mxCell>
        <mxCell id="OSBObG9JWodtX16g0ous-38" value="&lt;font style=&quot;color: rgb(0, 0, 0);&quot;&gt;Business-Ready Data&lt;/font&gt;" style="text;html=1;align=center;verticalAlign=middle;whiteSpace=wrap;rounded=0;fontSize=10;" parent="1" vertex="1">
          <mxGeometry x="510" y="200" width="90" height="30" as="geometry" />
        </mxCell>
        <mxCell id="OSBObG9JWodtX16g0ous-39" value="&lt;font style=&quot;color: rgb(0, 0, 0);&quot;&gt;Cleaned, Standardized Data&lt;/font&gt;" style="text;html=1;align=center;verticalAlign=middle;whiteSpace=wrap;rounded=0;fontSize=10;" parent="1" vertex="1">
          <mxGeometry x="370" y="200" width="90" height="30" as="geometry" />
        </mxCell>
        <mxCell id="OSBObG9JWodtX16g0ous-41" value="" style="endArrow=none;html=1;rounded=0;fontColor=#000000;strokeColor=#000000;" parent="1" edge="1">
          <mxGeometry width="50" height="50" relative="1" as="geometry">
            <mxPoint x="225" y="250" as="sourcePoint" />
            <mxPoint x="305" y="250" as="targetPoint" />
          </mxGeometry>
        </mxCell>
        <mxCell id="OSBObG9JWodtX16g0ous-42" value="" style="endArrow=none;html=1;rounded=0;fontColor=#000000;strokeColor=#000000;" parent="1" edge="1">
          <mxGeometry width="50" height="50" relative="1" as="geometry">
            <mxPoint x="375" y="250" as="sourcePoint" />
            <mxPoint x="455" y="250" as="targetPoint" />
          </mxGeometry>
        </mxCell>
        <mxCell id="OSBObG9JWodtX16g0ous-43" value="" style="endArrow=none;html=1;rounded=0;fontColor=#000000;strokeColor=#000000;" parent="1" edge="1">
          <mxGeometry width="50" height="50" relative="1" as="geometry">
            <mxPoint x="520" y="250" as="sourcePoint" />
            <mxPoint x="600" y="250" as="targetPoint" />
          </mxGeometry>
        </mxCell>
        <mxCell id="OSBObG9JWodtX16g0ous-44" value="&lt;div style=&quot;text-align: left;&quot;&gt;&lt;font style=&quot;font-size: 10px;&quot;&gt;&lt;b style=&quot;color: rgb(0, 0, 0); background-color: transparent;&quot;&gt;Object Type: &lt;/b&gt;&lt;span style=&quot;color: rgb(0, 0, 0); background-color: transparent;&quot;&gt;Tables&lt;/span&gt;&lt;/font&gt;&lt;/div&gt;&lt;div style=&quot;text-align: left;&quot;&gt;&lt;span style=&quot;color: rgb(0, 0, 0); background-color: transparent;&quot;&gt;&lt;b&gt;&lt;font style=&quot;font-size: 10px;&quot;&gt;&lt;br&gt;&lt;/font&gt;&lt;/b&gt;&lt;/span&gt;&lt;/div&gt;&lt;div style=&quot;text-align: left;&quot;&gt;&lt;span style=&quot;color: rgb(0, 0, 0); background-color: transparent;&quot;&gt;&lt;b&gt;&lt;font style=&quot;font-size: 10px;&quot;&gt;Load:&amp;nbsp;&lt;/font&gt;&lt;/b&gt;&lt;/span&gt;&lt;/div&gt;&lt;div style=&quot;text-align: left;&quot;&gt;&lt;span style=&quot;color: rgb(0, 0, 0); background-color: transparent;&quot;&gt;&lt;font style=&quot;font-size: 10px;&quot;&gt;1. Batch Processing&lt;/font&gt;&lt;/span&gt;&lt;/div&gt;&lt;div style=&quot;text-align: left;&quot;&gt;&lt;span style=&quot;color: rgb(0, 0, 0); background-color: transparent;&quot;&gt;&lt;font style=&quot;font-size: 10px;&quot;&gt;2. Full Load&lt;/font&gt;&lt;/span&gt;&lt;/div&gt;&lt;div style=&quot;text-align: left;&quot;&gt;&lt;span style=&quot;color: rgb(0, 0, 0); background-color: transparent;&quot;&gt;&lt;font style=&quot;font-size: 10px;&quot;&gt;3. Truncate &amp;amp; Insert&lt;/font&gt;&lt;/span&gt;&lt;/div&gt;&lt;div style=&quot;text-align: left;&quot;&gt;&lt;span style=&quot;color: rgb(0, 0, 0); background-color: transparent;&quot;&gt;&lt;font style=&quot;font-size: 10px;&quot;&gt;&lt;br&gt;&lt;/font&gt;&lt;/span&gt;&lt;/div&gt;&lt;div style=&quot;text-align: left;&quot;&gt;&lt;span style=&quot;color: rgb(0, 0, 0); background-color: transparent;&quot;&gt;&lt;font style=&quot;font-size: 10px;&quot;&gt;No &lt;b&gt;Transformations&lt;/b&gt;&lt;/font&gt;&lt;/span&gt;&lt;/div&gt;&lt;div style=&quot;text-align: left;&quot;&gt;&lt;span style=&quot;color: rgb(0, 0, 0); background-color: transparent;&quot;&gt;&lt;b&gt;&lt;font style=&quot;font-size: 10px;&quot;&gt;&lt;br&gt;&lt;/font&gt;&lt;/b&gt;&lt;/span&gt;&lt;/div&gt;&lt;div style=&quot;text-align: left;&quot;&gt;&lt;font style=&quot;font-size: 10px;&quot; color=&quot;#000000&quot;&gt;&lt;b&gt;Data Model: &lt;/b&gt;None&lt;/font&gt;&lt;/div&gt;&lt;div&gt;&lt;br&gt;&lt;/div&gt;" style="text;html=1;align=center;verticalAlign=middle;whiteSpace=wrap;rounded=0;" parent="1" vertex="1">
          <mxGeometry x="210" y="280" width="120" height="120" as="geometry" />
        </mxCell>
        <mxCell id="OSBObG9JWodtX16g0ous-45" value="&lt;div style=&quot;text-align: left;&quot;&gt;&lt;font style=&quot;font-size: 10px;&quot;&gt;&lt;b style=&quot;color: rgb(0, 0, 0); background-color: transparent;&quot;&gt;Object Type: &lt;/b&gt;&lt;span style=&quot;color: rgb(0, 0, 0); background-color: transparent;&quot;&gt;Tables&lt;/span&gt;&lt;/font&gt;&lt;/div&gt;&lt;div style=&quot;text-align: left;&quot;&gt;&lt;b style=&quot;background-color: transparent; color: rgb(0, 0, 0);&quot;&gt;&lt;font style=&quot;font-size: 10px;&quot;&gt;&lt;br&gt;&lt;/font&gt;&lt;/b&gt;&lt;/div&gt;&lt;div style=&quot;text-align: left;&quot;&gt;&lt;b style=&quot;background-color: transparent; color: rgb(0, 0, 0);&quot;&gt;&lt;font style=&quot;font-size: 10px;&quot;&gt;Load:&amp;nbsp;&lt;/font&gt;&lt;/b&gt;&lt;/div&gt;&lt;div style=&quot;text-align: left;&quot;&gt;&lt;span style=&quot;color: rgb(0, 0, 0); background-color: transparent;&quot;&gt;&lt;font style=&quot;font-size: 10px;&quot;&gt;1. Batch Processing&lt;/font&gt;&lt;/span&gt;&lt;/div&gt;&lt;div style=&quot;text-align: left;&quot;&gt;&lt;span style=&quot;color: rgb(0, 0, 0); background-color: transparent;&quot;&gt;&lt;font style=&quot;font-size: 10px;&quot;&gt;2. Full Load&lt;/font&gt;&lt;/span&gt;&lt;/div&gt;&lt;div style=&quot;text-align: left;&quot;&gt;&lt;span style=&quot;color: rgb(0, 0, 0); background-color: transparent;&quot;&gt;&lt;font style=&quot;font-size: 10px;&quot;&gt;3. Truncate &amp;amp; Insert&lt;/font&gt;&lt;/span&gt;&lt;/div&gt;&lt;div style=&quot;text-align: left;&quot;&gt;&lt;b style=&quot;background-color: transparent; color: rgb(0, 0, 0);&quot;&gt;&lt;font style=&quot;font-size: 10px;&quot;&gt;&lt;br&gt;&lt;/font&gt;&lt;/b&gt;&lt;/div&gt;&lt;div style=&quot;text-align: left;&quot;&gt;&lt;b style=&quot;background-color: transparent; color: rgb(0, 0, 0);&quot;&gt;&lt;font style=&quot;font-size: 10px;&quot;&gt;Transformations:&lt;/font&gt;&lt;/b&gt;&lt;/div&gt;&lt;div style=&quot;text-align: left;&quot;&gt;&lt;font style=&quot;font-size: 10px;&quot; color=&quot;#000000&quot;&gt;1. Data Cleaning&lt;/font&gt;&lt;/div&gt;&lt;div style=&quot;text-align: left;&quot;&gt;&lt;font style=&quot;font-size: 10px;&quot; color=&quot;#000000&quot;&gt;2. Data Standardization&lt;/font&gt;&lt;/div&gt;&lt;div style=&quot;text-align: left;&quot;&gt;&lt;font style=&quot;font-size: 10px;&quot; color=&quot;#000000&quot;&gt;3. Data Normalization&lt;/font&gt;&lt;/div&gt;&lt;div style=&quot;text-align: left;&quot;&gt;&lt;font style=&quot;font-size: 10px;&quot; color=&quot;#000000&quot;&gt;4. Derived Columns&lt;/font&gt;&lt;/div&gt;&lt;div style=&quot;text-align: left;&quot;&gt;&lt;font style=&quot;font-size: 10px;&quot; color=&quot;#000000&quot;&gt;5. Data Enrichment&lt;/font&gt;&lt;/div&gt;&lt;div style=&quot;text-align: left;&quot;&gt;&lt;font style=&quot;font-size: 10px;&quot;&gt;&lt;b style=&quot;color: rgb(0, 0, 0); background-color: transparent;&quot;&gt;&lt;br&gt;&lt;/b&gt;&lt;/font&gt;&lt;/div&gt;&lt;div style=&quot;text-align: left;&quot;&gt;&lt;font style=&quot;font-size: 10px;&quot;&gt;&lt;b style=&quot;color: rgb(0, 0, 0); background-color: transparent;&quot;&gt;Data Model: &lt;/b&gt;&lt;span style=&quot;color: rgb(0, 0, 0); background-color: transparent;&quot;&gt;None&lt;/span&gt;&lt;/font&gt;&lt;/div&gt;&lt;div&gt;&lt;br&gt;&lt;/div&gt;" style="text;html=1;align=center;verticalAlign=middle;whiteSpace=wrap;rounded=0;" parent="1" vertex="1">
          <mxGeometry x="365" y="320" width="120" height="110" as="geometry" />
        </mxCell>
        <mxCell id="OSBObG9JWodtX16g0ous-46" value="&lt;div style=&quot;text-align: left;&quot;&gt;&lt;font style=&quot;font-size: 10px;&quot;&gt;&lt;b style=&quot;color: rgb(0, 0, 0); background-color: transparent;&quot;&gt;Object Type: &lt;/b&gt;&lt;span style=&quot;color: rgb(0, 0, 0); background-color: transparent;&quot;&gt;Views&lt;/span&gt;&lt;/font&gt;&lt;/div&gt;&lt;div style=&quot;text-align: left;&quot;&gt;&lt;span style=&quot;color: rgb(0, 0, 0); background-color: transparent;&quot;&gt;&lt;b&gt;&lt;font style=&quot;font-size: 10px;&quot;&gt;&lt;br&gt;&lt;/font&gt;&lt;/b&gt;&lt;/span&gt;&lt;/div&gt;&lt;div style=&quot;text-align: left;&quot;&gt;&lt;span style=&quot;color: rgb(0, 0, 0); background-color: transparent;&quot;&gt;&lt;font style=&quot;font-size: 10px;&quot;&gt;&amp;nbsp;No&amp;nbsp;&lt;b&gt;Load&lt;/b&gt;&lt;/font&gt;&lt;/span&gt;&lt;/div&gt;&lt;div style=&quot;text-align: left;&quot;&gt;&lt;b style=&quot;background-color: transparent; color: rgb(0, 0, 0);&quot;&gt;&lt;font style=&quot;font-size: 10px;&quot;&gt;&lt;br&gt;&lt;/font&gt;&lt;/b&gt;&lt;/div&gt;&lt;div style=&quot;text-align: left;&quot;&gt;&lt;b style=&quot;background-color: transparent; color: rgb(0, 0, 0);&quot;&gt;&lt;font style=&quot;font-size: 10px;&quot;&gt;Transformations:&lt;/font&gt;&lt;/b&gt;&lt;/div&gt;&lt;div style=&quot;text-align: left;&quot;&gt;&lt;font style=&quot;font-size: 10px;&quot; color=&quot;#000000&quot;&gt;1. Data Integrations&lt;/font&gt;&lt;/div&gt;&lt;div style=&quot;text-align: left;&quot;&gt;&lt;font style=&quot;font-size: 10px;&quot; color=&quot;#000000&quot;&gt;2. Aggregations&lt;/font&gt;&lt;/div&gt;&lt;div style=&quot;text-align: left;&quot;&gt;&lt;font style=&quot;font-size: 10px;&quot; color=&quot;#000000&quot;&gt;3. Business Logics&lt;/font&gt;&lt;/div&gt;&lt;div style=&quot;text-align: left;&quot;&gt;&lt;font style=&quot;font-size: 10px;&quot;&gt;&lt;b style=&quot;color: rgb(0, 0, 0); background-color: transparent;&quot;&gt;&lt;br&gt;&lt;/b&gt;&lt;/font&gt;&lt;/div&gt;&lt;div style=&quot;text-align: left;&quot;&gt;&lt;font style=&quot;font-size: 10px;&quot;&gt;&lt;b style=&quot;color: rgb(0, 0, 0); background-color: transparent;&quot;&gt;Data Model:&amp;nbsp;&lt;/b&gt;&lt;/font&gt;&lt;/div&gt;&lt;div style=&quot;text-align: left;&quot;&gt;&lt;font color=&quot;#000000&quot;&gt;&lt;span style=&quot;font-size: 10px;&quot;&gt;1. Star Model&lt;/span&gt;&lt;/font&gt;&lt;/div&gt;&lt;div style=&quot;text-align: left;&quot;&gt;&lt;font color=&quot;#000000&quot;&gt;&lt;span style=&quot;font-size: 10px;&quot;&gt;2. Flat Table&lt;/span&gt;&lt;/font&gt;&lt;/div&gt;&lt;div style=&quot;text-align: left;&quot;&gt;&lt;font color=&quot;#000000&quot;&gt;&lt;span style=&quot;font-size: 10px;&quot;&gt;3. Aggregated Table&lt;/span&gt;&lt;/font&gt;&lt;/div&gt;&lt;div&gt;&lt;br&gt;&lt;/div&gt;" style="text;html=1;align=center;verticalAlign=middle;whiteSpace=wrap;rounded=0;" parent="1" vertex="1">
          <mxGeometry x="500" y="300" width="120" height="120" as="geometry" />
        </mxCell>
        <mxCell id="OSBObG9JWodtX16g0ous-47" value="" style="image;aspect=fixed;html=1;points=[];align=center;fontSize=12;image=img/lib/azure2/analytics/Power_BI_Embedded.svg;" parent="1" vertex="1">
          <mxGeometry x="715.75" y="120" width="28.5" height="38" as="geometry" />
        </mxCell>
        <mxCell id="OSBObG9JWodtX16g0ous-48" value="&lt;font style=&quot;color: rgb(0, 0, 0);&quot;&gt;BI &amp;amp; Reporting&lt;/font&gt;" style="text;html=1;align=center;verticalAlign=middle;whiteSpace=wrap;rounded=0;fontSize=10;" parent="1" vertex="1">
          <mxGeometry x="685" y="170" width="90" height="30" as="geometry" />
        </mxCell>
        <mxCell id="OSBObG9JWodtX16g0ous-49" value="" style="shape=image;aspect=fixed;image=data:image/png,iVBORw0KGgoAAAANSUhEUgAAAgAAAAIACAYAAAD0eNT6AAAABHNCSVQICAgIfAhkiAAAAAlwSFlzAAAOxAAADsQBlSsOGwAAABl0RVh0U29mdHdhcmUAd3d3Lmlua3NjYXBlLm9yZ5vuPBoAACAASURBVHic7N15nE31G8Dxz519H9swtrFnC0XJlq2UpY0sWUJlr6yJ0qZIComQJGtESKVUsm+lKGRfZzCWrLPv9/fHNeVXlpn5fs895977vF8vr9/Cec4zx3W/z/muIIQQQgghhBBCCCGEEEIIIYQQQgghhBBCCCGEEEIIIYQQQgghhBBCCKuwmZ2AcAobUBQoA5QGSgIRQMF//fIB8l+9xg8IvvrfE4G0q//9EpABXPjXr3PACeD41V+nAbtRP5DQRv6OhDCPqW2wFADuxQsoB9QAqgHVgco4Gn1/J+eSAkQDe4HdwC5gJ3AUyHJyLuLGpAAQwjxSAIg8KwDUu/qrPlCLf97arSoR2A5svvprK3DR1Iw8mxQAQphHCgCRY0FAY6AF0BTH272r/x3agX3AGuA7YD2QZGpGnkUKACHMIwWAuKlSwGM4Gv1GQIC56RguBUcRsBJYjmMYQRhHCgAhzCMFgPiP4kBboB2O7n1P/nvaC3wBzMUxf0DoJQWAEOaRAkAAju799sDTOMbzvcxNx3KycMwZ+BRYjAwT6CIFgBDmkQLAw1UBugI9cUzqE7cWB3wOTAd2mJyLq5MCQAjzSAHggbyBx4HBwD0m5+LqfgEmAEuBTJNzcUVSAAhhHikAPEgI0AkYAtxmci7u5jjwEY5egcvmpuJSpAAQwjxSAHiAcGAQ0J9/dtoTxrgETALeB66YnIsrkAJACPNIAeDGgoEewMtAYZNz8TQXgclIIXArUgAIYR4pANyQH9APeAlp+M32FzAGmMI/5xmIf0gBIIR5pABwM/cDE4GqZici/s9hHD0xX5idiMVIASCEeaQAcBMVgfFAK7MTETe1BhiI44AiIQWAEGYytQ2WzWbUBeDoYt6NNP6uoCmOvQPGAIEm5yKEEKaRHgA1jYCPcYElfTabjWKR+SldMoIyURGUjoqgaJH8FCoQSkTBUAoWCCUsNJDw0CAA/Px8CA5ynCCcmJRKWloGAFfik4iLT+b8hXjOX3T8On32Esdj/uJYzF8ciznH6bOXsdtd4sXyENALWGdyHmZS+ouKPXtBVx5CuJxiRQqqhpAhABcUBryLo/Gw3DMMCQ7grjvKUqNqKapVLkmNqqWoWqkEgQF+Trl/UnIqe/afZOeeGHbvi2HX3hh+++MoCYkpTrl/LtmBT4CheOZqASkAhMgjKQA8T31gHlDG7ESyFYkIp0mDqtS7+zbq176NGlVL4e1trdGdjIxMdu6JYfO2A2z59SBrN+3h3Pk4s9O6VjTQBdhkdiJOJgWAEHkkBYDn8AFeBUbg2MrXNN7eXtSpVYEW99WgedM7qFm9NDaba/1VZmXZ2bHrGCtX/8HK1X+w7fcjZGZmmZ1WJo65ASOBDJNzcRYpAITIIykAPENpYAFQ16wEvLxs3FunEh0eq8vjD91D4UJhZqViiDPnLrN0xTYWLd/K5m0HyMoydQ7BLzi2bPaE44elABAij6QAcH8P4mj8TTmpr/JtxenRuQkd29SnaJF8ZqTgdKdOX2Thl1v4ZP5aDhyONSuNS0BnYKVZCTiJFABC5JEUAO7LhmPjmDdx8nLJAH9f2j1Sh55PNuXeOpWceWtLsdvtbNi6nxnz17D0m19ISU13dgpZOIYD3sJ918tLASBEHkkB4J7CgLnAo868aeFCYfR76gH6Pd2MiILu1cWv6tz5OKZ8+iNTP/2R8xfjnX37b4Ancc9VAlIACJFHUgC4n5LAt0A1Z92wfJlIhj77EF07NCTA39dZt3VJySlpzFm0gfc+/Iaj0eecees/cWz0FOPMmzqBFABC5JEUAO6lGo7Gv6QzbhZVohAjBj7G050a4+Nj6sICl5OensnCLzcz8r2lziwEzgAPA78564ZOIAWAEHkkBYD7aAksAkKMvlGRiHBee+FxenRugp+fj9G3c2upael8PHcNb41fxl8XnLKvQCLQEcewgDuQAkCIPJICwD10AWbhWOtvGH8/Xwb0as6IQa0JC5Vt6HW6fCWJtyYsY/In35Oenmn07TKBZ4A5Rt/ICaQAECKPpABwfb2AaRg80/+R5rUYP7IL5ctEGnkbj3fgcCyDXp3HytV/GH0rO/AcMNXoGxlMCgAh8kgKANfWD/gQA59DkYhw3n29E13bNzTqFuI6vvlhB32GfkLsmUtG3+p1HEtFXZUUAELkkasXANbaMN65hgNTMOgvwGaz8UznJuzfMkEafxM8/GBNdq1/1xnPfiTwmtE3EUII3Ty1B2Ag8L5RwSML52P25D482KSGUbcQubDixx08PWC60ZMEh+E4IdLVSA+AEHnk6j0AnlgAdAc+xaCf/cEm1Zk9uS+RhT1j215Xce58HE8P+IhvV/1u5G2GABOMvIEBTC0AVL9Azb6/cG0W+PzIEIATdQZmYsBD9/fzZdp7z/D9opek8begwoXC+Gb+UCa8+SS+vobtufAe0M2o4EIIoZMnFQAtgNkY8DOXLF6QDV+/Tp9u9+sOLTSy2WwM6tOSNcteNepgJS8cBeZDRgQXQgidPKUAuB1YiAHr/BvWrcyvP46mds1yukMLgzS4pyI7142lSYOqRoT3xrGh1D1GBBdCCF08oQAojuNI13Ddgft0u5/VS0dQJEJ7aGGwiIJhfP/5cLo/0ciI8EHAl0ApI4ILIYQO7l4AhAIrgBI6g3p52Xj39U5Me+8Z2cPfhfn5+TBrUh9GvtgWm037tJCiOM6VkOpQCGFJ7lwA2HCM+d+hM2iAvy+LZgxg6LMP6wwrTPTaC48z58O+RpzLUBWYj3v/OxNCuCh3/mIaBrTRGTA4yJ9vPhtK24dleNfdPNnuXr6a+wKBAX66Qz8EjNAdVAghVLlrAXAfMEpnwPCwIH784mXub1hNZ1hhIc2b1uD7RcONOKjpDRynTQohhGW4YwEQBXyOYza2FoUKhLJm2SvUu/s2XSGFRTWsW5kfFr9EvvAgnWG9gHlAGZ1BhRBChbsVAF7AXKCQroDhYUGs/Hw4NavLd7enqFOrAt8veonQEK09AQVwLA/01RlUCCHyyt0KgBGAtnVdQYH+fDN/KHfdUVZXSOEi7qlZnpWfDyM4yF9n2LuBV3QGFEKIvHKnAqA28KquYAH+vqz4bCj31qmkK6RwMfVrV2TRjAG6VweMABroDCiEEHnhLgVACI7lVlq6V728bMyb+qxRO8UJF9Kq2Z18PL6nzn0CvHHMB5D9AYQQpnKXAmAMUEFXsHde7ShL/cTfunVoyKtDtK4oLY1rHh0shHAj7lAA3AP01RWsR5cmssmP+I83hj5O1/YNdYbsiWO5qhBCmMLUs4g18Ad2AFV0BGvSoCo/Ln5JtvcV15Walk7jR9/i5+2HdIU8CNQAUnQFzAO7ysWq56kL4cqKFSmoGsLUNtjVewBeQlPjX7J4QRbN6C+Nv7ghfz9fls0erPMo4dvQOHFVCCFyw5ULgAo4CgBl/n6+LJk5iIiCYTrCCTdWtEg+Ppv2nM5CcShQWVcwIYTIKVcuAMYBWjZunzi6K7VrltMRSniAJg2qMuql9rrC+QITdAUTQoicctUCoCnwiI5ALe67g95dZS6WyJ2hzz5M03u1LRNtDrTSFUwIIXLCFQsAb2CijkCFC4Uxa1IfI86CF27Oy8vG3A/7UTB/iK6QE3FMahVCCKdwxQKgF6B8JJ/NZmPulH4UiZD9WETeFC9agI/G9dAVrjzQR1cwIYS4FVcrAAKAl3UEeqZzYx5sUkNHKOHB2j58D+0eqaMr3Agcu1oKIYThXK0A6AuUUA0SWTgf777WWUM6QsCkt7uRP1+wjlARQD8dgYQQ4lZcqQAIBobpCDRl7FO6vrCFILJwPt57XVtB+SIg61GFEIZzpQLgOaCIapBHmteiTavaGtIR4h9Pd2pMo3palvMXBAboCCSEEDfjKgWAPzBINYifnw/j3uiiIR0h/p/NZuOD0d3w9tbyT2ogMhdACGEwVykAuqPh7X9Q75ZUKBupno0Q11Gjaime6dxER6gCwFM6AgkhxI24wgJ4G7AHxe1SCxcK4+DP7xMeFqQnKyGu468LcdxWZxCXrySphjqG46yADPWsbkoOAxIij+QwIOO1QsNe6a8PbSuNvzBcRMEwXnxOyyaVZYDWOgIJIcT1uEIBMFg1QOmSEfTQ0zUrxC093+NBChfSMpFf+bMvhBA34mN2ArdQCWisGuTVIW3w8zPnRz13Po6NP+/nz30n2H84loNHTnPpciKX4xJJSHQcAx8SHEC+sGDy5wumYvmiVCpfjKqVStKwbiWPP6HQFZ9fSHAAw55/hCGvz1cNVQeoAexUz8qaNHShCpFnnj6EZfU5AOOAISoBKpSNZO+mcTqPb72l3/44yoJlm1m1bjd7DpzEbs/bMKvNZuP2SiVo1rg6ndrUp1aNMpoztSZ3eH7JKWmUrz2Q2DOXVENNwbEE1iimzgGQAkCYyQKfX1PbYCsXAH7ASRy7o+XZ9HE96OWE0/7iE5KZMW8NMxesY++Bk4bco2rFEjzTuQk9n2xKSHCAIfcwizs+v3FTVzD0jc9Uw1wGigHJ6hldlxQAwmNZ4PMrBcANdAA+VwlQuFAY0b9/SIC/r6aU/uvS5UQ+mLGSyZ/8wMVLCYbd51oF84fQv2dz+vdsQb5w157Y6M7P70pcElF3PkdcvHLb3Q2YqyGl65ECQHgsC3x+ZRXADTytGqDfUw8Y1vjb7XZmLVxHxbqDGfneUqc1XgAXLiXw+rtLqFh3EHMWbchzF7mZPOH5hYcF0aNLUx2hZE8AIYR2Vu0BiABiUZikGBjgR/Tvkw2ZBHbk+Fm6Pz+NTb8c0B47L+6tU4k5H/alTFRhs1PJEU96fjEnz1Ou9kAyMjJVwmThOATrtJ6s/o/0AAiPZYHPr/QAXMfjKK5QaPdIHUMa/+Urf+PuB0ZYpvEC2Pjzfu5oMpzFX/1sdiq35GnPL6pEIR5qdqdqGC+grYZ0hBDib1YtANqpBujRRe+6f7vdztA3PqN1t/FcupyoNbYOcfHJPNFrEsPfWmjJIQFPfn49n9QyCbW9jiBCCJHNigVAJNBIJUClCsVocE9FTelARkYmPQZ9zLipK7TFNILdbmfs5K/p+uxU0tOVupy18vTn17xpDaJKFFINUx+I0pCOEEIA1iwAHgGUFu337NIUm03P0Ep6eiZtnprApwvWaYnnDPOXbKLtM+9bogiQ5wdeXja6P6FU04JjrFDLHsNCCAHWLABaqlzs5WXjidb1tCRit9vpNWQG3/ywQ0s8Z/r6++08NeAjU4cD5Pn9o2v7e3WEaa4jiBBCgPUKAD9Aad3UvXUqUSwyv5ZkXhy5gNmfr9cSywyfLdnES6OUtlJQIs/vH+VKF+HOaqVVwzQB3GsHKCGEaaxWADQAQlUC6Hr7X/LNL5Yfs86Jdz/8hi+/+9Xp95Xn91/tH62jGiIIaKghFSGEsFwBoNTF6e3tRZtWtZWTOHL8LD0GfawcxwrsdjvPDJzO8RN/Oe2e8vyur/2jdXXMTWmhnIgQQmC9AkBpvVSdWhWUj2G12+10f34aV+KSlOJYyaXLiTzV3znzAeT53VjZUoWpVrmkajpathYUQggrFQAhQHWVAC3uq6GcxKyF6y21SY0u6zbv5bOlmw2/jzy/m2veVPkzejuQTzkRIYTHs9JWwPcBP6kE+G3V20pHvl66nEjFuoP560KcShrXFRrsR6vGZWhSpyQ1KkZQqngY+cL8Abgcl8rxk1fYeeA8a38+wXfrjxGfmKY9hyIR4RzYOoHwMGMOwJHnd2trN+2haZtRqqm0BFaqBrnK1K2AhXBlrr4VsNJ2u5rVV7m4SEQ4NauXVkrggxkrtTdeRSOCeaXfPTz5WBWCAq7/uCMKBBJRIJC7q0fSo93tJKVksHDFft6b8RuHYy5ry+XsX1f4cOYPjBjUWlvMa8nzu7X6tSsSGhJIfILSCYH10FcACCE8lJV6AL4HHszrxU+0rsfC6c/n+ebxCcmUrtVf26l0gQE+DOt1N4O61yQ4MG8nEqZnZPH+7B2MnLyV1DQ9m9IUKhDKse2TCAnWu5pMnl/OPdzlPVb8qLQ3wjocSwJ1kB4AIfLI1XsArDIHwAYoTd+vd/dtSgnMmLdGW+NVPiofWxc9wSt978lz4wXg6+PFiz3u4qfZbSlSUE+3/fmL8Xwyf62WWNeS55dzqp9V4C6sVbwLIVyQVQqAkoDS7j31a6t9qc5csE7p+mw1KkWwYUF7br9Nee/3v9W9syg/L+lI1Qp6jk79dIH+AkCeX86pflZxTJgtqxpECOHZrFIAKM3+Dw0JpHqVvJ+T8tsfR9l74KRKCoDjzXXlJ60prOlt81olI0P5ZvpjWt5kd+87wR9/RmvIykGeX+7cfWc5/PyUp99UUw0ghPBsblEA1KpRBh+fvJ8ftGCZ+vKuwAAflkx+yJDGK1tU0VCWTH4Yfz+ls5IAWKBxSaA8v9wJDPDjjttLqaag9G9GCCGsUgAovc3UqKr2Zbpq3W6l6wGG9bpba7f1jdS9syivPae8pSyr1u/SkM3VWPL8ck31M4v0AAghFFmlAKiqcrFK9/+583HsUey+LhoRzKDuNZVi5Mag7jUpFxWuFGPX3hjOX4xXzkWeX95Uq5z3z+xVVVQDCCE8m1UKgLzv3gNK26tu/Hm/8havr/RTm62eW36+3gztcbdSjKwsOxt/3q+cizy/vFEpWq8qjawEEEIosEIBUAjHrOY88fKyUbVSiTzf/M99J/J8LTh2qHvyMee/jHV8qCIhQWqNpurPriOGpz4/DWcCBAGFVYMIITyXFQqA0ioXFy2Sn6BA/zxff+BIrMrtadW4zA13qDNScKAvLRopdZxw4Mhp5Tzk+eVNgfwhFMif57o3W2nVAEIIz+XyBUDpkhFKNz+o2Ag2qaP8JpdnTRXvrfqz64jhyc+vTJTaZxfFoTMhhGezQgGgNB1a9Uv0/AW1iXA1Kip/ief93pXM/dl1xPDk56davALKEwmEEJ7LCgWA0jhmacUCICExRen60iXClK5XundxtXsrHkgDyPNTUSZKeQjf+HWTQgi3ZYUCQGl/1mKRSjsIE6/YgIWF+CldryI8NO9zHwDiE9R+dpDnp6JEsQJK1yMFgBBCgRWOA1b6EitUIFRXHi5HdUe71LR05RzS0jKUrvfzVd+Vz1UVVP/s6jncwESqp6mpnkZo9v11WLzocwb2f9bsNJzqg8lTade+g9lpuDyX7wEomF/tSzRU8VjcuIQ0peuFea7EpypdHxqi9tnRULxKD4Bg61Z923q7ii1bNpmdgltw/QKggNpSKpVz3QGOnbiidL0wz7GTan93oSGBStcXVF8GqDyGIFzf1s2eVwB44s9sBCsUAMEqFxfIp/YlWqig2lvYzgPnla4X5tm5X+3vTvWzo2EIwLiTk4RLOHXqJDEx+k72dBUxMdGcPKm+kZmns0IBoDQLzN9fbTe328oVVbp+7c/yIXRVa36OUbpe9bMTGKA8AVJtFqNweVs8+E1465YtZqfg8qxQACh9ifkrnqtesVwxpeu/XXeUhCT1yXTCuRKT0/l+w3GlGJXKq312VD+7KBbPwvV58li4J8590M0KBYDSl5if4pfo7Yp7sickpbPouwNKMYTzLfhmv3LhpnIGBaj3XiE9AB7Pk8fCt2zy3OJHF9cvAHzVCoCGdSths6kdqvbejN9Iz8hSiiGcJzUtk3dn/KoUw8vLRsO6lZViqH52kQLAo3nq+H+2mJhoTp1SO4rc01mhADA1h4iCYdyu+CZ3OOYy78/eoSkjYbQJs7Zz7GScUowaVUspz+L39lb+6KudwyxcmieP/2eTZ6DGCgWA0nZqaelqG9EANGtcXTnGyMlb2fq7+uE6wlibt8fy1pRflOM0a1RNOYaGz676Vo7CKex2O6+/OoIxb79FUlKSlpgyBq5vDkRSUhKjR73Jq6+8hN3uOXW16xcAijvRAXRqU185RmpaJm2f/4YTZ9QP2BHGiDkdT/sBK0hLz1SO1elxDZ+ZVOXJo+qHOQjD2e12Xn3lJWZ8/BGTP5hIg3q1+WLxIuW4njz+n+1nDSsBVv34PY3vrceUyR8wc8bHvPjCYLKyPGNI1woFgNKXmI4egFo1ylC1otowAMDZC0k81Gu5FAEWFHM6nod6LefsBfW3r+pVoqhRVekQSwBS1YtXta0MheHsdjuvjBjOp5/M+Pv/O3P6NAOe70fHDm05cvhwnuKeOnWS6OjjmrJ0XdHRx/M8D+DwoUN0aNeGbk92/r89BT6bP5dXXh7uET0BLl8ApKToWYL3dKfGWuLsOXSBOm0XynCAhWzeHkuddgvZe1jPvu26PivSA+Deshv/WTM/ue7vr1+3lqaN783TsICsgf9HbucBJCYmMnrUm9zXpCEbN6y/7p+ZPWsmI14a5vZFgBUKAKUhgIuXE7Qk0avrfTq2ZgUcPQH3d1/C2Bm/auluFnmTlp7JmOnbaPbUUs5pePMHx6TRHl2aaol1OU45J5kDYFG3avyzpaenMfmDiTSsX4cV33yd4/ievP7/33IzF+Lrr5bTsEEdpkz+gPT0m5/j4glFgBUKAKW3mIuX9BQAIcEB9O/ZXEsscMwJGDFhM7e3mssnX/xJYrJsFuQsCUnpzFi8m6ot5/DqxC1ai7CBvVsQHKRn9d2Fi8pDRWpLGYQhctr4Xys29hS9ejzFE+0fz9GwgIz//yMnz+LwoUO0b9uaPr2e4XRsbI5jz541k1dedt8iwArHASv1y168nKgrD/r3bMGUT3/k3Hl936tHT1yhz2s/8cI762nRqAxN7inJHZUjKF08jHxh/h59HK4OaemZXI5L5fipOH7fe461v5xg5frjhhRcRYvk47lnHtQWT0Pv1VkdeQh98tL4X2vD+nU0bXwvvfv2Y+CgIQQF/fe4h9hTp2T8/xrZ8wCKF//vPK7ExETenzCOGdM/uuUb/43M+nQmAKPeHqu8Z4zVWKEAyHk5dh0a3qL+li88iHdf70z356dpi5ktISmdL1Ye5IuVB7XHVmEr3NHU+/tUnmjq/XNj3BtdCAtVOwHwWhcuKhcAZ3TkYabYs3rmZVjh/qqNf7b09DQ+nDSRZUu+4I03R/HQw4/83+9v2aL+9n/8y/KUilTeiVKL6DPplG6dt8mQ2bZu2ULbdu3/7//7+qvljHzj1Vy98d+IuxYBVhgCUJotd+rMJV15ANC1/b3KO7wJ99OkQVU6tqmnNebps8qfXekBsAhdjf+1bjQsoDr+X6aYr2Uaf4BSkb6UKaaWz7XPJK/d/bcy61P3Gw6wQgGg9DcUfeIvXXkAYLPZmDelHwU0TQgUri9/vmBmTuylvfI/fkL5KGmX7wFwB9nr/HU2/tdyDAs04NVXXiIhIUF5/L9JTaUT2A3R6E61k61/3rKF5ORkxr83lvubNmLTxg2aMvt/sz6dyYsvDHabIsD1C4CTyl+i/xFVohAzJvR0q64ekTc2m43Zk/pSJqqw9tjRJ5WLV+kBMFl243/tOn8jpKenM3PGx9xb/x7l8f+Gio2tERorFiXHjx+j3j21GD/uXdLSjN0e47P5c3llhHvsE2CFOQBKQwDR6m9R19WmVW1efO5hxk7O+dIc4X5eHvgYjzSvZUjs4zHKBYCchGIiZzX+1zp7Rr3Tp3FNKxYA6jmdPeu8etio3h5ns0IPwIlb/5GbXBx7gdQ0Y5bYjXnlCbq2b2hIbGF93Z9oxFvD2xkSOy0tgxOxShPQ7IC1ZpR6EDMafx2sNv6frVSkL6WLWi+vm3GHIsAKBcBp4HJeL87IyGT/IX0TPa5ls9n45P1ehr0BCut6tPldhg4DHTx6mnS1/QlOA7LntAlctfEH9a52I1mxZ8LdWaEAANincvGe/cb1hPr6erNs1mB6dGli2D2EtXRt35AvZg7Ex8e4PRp271Xq+AJ5+zeF3W7ntVdfdsnGH6zdyDa607rFibuySgGwV+XiP/crf5nelLe3Fx+P78mw5x+RiYFuzGazMWJQa2ZP7oOvwRs07TmgXLRKAeBk2W/+M2d8bHYqeaY6295ITWpZNzd35RYFwK69MbryuCGbzcY7r3Zk2ezB5M8nlaq7KZA/hOVzhjDqpfZOKfJ27Y1WDSEFgBO5crd/NquO/2dzxXkArs4tCoBfth922pKMx1rcxY7VY2hUTzYLchdNGlRlx+oxTp3r8ct2tZ3PgD915CFuzdW7/bNZefw/m5WHKNyRWxQA5y/Gc+io8/ZEKV0ygrVfvsq8qc8SWTif0+4r9CpaJB+fTXuONcteoVSJQk6775HjZ1XPm7ADv2lKR9xEduPvyt3+2VyhcXWFIsWdWKUAiAHOqQT4efshTankjM1mo0vbBuzfMp63hrenUIFQp95f5F1EwTBGv9yBA1sn0Onx+k6//9bflD+rx1E8REvcmjs1/mDt8f9srpCjO7FKAQCwReniX80ZEg0PC+KVwa05tn0S77/VlWqVS5qSh7i16lWimDiqK8e2T+LlgY8RGqLvYJ/c2LJN+bMqb/8GM7LxL1bIhw+HRFKisPP2YbP6+H+20kWdOw8gqogvU4dGUqyQFfbEcz4r/dRbgcfyevHqDXs0ppJ7IcEBDOzdgoG9W/DHn9EsWLqZVet3sWtvDFlZrr9lpCvy8rJRvUoUDzSuTqfH61OjaimzUwJg9Ubl4ftfdeQhrs/oxn/NlFJUjPKjW6tw3px5nomLLpKeYex3hCt1rTeuGcTsb68Yeg8/XxtDOhZgRPdCBAd60fSuYJo+G03s+QxD72s1VlrT1gDYqBLgyK8fULaU/j3bVZy/GM/Gn/ezZ/9J9h06xcEjp7l4KYHLcUkkJKaQluZZHzjd/Px8CAkOIF9YEAXyh1CxfDEqlS9G1UolaFi3MgUtdqjTsZhzlL1rgGqYpsBaDemAYz5Bnpl9nK9uzmr8r7XveCrPjz/L6t8Std8z25zXitG1Rbhh8XWa/e0VGzb8XgAAIABJREFUnhplzOZuAA/cE8ykwZH/+Xs4EJNmRhFgahtspQLAH7hy9T/zZNp7z9Cn2/36MnIBtsIdla63n1vo0vd3NR/N+Ym+Q2eanYZwsiIFfFjzYRRVytz46+2bTQk8N+4MMWf1b21+/MvyLjEEAHAsNp2yjyuvkvmPYoV8GNOv8E0LoUMn0mjybDSn/nJaEWBqG2ylOQCpwO8qAX5Ys1NTKkIY48e1u8xOQThZsUI+rJ9W6qaNP8DDDULYs7AsQzsXxNdHX7vgKuP/2coU0zsPwM/XxvCuBTm4uNwte0EqlPRj9YelPGZOgFUKgBLAy0BplSCr1u8mKdnYoyCFyKuk5FR+XCcFgCe5Ubf/jYQEevHuc4XZOa8MTe/SM27vSuP/2XStBmhWO5hd88sypm9hggNz1txVjPJjzRTPKALMLgAaA9/iWNY0GohUCZaYlMp3P/2hnpUQBli5eieJSVKgeorcNv7Xqlzan9WTo/j8reIUj8h7QxRZ0IeOzcLyfL1ZOj8YTlGFBrhkEV++GF2cHz+IytPzrxjlx1oPKALMKgCa41j2txZoCWjbeH3JN7/oCiWEVvLZ9BzFCvmwNo+N/7U63B/G/kXleCGXwwKNawaxaFRxYpaXp1lt1+sBaFY7mOgvy7N4dHGa1Aoip7tzZ3f371tYlrZN1Qqf25xTBHjUJMDKwAQcBYAhQoIDOLdvOoEBav/wXIXZk/DMvr+rSE5Jo3Dl3iQkppidijBYduN/m2Lj/297j6Xy/ISzrLnBaoGwYC+6tginb5v8t5xv4Gr2HU9l2rLLzF15mSsJWdf9M/ffHcyHL/x3dr+qgzGOiYEGrQ6YBAxEcTVOXjmrB8AfeBvYhYGNP0BCYgrLv5N9UoS1LP/uN2n8PYBRjT9AlTKOYYGFb/7/sECNCgF8NCySU99UYPKQSLdr/MExJDJpcBFOfV2Bj4cX5Y4KAX//XskiviweXZxVk/LW3X8rBvcE9AcmYlJPgDNuegcwB6juhHsBcH/Daqxa8rKzbmcqs9/Azb6/q3ig3dusWr/b7DSEgYxs/P8tPimLacsu0aBGEPWqmbOjpdm2/pnM5p1J9G2TP8cT/FS4Y0+A0QXAk8B0wKmfUJvNxuFtEy23KZARzG6Azb6/K4g+eZ6yd/WXHSHdWE7W+QvXZ/A+AdOBvjixCDCqbPIDPgLm4uTGHxy7ec1ZtMHZtxXiumYtXCeNvxsrVsiHDTlY5y9cX4WSfqwxbp+A3jh5OMCIAiAIWI7jhzHNjHmrZZtdYbr09ExmfqZr115hNUUK+LBqUpRTuv2FNdwW5ce6qaWUlmfeRH9gGk4qAnQXAPmAVUALzXFz7fTZyyz6aqvZaQgP9/nyLZyMvWh2GsIA8ubvuZzQE/A+TigCdBYAQcA3QD2NMZWMm7LC7BSEh5sw7VuzUxAGkDd/YXBPwACc0BOgqwDww9Ht30BTPC127Y1h3ea9ZqchPNSajXv4489os9MQmsmbv8jm6j0BugqAT4BmmmJpNfr95WanIDzU6Ilfmp2C0MyZS/2EazB4n4ABGFgE6CgA+uNY7mdJP23YzYat+8xOQ3iYzdsOsGbjHrPTEBpJt7+4EVcdDlDNtj4wTkciRho5bimrl75idhrCg7z6zhfKMYILF6XLqj14+UqDkyN2O5vGvMju+dO0h/akN/+MTDsHY9L482gqe4+lEns+gzMXMjh3KZPY8xkkJP2zFW9KWhbJqXYKhHlTMNzxK/u/VyjhR6XSflQu7c9tJf3w8zV123vDZQ8HGLRZUG8gBRiExn0CVAqAEBzr/A05aNrm5UXJBs0IKlSE/cvmKsVas3EP67fso1G9ypqyE+LG1m3ey9pN6m//t3fqJY1/Tknjn2fnLmWw5rckVv+WyG/7Uth7PJW09Ny1MRfjMrkYl8mhE9f/fR9vG+VL+FK3WhCN7gyiQY1AyhV3v+eZPRxgUBEw4Op/aisCVEqyaUAfHUlcyzcwmCodnub2jr0IK1mGtIR45t1XkbT4OKW4d99Zjp9XvoWXl3tVoWbvxGf2/a0mK8tO7QdHsH3nMaU4PgFBPLlmPwH5CmjKzI1J459r2/Yms3h1HKu2JbL7SCp2E/apKlnEl8cahvJ4k1Aa1AjC2+zD6TUyeNvgD9BUBOT1kdfHgI1+SjVuQYdvfqXei2MIK1kGAL+QUKq2f0Y59q+/H+GzpZuU4whxM3MXb1Bu/AEqPtpJGv8c2vLuS9L458D+6DRen/EXFdod4Z5njjN+wUV2HTan8Qc4cTadyV9cpHG/aIo9dIjnxp1h1+FUc5LRzAkTA9/TESgvBYAXmrcrDCxYmAc/WEDLqV8QWizqP79frUtfLV2hL4/+nKRk9/iACetJSExhxNuLlOPYvLyo3vVZDRl5Bi8//cvx3KXxz8qCFZsTaPpcNJWfOMKbn57n8Mk0s9P6j3OXMpiy9BI1njxK/V7HmbfyCqm5HIawGoOLAC1dC3kpALoAd+m4OUCBClV4fNE6yjZ75IZ/JrhIMW57qL3yvU7GXuSdSV8rxxHiet6euJzYM5eU45Rv8Tj5ylTQkJFnqNXnRUIiS2iL5w6Nf0qanY+XX6ZqpyM8/MIJ1m5PMjulHNuyO5mub8ZS7vHDfLjkEilprlsIGFQEnARG6QiU2wLAG3hVx40BSta/j9bzf7ruW/+/1ez9Il4+6vMNx07+mr0HTirHEeJaf+4/wbip6jtP2ry9uavvSxoy8hy+gcHUG/6Otnhv9Ihw2cY/Kwvmf3+FSh2O0HvsafZHW+9tP6dO/ZXB8+PPUL6toxBIz3DNQuC2KD9ee6aQzpCDgQQdgXJbALQDyuu4cdS9D9Dyo6X4hYbl6M+HR5Wl4mOdle+blpZB7xc+kdPZhDZZWXZ6DZ5BenqmcqzyLdqSr+xtGrLyLOUeeIwS9ZpqiTVm7nmSU13v++GnXxO566ljPDkylugz6Wano012IVDjyWP89Gui2enkWlJKFmPmXNAV7idAfY3xVbktAIbpuGnBitV4YMJcvLxz1y1yV99heGsY79v0ywE+nrdaOY4QAB/N+Ymtvx1SjuN4+x+uISPPdO+I8VrmCh2LTeeduec1ZOQc5y5l0G7EKZr1j+H3gylmp2OYfcdTadY/hrYvn+TkOdcpcN6ec0FXQZYGPK8jULbcFAB3A3eo3jC4cFFaTvsC3+CQXF8bUrQkldt1V00BgGFvLuBYzDktsYTnOhp9juFv6VnKWPHRzjL2ryBfmQrU6K7n+/Hd+Rc4csr63ecLV8VRtdNRlqxRWybtSpaujada52N89sMVs1O5pUMn0hj3mba3//eB/bqCQe4KgO46bth41FSlCTt39RmGX0ioch5x8cl0fXYqmZlZt/7DQlxHRkYmT/abQnxCsnIs36Bg7hnwmoasPJuuCYEpaXYGvH9WQ0bGuHAlk9bDTtLptVOcv6w+9ORqLidk0uWNWNqPOMWFK9b9+Z8ff0bXaoYTaJr4d62cFgC+gNqOL0D5lm2JaqB2ZlBgwcLU6qNlJIJNvxzgnUlfaYklPM/bE5ez5deDWmLd2XMIQRGRWmJ5Mp0TAr/dnMBXG+K1xNJpx4EU7nrqGMstmJuzfbEmjprdjrF9v/WGPpati+eHX7TNWRiCpol/18ppAXAvkF/lRv6h4dQfPlYlxN+qP9mP8KiyWmKNHLeUbTuOaIklPMfW3w7x1gQ9p/2FFC1JjW5ah/Y8ms4JgYM+OGupCYFzvrtCg97HOX7adcbAjRZzNp17+zj2DrCKpJQsBk3U1oOkdeLftXJaALRUvVGN7s8TVKiIahgAvHz9qDdsjJZY6emZtOsxkfMXpZoWOXPufBzte0wkI0NP12PdF0bhExCoJZZw0DkhcIwFJgRmZcHAiWfp/laspQoSq0hOtdP1zVhemHyWLAuM6o6efYGYs9ac+HetnBYALZRu4utHlfZPq4T4j9JNWhF17wNaYsWcPE+n3pNlPoC4pczMLDr2nsTJ2Ita4pVscD/lWzyuJZb4h84Jge/Nv2Dq7nkZmY7G7YNFej5z7mz8got0eyvW1D0DDsakMX6BdSf+XSsnBUA4UEnlJuWbtyGwYGGVENfV6I0P8A0K1hJr1frdvDbWkF4W4UZeHv05azaqn/QHjgN/Gr76vpZY4r/u6juM0OKllOOkpNl5btwZDRnlXmq6nQ6vnHKJGe9WMf/7K7QeftK0npKBE8/qmvinbce/G8lJAVAzh3/uhqp0UD/M53pCipak9oDXtcUb88FXLFy2RVs84V7mL9nEe1PUd/vLdvfzI/4+9Ero5xMQRL2hb2uJ9cMviU6fEJicaqfFoBiWrTNteDIB2Ijj9Ln+wGM4toEvDhS4+ssfx0tiKRzLxJsCPYFxwArguLOTBscEzodeOOH0bYSXro1n5VZtc/UGYcDEv2vl5ECfF1A4eSiwQCG6bTiKzcuYsx7tWVl82fl+zu7cpiWev58vq5a8zL11lDo9nMbs43jNvr+zrN+yjwfav01amp7jPQtVrsHji9fnejMskXsrej7Kic3qG3+VLurL3oXlCPQ3/kjxjEw7bYaf5JtNhn7//1sasAH4FvgROADomOhSHMdE8vuBRwGt++LezMMNQlg6pgS+Psb/nSUmZ1Gl41FdY/+rAD1j3DeRk1a5nMoNitdpbFjjD46T0xq/NQVv/wAt8VLT0mndbTwHj5zWEk+4vv2HYmnz1ARtjb+3fwBNx3wsjb+TNHh5nJYJgcdPO2dCoN0OPcecdlbjb8fR6HcFIoBmOE573Yuexh/gFPA50AOIBO4D5gDqG2jcwjebEuj+VqxTJgaOnn3eJSb+XSsnLXNplRsUrqbt4MAbKlC+MnUGv6kt3oVLCbTsOJbTZy9riylcU+yZS7TqNJaLl/R9GdcZNJKCt1XVFk/cXL4yFbjjqf5aYjljQuDwqeeY/a3hY/5JOLr2KwONgHmAM7YTzATW4NhYrgSOHuZYI2+44Mc4hk01dtfXAzFpjF+obZLmBBy9L4bLSQFw66P6bqJghSoql+dY9S59Kdngfm3xjhw/S7O2o2V5oAf760Iczdq9zdFofV8eJeo1pfqT/bTFEzlTs/dQQoqWVI5j9A6Bc1de4d352maQX08yjjf8csBAnNTQ3MBFYPzVXPoDhs20HPfZBeZ/b1xR9fz4M6TpmfgXi8ET/66VkwJAaQOg0BKlVS7POZuNpqM/IrCAvuGlPQdO0rzDGK7Euc5Z2kKPy1eSeLD9GK1HRwfkK0DTt6eDzfjxSPH/fAODqT9Mzw6B321JMGQXvt1HUun7rqGrDZYAFXBMLjNnWcP1pQCTgYo4CgJDdjnqOeY0v+7TP+qwZE0cq7Zp2/GvGLATmAk8CahXrTeRkwIgSOUGgfmdNt+DoIhIGr81VesX7Padx2jV6V0SEq231aQwRnxCMq06jeX33ce1xbR5edF0zMcEFy6qLabInbIPPEqx2vdqiTVo4lmSUvQNLMcnZdH25ZNaY17jCI69XNrhGI+3qjgcQwJ3Att1B09Jc0ysvBin7+yAxOQsBk/SPrxQDngamAvE4Pj7M6QgMLwA8Al07g5npZu0pGbPF7TG3LztAC2eeEeKAA8Qn5BMiyfGatvjP1vN3i9SqlFzrTFFzmWkJPHzhNc4s+NnLfGOn05nxlf65gj1HHOagzGGzC2Yh2N53vdGBDfIHqAu8Bb6JiICcPJchtZelunLL3NCz8S/mynLfwuCT3FM3FQaos9JAeCrdAMfpcvzpHb/V7XtEpht0y8HeLD9GC0nvwlrSkxK5eEu77F5m95h0RJ1m3B3v5e0xhQ5F73+ez5/+G5+/2QCWRn6vqzrV1d6N/rbkjVxLPpJ+/y7FBxj/F0xeC25QdKB13CsGPhLZ+DFq+O0nRtQr5opW3iXBZ7CsZIiGse8gcVALyBXG4sYtz7PRDYvL+4b+wmhxZSKo//Y8utBWnYcKz0Bbig+IZkH249h/ZZ9WuOGFoui2fg52Ly9tcYVt5Z4NpYfBnbmu75tiT8VrTX2XZUDuKuy+tLjS/GZ9Nc/qfAMUB/HLH9Xtx5Hb4DWf5jPTzjDyXPqxWCd2wO5o4KeJegKiuIY3pkOHL36axaO4u+m3LIAAMeEqwcnLcA3UM9Wwdk2/SLDAe4mu9tf95u/b3AIzT/8nIB8BbTGFTdnz8xk17ypLHyoJkd/NOa4775tlOZG/23o5HOcPq9nf4mrDgD1gB06g5rsCI6NhPTs9gZcSchi8Ad6xu77tMmnJY5GZXAss5xzqz/otgUAQESVO7h/3Cztb19SBLgPoxp/L28fHhg/h0KVqmuNK27u3J/bWdqhEZvHvEh6ojE93/lDvXni/jDlOOt/T+LTFVr3GtkJNACO6QxqERdwDAes0xXwC02z9zs9EE5okGs2pa6ZdS6UbtKS+sPHao8rRYDrM6rxB2gwYhxRDR/UHldcX1p8HBtHDWbZE034a+8fht6rW8twggLUvjrtdnjxw3PY9W1Vfwh4EDD/7GLjJACPoLEnoP8E9fX7oUFedH4wXFNGzuX2BQBAtc59qN71We1xpQhwXUY2/jWe6k/VJ3pojyuu7/DKpSx8qCZ/LvgYu8F7vtps0Lu1evf/8g3xbNurbULxSRz7xhu3Q5F1xONY0rhXR7D90Wl88rV6L0yf1pYbBsgRjygAAOq9OIbyLdtqjytFgOsxsvG/7ZGO1B3itI28PFrciWOs6PUYq4Z0I+kv5+xr06RWMJVKqZ0rkJkFr36sbWJ7Co4Ddo7rCugCLuL4mbXsvTtm7nnl43trVAig7u2mrAhQ4jGnkdi8vLjvnRlkJCdzfO23WmNnFwErPx9OSLDpM0LFTRjZ+Jdt9ghNRk8z9PArq8hISSYzLdWp98xMTSEjxfHWfOjbxez4eNzf/9sZ/HxtPNUqnKOn0snItBOflLfehnU7kthzVNuzexb3mvCXU4eBJ4CVgNIkr5PnMpjx1WWea6vWs9OnTX62/ulay8RzsmWeUmnUd6+1lqBmpqXyXb92nNyyRnvsBvdUdHoRYPZxvGbfPzeMbPxLNrifllMW5/rUuWlVQpTuq/LvKyszg+nVXLPrUgAwA8fab082ChihGqR4hA9Hl5bHzzfvu8gmp9op8cghrTsNanDTH8j9X1X+xdvPn+aTF1K0Zl3tsWU4wLqMbPyL3VWf5pMWaDly1plsOar/hUUdBwabnYQFjAR+Uw1y6q8Mlq1TO98h0N/GvNeL0bVFOFFFnL8BXl54XAEAjoNBWk3/ksiadbTHliLAeoxs/IvWrEvLj5bhE6BnVzghcqgPrrnDn27pOHbFU97VZ8rSS8rJtKwXwpzXihG9vDxHl5Zn1ivF6NYynFKR1iwIPLIAAMcmLQ9NXy5FgJszuvFv9fFyfIP0bjblNHIqoauaB/xgdhIW8icwSTXIpp1J7Dyk7zu7TDFfurcKZ/arxTj+ZXmOLbNeQeCxBQBIEeDupPEXbigZkIMl/mskGo441rEk8EZKF/1vQTD7VUdBULqoOQWBRxcAcLUImPGVtmNCryUHCJknMSmVR54cZ0jjH1mzDq2mf+nyjb9NegBc0RSsfaSvWeKBd1SDLFkbT6axW0n8rXRRX7q1dBQEx5aVJ/abCiweXZxej+WjShl/p+Tg8QUAOOYEtJzyhSE9AXKAkPPFJyTTvMMY1m3WslfI/ylasy4PffwVvsFqs/eFyIN4QP+2pu5jOo6T8fLszIUMtuxK0pRO7hQt5EO7pmFMH1aUPQvKcvzL8obfUwqAq2Q4wD3EJyTTsuNYNv0i3f63JD0ArmYG7r3Vr6oUYKJqkC/WqK0G0MUZ8wSkALiGFAGuTRp/4cbswMdmJ+ECPsUxTyLPVmy2RgHgDFIA/IsUAa5JGv88kl4AV7EGx1G/4uYuAItUAhyLTSfmrPKqQpcgBcB1SBHgWqTxFx5A3v5z7jPVAOt2mDMPwNmkALgBWR3gGrJn+xvR+LvLbH/h8uKAb8xOwoWsBc6pBFgvBYCQ1QHWJrP91clSQJewBMVxbQ+TiWLB9PMez3jcUgDcgvQEWJO8+QsPMt/sBFzQWpWLD8akkZKmdkSwK5ACIAd8A4NpOW2JIUXAll8P0rzDO1IE5EJiUioPdX7XkDf/yJp1eGj6crd/8/+b9ABYXSywwewkXJDSca8ZmXb2HnPucddm8DE7AVeRPRzwbe/WnN6xVWvs7OEAZx8l7IoSElNo8cQ7MuFPExu2PJ/37eXrh2+gSYcg2Wz4h5l3lLFfcCg2b6Vj6AHISElOuHRk/80+zItxdGmL3DkNRAOl8hpg3/FUalZ07+/jnJT/Sv0gKueVW1F6ciLf9W1L7LaNZqciNPK4N39hEbZp06oE9zM7Czf1A/BAXi8e1TuCEd0LaUwn92x19ymHuNlvyhBALhk5HCDMIY2/MIsN+3Gzc3BjSt2E0Wfcfy8AKQDyIHs4oGjNumanIhR5ymx/YU1Z2GPMzsGNKRUAJ85m6MrDsqQAyCPf4BBaTf9SigAX5olj/sJa7DbvaLNzcGMHVS6+cMX9p15IAaDANziEVjOWy3CAC5KlfsIK7BlpShvWiJv6S+XiS/FSAIhbkOEA1yPd/sIyvH09Y8s5cySqXHw5QQoAkQPSE+A65M1fWIp/qhQAxlF6tukZshGQyCFZHWB9MttfWM6l/FIAGEepByDD/TsApADQSYYDrEu6/YXwOGkqF2dID4DILRkOsB7p9heWlf+SSVspegSlrSID/N1/m2wpAAwgwwHWId3+wtJS/aUAME5+lYuDA9y/eXT/n9AkvoHBtJy6xOw0PJ50+wtLy0yXAsA4agVAoPs3j+7/E5pIupzNJ38HwspsPn6Fzc7BjSkVAIXC1Q97sjopAIQQwiQ2e2aeT6sTt1Re5eJiEe5/WK4UAEIIYRIbNikAjHO7ysVFCkgBIIQQwjD20mZn4MZqqFxcpqivrjwsy/1LHBe3+OvVZqdgqvaP3Gd2CuIWki+c49QvGzi7cxuXjh0k/uRxki+eJz05iax0paXYnqDP1V83MgkY4KRc3Ik3UFklQMVS/ppSsS4pAIQQuZZ65RKHVizmwNcLObf7N7PTcWcdgMGAB+xLp1VVQGmFRcUoP02pWJcUAEKIHEs8d5qdsz5g7+JZpCcr7bQqcqYIcD/wg9mJuJhWKhcHB3pRroQUAEIIQVZmBn8u+Jhtk94kPTHB7HQ8TUekAMith1UurlkxAG8PmCEnBYAQ4qauRB/hx8FdOb9vp9mpeKo2QF8g2exEXEQEUFslwF2VAjSlYm0eUOMIIfLq2JoVLGnXQBp/c4UCj5mdhAt5CMckwDxrUMMzNmiUAkAIcV0Hln/GjwO6kJYQb3YqAnqYnYALudmqilvy9oImtaQAEEJ4qH1LZrNmRB+yMjPMTkU4NAEqmJ2EC7gbxe7/u6sEkj/U/bcBBikAhBD/cmzNCtaPHAB29z8P3YXYgGfNTsIFKD+jVvU85/AwKQCEEH+7En2ENcN7Ys+UZecW1BPHskBxfUVw7JugpG3TMA2pqIs+k274PWQVgBACgKyMdH4c3FXG/K0rCHgBGGp2Ihb1BqA0fb9qWX8qlTJn/X/0mXTW7Uhi3Y5E1v+exLFYKQCEEE6ya+4Ume1vff2AD4FosxOxmKpomCjZ5cFwDankzLUN/rodSRw/bXyD/29SAAghSDx3mt+mjDE7DXFrQcB4oK3ZiVjMOBTbM18fG91bGVcAWKHB/zcpAIQQ7Jz1gWzt6zoeB5oBq8xOxCIeApqrBmlVL4TIgvqaxPikLL7aEM9Pvzq69K3Q4P+bFABCeLjUK5fYu3iW2WmI3PkEx3G3l81OxGSFgRk6AvVvX0A5ht0O639PYtaKyyxdF09icpaGzIwjBYAQHu7QisXy9u96ooApQGezEzGRDZgFRKoGqlUpQHnzn5Q0O3c8eZQDMa5zBLblC4BpVdTWZPbda+7BJV6+fkpnomdkZODjY/m/JkOkp6t1mXn5uv9pXjoc+GqBtlgFKlShctvulKjbhNDiUfgGBmuLnS0rPY0/Zn3A9o/eJSPFudvjLxpVnPb3qS0T++yHK3R5I1ZHOp2AtTh6AzxRf6CljkBDOxdUjrF4dZxLNf4g+wAYzjdQrapMTk7SlInrSVH82X2D9Dc+7ib5wjnO7dmhHMfL1497X5lA+2Vbqf5kPwqUr2xI4599r5q9htLhq21ENWhmyD1uZNqyS8oxOjYLp2pZfw3ZAI5egAa6grmQhsBYHYGqlfOnnYa1/9O/VP9sOJsUAAZT/RJMSfbcA8CSFX92oxogd3Lqlw3KO/55+frRavoybu/UC5u387ZQDStZhlYff8kDE+YSXLioU+65/vck9h1PVYrh5QVv9ozQlBF+wFKgrK6ALqAG8DWgpYoa1TsCL8WWcNfhVLbsdr3vaikADOYTrNYIxcdd0ZSJ61H92aUH4NbO7tymHKP+sHcoUaexejJ5VK55G55YsYNqnfsYXoDY7TBtmfq8u9aNQqldJVBDRoBjItxqoKSugBZWFlgJaFmv16BGEI/cG6oc5yMXfPsHKQAM5x+i9jk9HXtSUyauJ/aU2s/uF5ZPUybu6/KxQ0rXF6hQhaodntGUTd75hYTSYMQ4Hl+4loiqdxp6r7krLyvP7rbZYMoLkXjr+wYujaMIKKYtovWUBH4AtHT3eHvB5CHqOyvHJ2Ux/3vXfFGTAsBgYSVLK11/6mSMnkRcUOwptZ89rERpPYm4scvRh5Wur9y2u1O7/W8l4vaaPP75Ohq8/B5+IepvdtdzJSGLBT/GKce5q3IAfVrn15DR3yoAm4GKOoNaRHVgK1BeV8C+bfJzRwWlnYMBWPDjFeKTrL3c70akADBYWEm1obkTMZ674+eJmONK14dHedKwaN6kxau9uZSs11RTJvrYvL2p1qUvT6zYQbkHWxtyDx2TAQFG9YnQuvkMjp6AzUA9nUFc5LlnAAAgAElEQVRNdj+wESiuK2DJIr6M6l1YS6yPNAwJaXYMmA10u9UflALAYGElyyhdv2/PLuweeCyr3W5n35+7lGKoPntPkJaotkw2JLKEpkz0Cy5clAfen0er6cu09wb9fjCFn/9Un/SVL8SbGS8VxWbTkNQ/CuJYHvic1qjm6AN8C2g7os9mg5kvFyU8RL35+/nPZP44lKIhKyVHceyH0A0ohWOexFPA3FtdKAWAwcJLlVO6Pu7KZeU3YVd0/NgR4uPVulmlB+DWVPaoAPANtv7Z6VH3PkCHr3+lZq8X8PLx1RZ3q4YCAOCh+iH0a6N1KAAcqwMmAwsBV5wMUxjHTP9pOH4Wbfq0zk+z2nomCJs08/8I8CnQFceGUOWAp3E0+LkaN5UCwGCFKlfHy1uti2/X79s1ZeM6dv2h9jN7+fhSqHJ1TdkIV+cTEMg9A98gsmYdLfFKRfrS+zF97ep7zxfhdn17A1zrCWAP8KgRwQ3yMLD76n9qVaNCAOP7q0/8y9b7sXxEFdFXVN7Avxv88sAzwDzghEpgKQAM5hsYTEHFhmjThtWasnEdm9ar/cwRVe7AJ0BtEybhXo78uJzYbRu1xJowoAhBAfq+PgP9bSweXVxLt/R1FAOWA0twvC1aVUVgGY43fz0D9NcID/FiydvFCfTXN94SHOjFhAH6CoqrDgMzgSdxrHzQ1uD/mxQAThB5xz1K1x89fNCjhgGijx8l+tgRpRi63vSEe0hPTmTLO8O1xHrwnmDaNNa/wqByaX8WjCyuc2ngvz0O7AUmYkADq6AIMBX4EzBk1qaXF8x5tRjlS+jfHvzxJqE8cI+2PUfOADWBHsB8wNB14FIAOEHRmnWVY6z9aaWGTFzD2lXqP2vknerPXLiP7R+9S8IZ9e9Sf18bk4conz1zQy3rhTD2We1vlNfyAwYA0cDHQCUjb3YL1XE0/IeBvhh4Ns34/kV4tKExy0IBJg+OxN9XS89CJPC6jkA5IQWAE5So11T5YJqfvv9WeVKcK4i7cpnVq75TiuHt50+Juk00ZSRc3eWjB9k5e7KWWEM6FaRCSWMPmRrSqQDPtdU+KfDfAoCeOHoE1uGYRKZtpv1NhOLo2t4M7MTR8Bs6k7R/+wIM7KB+1O/N3Bblx+CO2u7RH6iqK9jNSAHgBP5h+ZS3Sk1JSWblN8v0JGRh3369lNQUtWU1Jeo1NWwTGOF6Nr79gvJqB3BM/BvRXf3UuJyYNDiSpx5yyuR9G9AIx5jzGRzb7A4EKl/9PR1uB4bi2KnwPI7Z6k7Zp6Bby3De1z9Gf10juhfSNSHQF8cKDsN55jmzJij7wKPEbPxRKcbKb77kwVaPER7uiqt6bu3SpQt8/+1y5Thlm7nShGdhpCM/fMnJLWu0xHp/oN6Jfzdjs8GMl4qSmJzF4tVO6/kLBJpf/QVwBdgBbMcxEz0Gx9DBJSAZiMPRhoRd/ZUPxx4Et+F4g83+Zezr9w10uD+MmSOKKR/0k1PZEwLbvqxl2L4J0BHHMk7D5KTCU9qFpu9etY1G3EXK5YvMaViOrAy1M+4bNX2AZwcO05SVtUwa/7by7H8vH1+6bzyKf7jhXah/S75wjlO/bODszm1cOnaQ+JPHSb54nvSrxxn7BgYRWKAQoSVKk79sRYrUqE3xexoSWEDbiXB5Nq2KWu+rlf99pycn8nmrWlrG/pvXCWHl+84/aycj006Pt08z5zvX3GveLF1bhDNzRFF8vPXusJQTDw6M4cdfEnWEisUxRyNeR7DrkR4AJwnIV4Ay9z3EkR++VIqzYe0qmjZrQeWq7rXGfc/uP9i8Qf1NrWyzR5zS+KdeucShFYs58PVCzu3+7eZ/Nj2N1LjLXD5+mBObfgKmgM1GkWp3cdsjHanQqp1TCxZPsX3aWG0T/yYNdk438r/5eNuY9UoxIvL7MO6zC6bk4GoGdCjA+wOK6N5dMccmD46kepejpKYr7+BaDMeEwBfUs7o+mQPgRNW69FWOYbfbmTJxLImKW7haSUJ8PFM/eFfLlsc6nvHNJJ47zZaxw5nXtBIbRw+5ZeN/Q3Y7Z3f9ysZRg5l3XyW2vPsSSX+d0ZusB7t89CA753yoJdYLnY2f+HczNhu891xhxj1fxGnd2a7I2wvGPV+EiQPNa/zBkAmBVXQF+zf5ODlR0Vr1tBxVeu7sGT58/x23OCPAbrczbfJ7/HXurHKsiCp3EHmnMev/szIz2DVvKgtb3cnOOR+Snqyliw+A9KREds6ezGcPVufXKW9rmbDm6Ta/M0zLcyxZxJeXujpn4t+tDOlUgJ8mlaJwfum4/beQQC+WjinBkE6mTDf4j1eeKkTpotomBH6EvgmZ/0cKACe7vVMvLXG2b9vK18sWaYllpi+/WMCvP2/WEqt6N2POPrkSfYSl7RuxecyLpBvY85KRksRvU95mWaf7iDtxzLD7uLsjP3xJzKZVWmJ9MKgIwYHW+ZpsUiuIrTNKU0PDMbbuonp5f36dVcbQdf65FRTgpXPL4XuBDrqCXcs6n2wPcdsjHclXWs+R1gvmfsL6NWorC8y0bvUPLPpslpZY+ctWpELLdlpiXevYmhUsadeA8/t2ao99I3/t+Z0v2tbn+Fq1/RA8UXpSIlvGvqQlVvM6IbRuZJ1GJVvZ4r5snVGaAR0KmNrVbQV9Wufnl5llqFTKvCGaG2nTOJQH9e0QOA7HHgpaSQHgZF7ePtQeoGejJ7vdzkeTx/Pbti1a4jnTr79sZvqH47UNY9wz8HVs3t5aYmXbt2Q2PwzoTFqCYZNwbygtPo4f+ndi/7JbnugprrH9I9ef+JcTgf42Jg4swurJpSgVafhhNJZTorAP300oybQXIwnws24VNEnfDoHFgdd0BLqWFAAmKPfAYxS+vZaWWJmZGYwfM9KlegLWrf6BCe+MJDMzU0u8IjVqU+Y+vQeH7Vsym3WvP49dU455kZWZwdpXn5UiIIfcaeJfTjWpFcSu+WXp376AKUvenM3LC3o/lp8/PytHi7rWP4r6tig/hnTSNodkAJonBEoBYAabjXrDxqCr/y4zM4OpH7zLV0s/t/TEQLvdzrLFnzFt0nvaGn+blxf1hr6t7VmCo9t//cgBYIVnabez/vX+RK/znLMg8mrj6CHadvx7uZs1Jv7lRFiwFx8MKsIfc8vQ9C5tXc6WU796INtmluGjYZFGnZpoiBHdC1p2h0DXeYpupmitelTt8Iy2eHa7nc/mzGDcmNdJNKHL+lYS4uN5b/RrfD7/U61FStUnemg9+e9K9BHWDO9p6pv/v2VlZvDTsGdkYuBNHPnhS05uXasl1kvdCjptxz+dqpb1Z/XkKL56twR33uY+kwSrlPFn8ejibPyoNLUqud7PFRTgxcv6tpBuCjyhK5jsBGii9MQEPn/kbhJOaz3imYjCkTw78EWq3F5Da9y82rP7D6Z+8K6WpX7XCi0WRYevf8U3SM9bT1ZGOks7NHbqhL/ciLi9Jm0WrsHLW98yMHfYCTA9KZHPW9Uk4ewpLfGKFfJh3dRSLjEEcCN2O3y9MZ6RM8/z+0G1szXMUrWsP8OfLEjHB8KNPCLZcIdPptG4XzSn/srQFfIUjrMalN/0XPixuj7f4BAajZyktfsa4K9zZxg5YgiTJ4zh8qWLWmPnxqVLF5g0/m1GjhiivfHHZqPxmx9qa/wBds2dYtnGH+CvP3ewe/5HZqdhOds/Gqut8QeIPZ9B437RHDrhuvsx2GzwaMNQdswpw9oppWh/Xxi+PtafI+DlBS3qhvDDxCh2zy9Ll+bS+F+HtgmBsqOEyaIaNOOOpwbwx6cTtca12+1sXPcT27dtpcXDrWn5cBtCw8K13uNG4q5c5tuvl/L9iuUkX90PX7c7nxlEiXpNtcVLPHea36aM0RbPKL9+OIoKrdoRVMi6M9SdLStT65cr8E8R4Oo9AQCNawbRuGYQp89nMOvbyyz6KY5dh1PNTuv/lC/hR7eW4XRrGU5JPePlpjOo8c+mZcmTDAFYQFZmBit6PMqpX9Ybdo+AgEDue6AlTZq1IKpUGUPuEX38KGtXrWT1qu+Uj/S9mRJ1GvPQjK+0LvvbMna4thnkRrvj6YHUfWGUlljuMASA3c7md4axa95U7aHdYTjgevZHp/HF6ji+3hTP7wdSyMxy7v1tNqhRPoBHG4bwWKNQ7nCzjY0Mbvwn41gRoDyZSgoAi0i++BdL2t6rZQ3zrZQuW54GDZtS/Y5alCpTDlsehyDsdjvRx46w84/tbFq/muhjRzRn+l8hkSVou2QTgQUKaYuZeuUS85pW0rq9r5F8g4J5cs0B/MPUj4V2iwIApAhQcDkhk/U7kli7I4mtu5P582gqSSl6KwJ/XxvVyvtTu0ogje4MokmtYCLy6d23wypcpfEHKQAs5fz+XXzVrTlp8U47/5vQsHAqV61Gyf+1d9/xVVR5H8e/Nw1IgwRYkCRABEEgVGnSFBUQpIgCCgpYV117eVRw18Wu7KMIa39QUcCCqIiIuipY1oKVKihIgFClJ4RAQpLnj0tcdCG5yZm5M3Pn8369eO2+MHPmN8PNPd85M3NOw8ZKS2+o49LSlZiYrISERFWvUUOSdKCgQPn5+7RvX642b9yozZs2KGfDOq1cvlR5Yay1WlJNDX7hXdU50dqVEJfPfFqf3XezpW3ardedj6rV+ZcZtxMxAUAiBFikuET6ZWOhlqw5oNU5hdq8/ZByfj2kTduLtDuvWPkFpSosKtXe/GKVlEg1E6MUFQgoKT5K9WvHqG5KtOqnxqhJepyapseqWUacWmZW88QzCKa81PlLHggAEfUFFYIt33+peZcN0aED9tw796qY6vEaNHWupa/8lXl9xCn6dfl3lrSVekJLtRh2kdJP7q2ktIaSpLxNG7Txy4VaOXuadq3+0ZL91GvbWee8bL58csT9fhEC4BCvdf4SbwG4znEdTla/yTMUFRMZD8JYISo2Tv2mzLSl8y/Y+at+XfG9cTtRsXHq+bdJGvHmV2oz+i9KbdpCsTUSFFsjQalNW6jN6L9oxBtfqucdDysq1rwD2bb0GxXs2mHcTsQJBNT99ofUZvRfLG86Et4OgD282PlLBABXatizr/pNnqmY6jWcLsVxMdXjdebkmWrYo48t7W9a9KnxjH9RsXEa+Mybyhp5uQLlLNgeiI5W1gVX6Kyn3zAPAaWl2vz1p2ZtRCpCAMLIq52/RABwrca9B2jQ1LdVrWaK06U4plrNFA1+7m01OrW/bfvYtuRr4za63/6Q0rqcEvLPp3c9Vd1uvd94v1bUHrEIAQgDL3f+EgHA1ep36KqhMz5QYv10p0sJu8TjMjR05oeq166LrfvZk73aaPvUE1qq1YhLKr1d1vmXK7VpC6N97zasPeIRAmAjr3f+EgHA9VKanKhhsz+zdNIbt8vofrqGvfaZUo5vbvu+9qxfY7R9i2EXVWk+gkB0tE48d6zRvvca1u4LhADYIBI6f4kA4Ak1Uutq4DNz1Onq8Zavee8mgehodb72rzrr6Tctfc+/PIV5e422zzAIZibbStLB3D1G2/sGIQAWipTOXyIAeEYgKkodrx6vQVPnKjnDnpn8nJSckalBU9/WSVfdXu6DdFYrzDd7jc3k9kxSg4ZG+y4yrN1XCAGwQCR1/hIBwHPSupyi895apHaX3GDpqnBOiYqOUbtLbtB5by1SWpdeYd+/6frxsQlVf4/eZFtJKi5013zurhdBISC/oESPvLxLXy0vCMv+3OiblQWaMmuX5bMWHkukdf4SAcCTYqrH6+Rb7tW5r31qy7vx4VK/Q1ed+9qnOvmWexVTPd7pcuAHERACXl+Yp5Yj1+rmKdt08uXr1H5Mtp6es1t5+8M8ob8D9hWU6P/e2qOOF2er8yXrdP2kbWo1aq3mfGq8Mm65IrHzlwgAnlbnxDYaOuNDDXr2bdXN6uB0OSGr3ayV+k6arqEzPrR8Wl+gQjaHgJ5XrteP2daPzqzZWKgBN+Vo2PiN2rCt6Le/X7z6gK58aKvSBq3WFQ9t0eLV9i3E5ZRV6wt1+xO/qtHZa/TnB7fou1X/OcZ1W4o09LaNOuPaDVq5zvrzvjrH1s7/GTnU+UsEgIiQfnJvDXv1E5055SXVb2/va3Mm6rfvojOnvKQRb36lJv2GOl0O/OxwCGh94VWWN71t1yH1uW6DZSMB+w+U6I6ntitr1Fq9++Wxn/vI21+iZ+bsUfsx2ep2+Tq9+O5eHSh0pF+xxIHCUs14b696XLFOLc7/RQ9N36lducXH/PmPvs1X+zHZ+tsz21Vw0JrjXrOxUL2vtvXK/0o51PlLkvdvIiMoEFDmGYOVecZg7fxpmZa/PFWr572iov3OrnAXG5+gZoNGqtX5l6p289aO1gL8TiCgHuMmSpKWzXjS0qbLbgeYrh3wxsd5uvHRbb+74g/Fl8sL9OXyAt37/A6teqWJwvhcrSXe/XKfRt+1WTv3HrvDP5qDRaW69/kdmvHeXk26oZ7O7pVU5Roiddj/SASACFS7eWudMmGyuv3PfVr/6fvK/uhtbfjsX2FbZTAuKVkNe/ZV5umD1KhXP+OH3QDbuDQE/LyhUNc9slXvLzIL8KtzCvXx9/k6rWOCUTvh9uqHuZXu/I9UdltgQLdETb6xnpqmV+78+6HzlwgAES02IVFN+5+rpv3PVUlRoTZ9/Zm2fPu5ti5epO0rvlfhPmsenIlNSNSfsk5Svbad1aBTD6V17mnJgjdAWLgoBOw/UKL7pu3Uwy/t1MEia/qHafP3ei4AfPy9Nauhzv9inxZ8m6//ubC2xo2poxrVKl4A1+bO/zG5pPOXCAC+ERUbp4zupyuj++mSpNKSEu3+ZZVeHdLZqN3z3vpaKU1ODOu7+4DlXBAC3vg4TzdN3qb1Wys33F+R1xfm6bGbS5Sc4I3f0ezNRZaegwOFpbrnuR2a/u5ePXpDPQ0p57ZAGDr/6+SSzl/yQABw3XrjESIQFaXUE1oat2NFG4ArOBQCVucU6tqHzYf7j2X/gRK9+Umexg6oaUv7VvvkB2uu/v9o3ZYinV3ObQG/df4SbwEAwH8cDgHheEWw4GCpJkzdrjYXrrWt8y+z8DtnHwaujI+/t7fW+V/sU8uRa3X9pG3aVxCcOyEMr/q5rvOXPDACAABhdfgVwdLSUstHAspeEbzz0jp64IWdlg/3H8vC7+y5qraDVff/y1N0qFRTZu3S3M/yNH5sHd317HZfXfmXIQAAwB8dHgkIBAJaOv0JS5vevOOQrnxoq6VtVmTDtiJlby5SZoPYsO63sqy+/1+RdVuK9OcHt9jVvGuv/MtwCwAAjsbGGQOdYPfQuhW8UGOInpHDk/yEggAAAMcSQSHArofrrOSFGkPgic5fIgAAQPkiJAR44TmAcNz/t5lnOn+JAAAAFYuAELBhW5HWbQnf/fXK2rAtvPf/beCpzl8iAPie6Yx9RfnenafBdCbE6LhqxjU4ef7dcPyeEgEhwM1X2Au+dW9tIfBc5y8RAHwvznCe/n1bN1pUSfjt25JjtL0Vaxw4ef7dcPyeY+MqguHg5ofsPvnBvbVV4DF5sPOXCAC+Vy25ltH2OV8ssKiS8DOt3fTcWdGGyTG44fg96fArgl4MAW5+yM7NoxPlcPV7/hUhAPhczYZNjLZfOXuaSourvmqXU0qLi7Vy9jSjNmo2ampch1Pn3y3H71keDQHrtrjzOYD1W91ZVwU83flLBADfq5V5gtH2u1b/qBWvTLWomvBZ/vIz2v3LKqM2UgzPneTc+XfL8XuaAyEgvm594zbcOApg0dW/bTP6HIXnO3+JAOB79dp1MW7j84njtPGrj82LCZONXy7UFxPHG7djxblz4vy76fg9L0whIComVu0uuUGj3l2img2PN2rLjc8BWFDTWknNJE2UVGhcUPkiovOXCAC+l9allxSoeI3s8pQUFeqdK87RsplPufp2QGlxsZbNeFLvXHGOSg6ZDTcGoqKU1rmXcU3hPP9uPP6IYHMISO96qkbM+Uon33KvYuMT1MDwvLvxXrsFoxIfS9on6TZJbSV9aNrgMURM5y+xFoDv1Uitq3qtO2rb0m+M2ikpKtS/77tFP776rE48d6wyup2mpLRGio1PsKjSqinan6+8TeuV8/lHWvn6C8bD3mXqte2k6im1jdux+/xLcvXxRwwblhJOrJembrc9oCZnnvO7v2/QqYfR8xvrtgTft29U3x3rAqzfGlynwNDHR/z/VZL6SBou6RFJ6aaNHxZRnb/kgQDwZEuzV42u+tG776mHS7PBI407oDK71qzUFw/dbklbbtZs8EhL2/La+bfy+COGRSEgKiZWrc6/TF2u//tRX7Vs0Klnldsu03joGuM2XOaTo/zda5LekXSrpNslmUxc4fqFfaqCWwDQCWcNV2wNZ6/UvSQ2IVFN+w+zrD2vnX+rjz+iGN4OSO96qs6bs0g9xv/jmPMsJNZPU3JGpkmVkWatpA3H+G/7JU2Q2W0Bz77nXxECAFStZopanneJ02V4RtbIP1v6DrzXzr/Vxx9xqhACEv50nE574BkNem6eah3frMKf5/mL31kYws/8pOBtgcGS1lei7Yi88i9DAIAkqd3F1zt+v94L4hKT1Paiay1v1yvn367jjzhlIeCCK8v9sajYOLW/7CaNnL9YzYeMCrn5Bp3NbwNEkE8r8bNvS2ol6UFV/LZAxF75lyEAQFLw/eKOV5u/GhbpOl37N9VIrWt5u145/3Ydf0QKBNRj/D+OORKQ1qWXhr/+ubredHelw58VzwFEkKPd/y9PvqRxkrIkvXuMn4noK/8yBAD8ps3ov6huq/ZOl+Faf2rdUVmj/mxb+24//3Yff0Q6ykhAYv109Z00XYOfn6/Upi2q1CzPAfxmrSo3pH+k1ZIGKPi2wJELYzyuCL/yL+P6twAQPlExser7yIt6bVh3FeblOl2Oq1RLqqk+D09TVLR9vzJuPv/hOP6IdXgkIComRlFx1XTSlbda8tBng049lZuTbUGBnlbZq/+jma3gSMAdkmpIukk+6PwlRgDwB8kZmTr9wal80R8hKjpGZ/zjOSWnN7Z9X248/+E8/ogVCKjbbQ+q6413WfbGRxrPAUi/f//fRL6k8ZJulE86f4kAgKNo3HuATrlrivEMdREhENCp9zyuhr36hW2Xrjr/Dhw/QsODgJKsCwC+RADAUZ14zhiddv/Tiopxx2xhTghER+vUu/6p5mdfEPZ9u+H8O3n8qFhi/XS/PwdQ3vv/CAEBAMfUfMgonTnlJcUlJTtdSthVS6qpAY/PUothFzlWg5Pn3w3Hj4r5/G0AK+7/+xoBAOVqdGp/DZ/9uepmdXC6lLD5U+uOGvb6564Y9nbi/Lvp+FG+Bp16OF2Ckz52ugCvIwCgQskZmTrn5QXqPm6i4hKTnC7HNrE1EtT1prs19KUPXfXAW7jOv1uPH8eW1sXXMwIyAmAolKeMjJ6INF2Mh8WA3KVg569a/NxkrXh1qor2u29d8aqITUhU1vmXq+3F17l+khs7zr+Xjh//bWbfLOVuXOd0GeGWLel4p4vwOgIAquRg7h6tfuc1/Tz35eBKdqUee3MmEFD9dp3VbPBINe0/zHNz2xuff48fP/5j4R1XadWb050uI9yel+SdBTRcigAAYwW7dmjz159q25KvtXvtz8rdmK0Du3eqMH+fSooqmm7bXlGxcYpLSFT1lNpKTs9USpPmqte2s9I694qY9ezLO/+SIv74/e6nt17SgnG+m6HxIkkvOF2E17k+AAAAqsb0Akqh9RHwKB4CBADAhwgAAAD4EAEAAAAfIgAAAOBDBAAAAHyIAAAAgA8RAAAA8CECAAAAPkQAAADAhwgAAAD4EAEAAAAfIgAAAOBDBAAAAHyIAAAAgA8RAAAA8KFQ1noutb0KAIAbhdJHwKMYAQAAwIcIAAAA+BABAAAAHyIAAADgQwQAAAB8iAAAAIAPEQAAAPAhAgAAAD5EAAAAwIcIAAAA+BABAAAAHyIAAADgQwQAAAB8iAAAAIAPEQAAAPChGLt38O2Sn+zeBcrRsW1zo+1L777OokqqJnDnFKPtqd+Maf38/jvL9PcfkY0RAAAAfIgAAACADxEAAADwIQIAAAA+RAAAAMCHCAAAAPgQAQAAAB8iAES42NhYo+3zDhZaVAm8Jtfw3z4uLs6iSgDYgQAQ4eITEoy2z8ndZ1El8JoNe/OMto+PN/vsAbAXASDCJSfXNNr+gzUbLKoEXmP6b5+cnGxRJQDsQACIcBkZDY22n/rdChWXlFpUDbyiuKRUU79bYdRGRqPG1hQDwBYEgAjXqHGm0fbLf92pJ79ZalE18IrHv16qH7fvMmrD9LMHwF4EgAjXum174zZufu/f+mhtjgXVwAs+/CVHt7z/mXE7bdqYf/YA2IcAEOE6duqiQCBg1EZhcbEGTJ+rf361hNsBEay4pFRTvlqiATPeUlFxiVFbUVFR6ti5i0WVAbCD7csBw1mpqbXVKquNli9bYtROYXGxrpv/iZ7+drku7dBSfZo2VONayUqMM3vNEM7aV1ikdXty9a81G/TsdyuMh/3LZLVpq1q1UixpC4A9CAA+MGDgEOMAUGbFrzt103vmw8PhYrqevdO8Wv9ZA4c4XQKACnALwAfO7D9QNWrUcLoM+ER8QoL69DvL6TIAVIAA4APJNWvqnGHnO10GfGL4eaOYAwDwAAKAT4y+6FLFx8c7XQYiXEJCoi4YfbHTZQAIAQHAJ+rUqavLr7zG6TIQ4a68+nqlptZ2ugwAISAA+MjIC8aqRctWTpeBCNUqq41GnH+B02UACBEBwEdiYmL0wMRHlZiY5HQpiDBJScl6YOIkRUdHO10KgBARAHwmPaOh7r5/Il/UsEx0dLTufeB/1SAt3elSAFRCKAHAaFHwoqIik81hg16nnKY77rzHeIZAIBAI6G8T7lP3nqc4XQr+oLDQ6Ktbkg5aUQfcK5QAYLQgfC/+kK8AAAvKSURBVMH+/SabwyaDzz5XE+55UDExzAWFqomKitYdd96jgYOHOl0KjmL//nzTJvKsqAPuFUoAyDXZwd69e0w2h43OGnS2/jHpMZ4JQKUlJSVr0pQndfY5w50uBceQm2v01S0RACKe7SMAOTkbTDaHzXr26q2Zr76plq2ynC4FHtEqq41mvvomw/4ul7N+nWkTBIAIF0oA2Gqyg/Xrsk02RxikpWfo+emzdNMt4xSfkOB0OXCphIRE3XzrHXruxVd44M8DLPjuNfruh/uFEgB+MtnBsiU/mGyOMImOjtao0Rdpztv/0uixzBqI/4hPSNCYiy/Tm/P+pZEXjOENEo9YutT4u9foux/uF8pj4NdKqvKSZKmptfX+gs954txjcnNz9f678zR/3ltavmyJSktLnS4JYRQIBNS6bTudNXCI+vQ7i7n9PaakpER9e3fTnj27TZq5RtLjFpUEFwqlV+4r6X2TnUybMUtZrduaNAEH7d69S99+s0jLli7Wuuy12rQxR3v27Nb+/Hxe8/S42NhYxSckqFatFKWlZygzs4lat2mnjp27qFatFKfLQxUtXfyDLhlrvABYH0kfWlAOXCqUd8C+l1Sq0MLCUc2f9xYBwMNSUlLVp29/9enb3+lSAITgnXlzTJsokcT92wgXyjMAOyQtNdnJe+/OU0FBgUkTAIAQ7M/P1wfvzzdtZomknRaUAxcLdSrgBSY7yd27V2/MfsWkCQBACF579SUr5gD4yIpa4G5hCQCSNH3as9rPrIAAYJv8/H2aOf15K5oy/s6H+4UaAD6UZDSl344d2/V/Tz1m0gQAoBxPPT5Zu3YZj9zvFgHAF0INAAckzTbd2cszX9DKH1eYNgMA+IMVy5dq1iszrWhqllgIyBcqsxzwdNOdHTp0SONuvUH79jHDJABYJS8vV+NuvVHFxcVWNGf8XQ9vqEwA+EzSGtMdbszZoDvH32rVBxUAfK24uFh/HXeLNm/aaEVzP0v6woqG4H6VndPzoKRBpjtdvz5bv27bql6nnsYMgQBQRaWlpbr77+P10QfvWdXkbQrO/QIfqGwAWCpprKSapjv+adVKbd60UT179VZUVGUGIgAAJSXFuv+eOzV3zutWNZkj6TJJDM/6RGUDQImCswKeacXOV/+8Sj+tWqkevU5RXFw1K5oEgIiXl5er22653ooJf450h6SvrGwQ7laV8fcakpZJamJVEWnpGXpg4qOsSQ8AFVixfKnG3XqjVff8y/wsqY14+t9XqrKu5yEFl4m80Koi8nJzNXfO69q7Z4/atu+guLg4q5oGgIhQUFCgp56YrHsm3KHcvXutbn60pFVWNwp3M3kC7w1JQ60qpExq7ToaPfYSnTt8JGvSA/C9/fn5mj3rZc148TkrJvk5mlmSzrOjYbibSQDIkLRYUqpFtfxOcnKy+vUfqAEDhyirdVveFgDgG6WlpVq2ZLHemTdHH7w/34q5/Y9lh6S2kjbbtQO4l2mvOljSHAvaKVdKSqo6duqi1m3aqXHm8UpLz1CtWimKT0hQbGysnbsGANsUFRVpf36+9uzZrU0bc5Sd/YuWLV2sb79epD17dtu9+1JJAyVZ+iQhvMOKjvthSTdZ0A4AIHweknS700XAOVYEgFgFFwvqZUFbAAD7LZTUT1KR04XAOVYN3SdL+kRSO4vaAwDYY5mCF2xGK7zC+6y8d99A0r8lZVrYJgDAOtmSukva4nQhcJ6Vc/BultRXwQ8YAMBdsiX1EZ0/DrN6Ev41krop+HogAMAdlkvqKekXpwuBe9ixCs9WSb0VfCYAAOCshZJ6SNrkdCFwl6pMBRyKA5JmKPieaS/ZPE8AAOC/lEr6p6QxkvY7XAtcKBwd80BJ0yTVDsO+AADSTgWXbn/H6ULgXnbcAvijeQpONTk7DPsCAL+bpeDKfnT+KFe4h+Z7S3pcUosw7xcAIt0aSddKes/pQuAN4RgBONJCSe0V/JDmhHnfABCJNki6RlKW6PxRCU4+nBen4MMpt0o6wcE6AMCLfpY0UdJ0SYUO1wIPcsvT+ScpGAZGSarjcC0A4FZ7Jc2V9KKkjxR80h+oErcEgDLVJZ0m6fTD/9tG4b9NAQBuUSJpiaQFCnb4CyQddLQiRAy3BYA/qq3gMwPNJZ0oqZmkepKSJNWSlKjgrQQA8KJCSfsUXJgnT9I2ST9JWqXgEP8PCr7SB1jO7QEA3mc0RDlr7kdW1eFJIwafbtoEv+MAjorhdQAAfIgAAACADxEAAADwIQIAAAA+RAAAAMCHCAAAAPgQAQAAAB8iAAAA4EMEAAAAfIgAAACADxEAAADwIQIAAAA+RAAAAMCHCAAAAPgQAQAAAB+KcboAWCpTUldJnSV1kFRXUsrhP9UcrAvOKXVovwcl7Za0S9J2Sd9L+lrSIknZDtUE4AgEAO9rIGn44T/dHa4FKFNNUv3DfyTplCP+24+SXpM0TdK6sFYF4DfcAvCuRpKel7RB0qOi84d3tJT0d0lrJD0rqaGz5QD+RADwnkRJkyT9LOkiSdGOVgNUXbSkSxT8LD8iKcHZcgB/IQB4S0dJ30m6QVKcw7UAVqkm6UYFP9sdHK4F8A0CgHdcK+kLSc2cLgSwSXNJX0q6yulCAD8gAHjDbZKmSIp1uhDAZnGSnpD0oNOFAJGOAOB+D4ovQ/jPbZLucboIIJIRANztCgW/CAE/+qukS50uAohUBAD36ippstNFAA57TFInp4sAIhEBwJ2SJc0Ws/cB1RWcNCjR6UKASEMAcKc7JaU5XQTgEo0kjXe6CCDSEADc5wRJ1zhdBOAyN4tXYAFLEQDc5xEx9A/8UZykh5wuAogkBAB36SDpLKeLAFxqiIKzYQKwAAHAXe6SFHC6CMClApLucLoIIFKwHLB7dJSFV/8tWrVR7zPOVMustkqtXUcxMc78U48YfLoj+0XQrLkfObLfoqIi7dq5QytXLNWCD+Zr1Y/LrWp6iKT2kn6wqkHArwgA7vF3WXD1n5iUpCuuuVldTu5pQUlA1cTGxqpe/eNUr/5xOvX0flr0xad6+vFHtC8vz7TpgIK/K2ebVwn4G7cA3MGSq/+kpGTd9cCjdP5wnS7deumu+ycpMSnJiuYGKzgKAMAAAcAdLLn6v/rG25TRsLF5NYANMhpl6pobb7eiqbJRAAAGCADOs+Tqv0PHrurQsasF5QD26dCxq07qfLIVTTEKABgiADjPkqv/4SPHWFAKYL8Roy5SIGD8kQ8oOGMmgCoiADjLkvf+O3bupiYnNLegHMB+mcc3VcfO3axoinkBAAMEAGdZ8t7/ueddaEEpQPgMGznGqlEA5gUAqogA4Byu/uFbmcc31UmdLHkWgFEAoIoIAM6ZIK7+4WPDR41lFABwEAHAGR0kDTRthKt/eBmjAICzCADOmCCu/gFGAQAHEQDCj6t/4DBGAQDnEADCb4K4+gd+Y+EowF8tKAfwDQJAeHH1D/yBxaMAnaxoCPADAkB4TRBX/8B/sWgUQOJZACBklvzGISQdJH0rzjlgt86SvnG6CMDtGAEInwmi8wfCgVEAIAR0SOHRXtJ34nwD4cIoAFABRgDCY4Lo/IFwYhQAqACdkv24+gecwSgAUA5GAOw3QXT+gBMYBQDKQcdkvxJxngEnlIqLHOCY6JjsV+p0AYCP8R0HHAPpGAAAHyIAAADgQwQAAAB8iAAAAIAPEQAAAPAhAgAAAD5EAAAAwIcIAAAA+FCM0wWgfE88P8vpEgDH/OXiEU6XAEQsRgAAAPAhAgAAAD5EAAAAwIcIAAAA+BABAAAAHyIAAADgQwQAAAB8iAAAAIAPEQAAAPAhAgAAAD5EAAAAwIcIAAAA+BABAAAAHyIAAADgQwQAAAB8KOB0AT5Q6nQBgI/xHQccAyMAAAD4EAEAAAAfIgAAAOBDBAAAAHyIAAAAgA8RAAAA8CECAAAAPkQAAADAhwgAAAD4EAEAAAAfIgAAAOBDBAAAAHyIAAAAgA8RAAAA8CECAAAAAAAAAAAAAAAAAAAAAAAAAAAAAAAAAAAADvp/L+5fkyoZ9oYAAAAASUVORK5CYII=;" parent="1" vertex="1">
          <mxGeometry x="711.94" y="383.87" width="46.13" height="46.13" as="geometry" />
        </mxCell>
        <mxCell id="OSBObG9JWodtX16g0ous-50" value="&lt;font style=&quot;color: rgb(0, 0, 0); font-size: 10px;&quot;&gt;Machine Learning&lt;/font&gt;&lt;div&gt;&lt;font style=&quot;color: rgb(0, 0, 0);&quot;&gt;&lt;br&gt;&lt;/font&gt;&lt;/div&gt;" style="text;html=1;align=center;verticalAlign=middle;whiteSpace=wrap;rounded=0;" parent="1" vertex="1">
          <mxGeometry x="685" y="440" width="100" height="30" as="geometry" />
        </mxCell>
        <mxCell id="OSBObG9JWodtX16g0ous-51" value="" style="shape=image;aspect=fixed;image=data:image/png,iVBORw0KGgoAAAANSUhEUgAAAgAAAAIACAYAAAD0eNT6AAAACXBIWXMAAA7DAAAOwwHHb6hkAAAAGXRFWHRTb2Z0d2FyZQB3d3cuaW5rc2NhcGUub3Jnm+48GgAAIABJREFUeJzs3XecXNV9///XuVO2d+1KWjVUUaWIXkwRxjQbY2BlbAMGF3AcQxLHzjdxnG/IN79849hOvoa4O6ZIwjYIg+m9YwMCRJVAbVW3afvu9Ln3nt8fqzUrsZJmd2fm3Jn5PB8PHraknbnvlXbu/dxzz/kchRAiNTfdZLFhVgOu1YDyTUO5k1GqEVdNxtLVaEpBVYMuB8qG/tPVoMoAPzBwiHcP7/svBKoX3H2/ViE0HSj2otiDdjtAtRDq6+DRG+OZ/6aFEPlKmQ4ghKdc/OsKSoLz0cxDq/loPR+lFoA+AmgAfIYTjtQFtAFbUWoLrt6CZW1GJzaz9tp20+GEEN4mBYAoTGc962fy7oU4ajmWPhatjgEWAlNMR0uTAWALig/QrAf9BkHrTe688lCjEEKIAiIFgCgAWvHZ1UvQ1im4LEfpY4GjgBLTybJMA1vQvAHqDSy1Hh14jbUrQ6aDCSGyTwoAkX+a7vbhRhZi+U5DqY+j9dnAJNOxPMoB3kKrP4L7ErbzJH+4ts90KCFE5kkBIPJD05rFKH0hmrOA04Eqw4lylQ3qNXCfR1vPUp58gduvjZkOJYRIPykARG665rZiItbpuNbHUfrToBaajpSnoqCfBvUgDg9y71VtpgMJIdJDCgCRO5purYfAZ4CLgHMYWmonsscBXgYeAB5g7VWbDOcRQkyAFADC276wppK4vgTFFcC5DK2nF96wEcWd2Nad3PuFnabDCCHGRgoA4T0X3FJERfUn0FYT6EuRO/1c8AawGr/vTn77+S7TYYQQhycFgPCOz65ejuY6NFcgk/hyVRzUwyi9murIw/zy+qTpQEKI0UkBIMy65rZiQr5PoazrQH/cdByRVu1o7sDv/wm/+9xu02GEEPuTAkCY8dlVi3DUF1H6q6BqTccRGeWAfhSlb+buq58GpU0HEkJIASCySisuv/MilP474GOm0wgj3gN+CkWrpQOhEGZJASAyr+nuIDp+BUr9HeglpuMITxhA8zNU0fdZu7LHdBghCpEUACJzLv51BUXBL4H+W1AzTMcRnhRCq1tRzvdZ+8UW02GEKCRSAIj0u+S2aoKBv0XrG5DZ/CI1MRS3Ytk/4HfX7jAdRohCIAWASJ+mu8tR8RvRfAuoMR1H5KQkqDtx1E3SXEiIzJICQExc091BiF8D3ARMNRtG5IkEcDu2/ifuu3qv6TBC5CMpAMT4nfWsn0l7voziu8B003FEXuoD9R8QvJm1K6OmwwiRT6QAEOOz8s6z0e7NwDLTUURBaAH+D53Tb+W5s23TYYTIB1IAiLFpWjUb1H8CnzEdRRSkjWh1I/dc+bTpIELkOikARGo+9YtSSkr/Ds3/AopNxxGFTj+EL/B1aTEsxPhJASAO7/JVV6DUD5Dn/MJbBtDqn+ma9mN5LCDE2EkBIA7u0tVT8fETZLhfeNs7KPV17r7yj6aDCJFLpAAQo9CKpjVfA74HVJpOI0QKNIrb0UXfktbCQqRGCgCxv8vunIPl/gpYYTqKEOPQAVzH2qseMB1ECK+TAkAMOetZPw17/hbNPwMlpuMIMSGK/yGW+CYPfHnQdBQhvEoKAAFNq2aCWoNs0Svyy07QX2Lt1c+YDiKEF0kBUOhWrr4Mza+Q3v0iP2ngVxTrb7L66rDpMEJ4iRQAharp7nJ07GaU+pLpKEJknv4ArJWsvfJd00mE8ArLdABhwGdXL4f4G3LxF4VDLQS9jqbVf2U6iRBeISMAhWboBPh9IGg6Sq7y+Sxqa8qoqy2lurqU8tIiysqClJcVUVFeRFlZEeVlRQQDPgCKiv34fBYKRUlJAADbdkgkHQBisSSuo3HRhEIJwuE44XCcUCROOJwgFE4wMBCluzdMd3eYSDRh7HvPC5o7iEe+zoPXR0xHEcIkKQAKxTW3FRMO/Az0Naaj5AKloK6unGlTq5g2tZrJ9RXU1ZUPXfSrSrEscx+daDRJd2+Yru4QXd0h2toH2NPaS1vbAPGENMRLjf4Aiybuuvo900mEMEUKgEJwxW9n4Ni/B04wHcWLLEvROKWKObPrmTGtmmmN1UybWkVxccB0tDHRWtPZHWJPSx8tbf3s3NVN8/YuwhEZMTiIKOgbWHv1r00HEcIEKQDy3co7Po62fgfUmY7iFUVBPzOm1zB3dj3z5tQzd84kykrz94lIV1eIrds72drcxbbtnbS196O16VQeotUtqOA3WbvSMR1FiGySAiCfNa2+DvgxkFu3shnQOLWKZYunsWjhZBbMbcDnK9z5r/2DMba0DbCztZ91z39AX0/IdCQveIKk/Vn+cG2f6SBCZIsUAPnogluKqKj5NZovmI5iSnFxgGWLG1myaCpLFk2lskJ2MD7QoAs745p43KZ3dzfvvrKFD97bYzqWSRtxrU/x+y80mw4iRDZIAZBvLv51BUXBe4BPmI6SbYGAj0ULpnDcsTM49ugZFAX9piN5ngZ6bdiV1MRd8GtNrLOft/+0mbdfax76gsLSjeZy7rnqOdNBhMg0KQDyyRW/bcSxHwaOMR0lWwJ+H0cvm8Zxx85k2eJGAvuW3omxcYH2hKbFBnffRd/vuvTv6uKVpzaws7nDaL4sS4C+nrVX3246iBCZJAVAvrjsjqOwrEeAaaajZMPkhkpOO3k2p508l/KyItNx8kbShZ1JTfcBqwmLkja7Nuzh2YffIhKOmQmXbZp/5Z6r/rfpGEJkihQA+aBp1QpQ9wJVpqNkUsDv46hl0/jYqXNZOH8KSn56M6bHgR1xTfKARwA+INHVzyuPvcOmjS1GsmXZz1iy7RvcdJNrOogQ6San0FzXtObzoG8jjzv7VVeVsuLM+Xzs1HmUluTtt+k5NrA7Dnvt0ScC+BJJNr+6lZeeeAfHyefJAvo31ESv4ZfXJ00nESKdpADIZUMX/zuAvJztNr2xmrM+Np+TT5xNwC/P9k3ps2F7QpM4yDXerzV739/DY79/jVj+til+GIqaWLsyajqIEOkiBUCuWrnmq2j9c/JwQ6eFCyZz/scXs+jIKaajiH0cDXuS0H7gM4ER/Gj6dnby2N2vMNCbl232X4SiT7F2Zb/pIEKkgxQAuejyNTeg9M3k2b/f3NmTuPjCo1i4YLLpKOIgem1oTmgO8lQAAB+agZ2dPHrXKwz05V0h8CYkz2PtlzpNBxFiovLqAlIQLl/ztyj9Q9Mx0mn2EXVceO5SjlraaDqKSEFCw9aYZvAw0+J8aHq3tvPwXa8QDcezEy473sF2V3DfF7tNBxFiIqQAyCUrV38Hzb+ZjpEuUydXcenFx8iFPwe5wO4EdCT1YXsF+dG0vbuLR9e+im3nzWT610na50rrYJHLpADIFStX3YhWN5uOkQ6lJUHOP3cR55y1EH8B9+TPB70ObItpUtlFJ6Bd3ntuA398ckPGc2XJKwTVedx55YDpIEKMhxQAueDy1VejuJ0c//eyfIrTTprLpy9aRkW59ObPF3ENW+KacIp76flicZ6+6xWaN7VlNlh2/AmKzmPtStlRSeScnL6gFISVqy9Bs5YcX+q3YH4Dn7vseBqn5nWvooLlAtvjmi77sF8KDC1dCbd0c99tzxOL5PzSwZco1uez+uqw6SBCjIUUAF628o6Po62HgJztdVtSEuDiC5dx9scWoKR1X17TQEsSWhOHnxcwLKA17zz1Li8/uzGT0bLhMWoiF0uzIJFL5IzsVU13ngju00C56SjjddSSaXx+5fHUVJeajiKyqDOp2Z4EPYbmgGowwh/+5zm6O3P4cbriTu6+8ipQ+dwWUeQRaa/mRZfdvgTF06Bycry8qqqEa79wMhdfdBQlxQHTcUSWlfkUFZai1xnDbsJFAZacMo+akiDbN7dnMl4mHcXSd2DDfc+ZDiJEKmQEwGs+95tJ2M4rwFzTUcbj2KOmc+UVJ8oOfYKoC5timvgY74fVYITf/+IZ+npydF6dVn/JPVf+1HQMIQ5HCgAvuea2YsKBZ0CfYjrKWAUCPi69+GhWnHGk6SjCQxJ6qAiIjHH5v1+7rH/sLV5/cXNmgmWWg3Yv454v3m86iBCHIgWAZ2jF5WtWobjSdJKxmjWzli9ffQqT6ytNRxEe5Gj4IK4JpbhMcJgC4u093P2zp0kkx/hi8yJY6hzuuvIV00GEOBgpALyiac3/Bv0vpmOMhVLwiRWL+fRFy/BJQx9xCI6GD2Ka0DgaAfptm0d+/Rx7dnalP1hmteHzH8/vPtdqOogQo5FJgF7QtOZy0D8hhwqyoiI/X77qVFacuQDLypnYwhBLQZ1fEXIZ85wA17JYcPxsitHs3p5Te/BUoN3TmHX2GrY+mnNDGCL/SQFgWtOdJ4K+H8iZ6fKT6yv566+fzYL5DaajiBxiKaj1KQacobkBY6FRTJozmSPnNbDhzR1jWF5g3HQCxZPZeN+DpoMIcSC5dTOp6e5aiK8HZpmOkqqjlkzjS1edQklJztQrwmMcDZvimsFx3hP7ojHu+u8nGejLocZ7mq9xz1W/MB1DiJGkADDlppssNsx9GDjfdJRUKAWfPH8ZF523FGnoJybK3VcEDIyzCAg4Lo/e9iy7mnPmkUASzTncc9WLpoMIMUweAZgy6Uv/iFLXmY6RCr/P4oufP4kVZx4pF3+RFmrf44A+B5LjGM53LcX85bNR0QRtu3vSHzD9fCguYMklv2PjHwZNhxECZATAjJV3no12nyQHCrDSkiB/8eWPyfN+kREJDRujY28WNEwBO1/dzFP3r09rrgx6ic7pZ/Pc2SlumyRE5nj+ApR3Pvebybju44Dn2/xOqivnb75xNkfMrDMdReQpn4IqH3TZ45/XVz29jvmzJ7Fh/Y50RsuUmZQPaGkXLLxARgCyaei5/2PAuaajHM70xmr+6utnU1lRbDqKKAADzlDHwHG0CfizRFsvd/7kcfRE3iQ73H3zAZ4zHUQUNunekk3vzf0ncuDiP2tGDd/8xgq5+IusqfTBnOKJ3Y8Ep9bwxW9dlAtNqSwUt3PJbdWmg4jC5vlPSt647I5jUfyj6RiHM39uPd/8xjmUyWY+IsvqfDAzOLH3sKoruObbFxEI+NMTKnNmEfD/j+kQorDJHIBsuOCWIopKHwWmmo5yKEfOb+Ab151FsWzhKwyp8CmSWhGeyDB+UZDlJ85hw7ptOI6nnwcsZullu9lw75umg4jCJCMA2VBR/W/AUtMxDuWoJdO48WtnUVTk+TsnkedmFUHZBM9MTlkxX/y7T1Lk9WJW65u57M75pmOIwiQFQKatXHMaWv216RiHsnDBZK770mn4/TIgJMyzgAXFCv8EpyjbJUVc/S3PPw4ox9J3cNNNci4WWSdn/Ey6alUZNo8Bk0xHOZg5R0zihuvPIhj09ElSFBifglKl6J7gFjo64OfYE2fzzstbcF3PbiAwg87aDjbe97rpIKKwSNWZSTH1X8A80zEOZsa0am742pky7C88qdoPjYGJr1R2y0q46psXYlmePt19jyt+O8N0CFFYPP2JyGmXrz4L+KrpGAczrbGKv/nLFZSWTHDatRAZND04tERwolR1OV+48RMTf6PMqcSxf246hCgsUgBkwlnP+lHcgkcbLVVXlnDD9WfJUj/heQqYV6QIpuGTFGio5vIvnTnxN8qcC1m55krTIUThkAIgE+pbvgUsMx1jNMXFAW74i7OoqS41HUWIlAQUzClSaammq+ZN5bzPHJ+Gd8oQrX/E534z2XQMURhkEmC6Na2aCdwFeG5s3fIpvv6VM5g727NzEoUYVbEFSSbYH2Cfqmm1BG2blp1dE3+z9CtF6wY23PcH00FE/pMRgPS7BSgzHWI0V1x6HIsXTjEdQ4hxmRmAImvi4wAaOOq8o5mzwKN9uTRX0bTqdNMxRP6TAiCdmlafD+rTpmOM5rxzFnPm6dJvROQuS8HcYHom1jgozr36DKprPVmrK1A/kt4AItPkByxdmu4uAX5iOsZoFi2YwiWfPMp0DCEmrMIHDWlYGgiQtBQrbzgPn9+Tp8Hj2DDnatMhRH7z5Cz1nLRy9T+h+T+mYxyorraM73zrPMpzcMZ/sQUNfqgJKMosKLKGJoRlkgM4GrQeakbjU4qAgmJL4QBJrbE1hGwYdGHA0YTsof9NerbPTH5xgXcjENPp+QuPtnTx2588lZb3SrN2gupI7rxywHQQkZ9kEmA6fGZVA5b6HeCpq2zA7+PGvzibhknlpqOMSbkPFpcqFpUq6gOKch8EraELcqZZDB3Hr4aGnBVDF5yk1qCgWEG5T1HtVzQEFDOKFHNLFItKLaYXKar8Cp+CmB4qJET6KYb2Cui00/N+gcpSakoCbN/cnp43TJ9yHPxsvO9J00FEfpICIB2WXvZDFKeZjnGgq644kWWLG03HSFlAwcISxeLSoYu+14anXA0Jve/OU4NfKdS+kAoosRR1AcWsoqGCYGpQ4QdCrhQD6VaUxlUBAHUzJtG/p5ve7lB63jB9TmDR5Xfx/r09poOI/CMFwEQ1rT4Sxf/gsfkUZ5w2j4vO8/QGhPsp8cHxZYpJAe9d+EeT1BBzNWrfY4IDMyug1KdoLFIcWWoxKaDQwKAzNAtdTFzFvlGAdNQAGpi/bCYbXt2CnZzgBgTp5UO5DWy87x7TQUT+8dRFK0d9H/BUM/2pk6touuRY0zFSVuNXnFKuKMuxclQDYUczYLvYh7iqW0BjUHFapcUna31p2elODD2maUzjbr9Jn8XK689J3xumjVpJ053HmE4h8o8UABOx8s4zgItNxxjJ57O45sqTc2Z3v2ILji4jpy+ItoYB2yWewqS0Mh8cV2HxqVofi0ulEJioKX5FcRp6Awzz11dx5gWeWzGjwPXcBGOR+6QAmAitv2c6woE+fdEyjphZazpGSnwKlpeTlj7vpmkgZGvCKT7sHyp8LD5Z42N2cR78BRii1FCDoHRa8LFFNDTWpPdNJ+5TfHbNyaZDiPwiBcB4Xb7mE6BPMR1jpPlz6zn37EWmY6RsdpGiPI13b14QczWhQz0POECJD06usFhRbVGVY49AvKLGT1r/7hwUl3zlLJTXzo6u/v9MRxD5xWs/4rlD6e+ajjBSSUmAL199KlaOXFCDCmZ5atFk+sR16iMBwyYHFOfX+lhamp5NbwrNrCB/XpGRDnZxERd91lP1PcA5NK1aYTqEyB9SAIzH0IfwY6ZjjHTpp47JqR3+ZherrKzrNyXmamLu2IoAC1hWZnF2tUWJfDLHpMRSNKR5QsWUZbOYPstrG2epfzWdQOQPOc2Mi/rfphOMNH9uPR87dZ7pGClTCho9t1di+oUdfcjVAQczOaC4oMZHYz5MjsiiaYH0ntBc4IKrPVXnA5xK06ozTYcQ+UEKgLFaueY0wDMfQL/fxxc+e0Jahz8zrdqnMt7S1ysG7fGtUi+y4Mwqi4UlBfIXlQYBBfVpHgVwSoo499PHpfU9J05923QCkR+kABgrrf/FdISRPnn+EqZOrjIdY0yq/YXTCscFIhNoA3hsucVx5ZbMC0hRY5p2CxzpiJPmUTepMs3vOiEXctntS0yHELlPCoCxuOyOYwHPdAqZ1ljFJ1bkzqz/YWU5MlExXWKuZiK95RaUKE6qsOTDmoKggvo0Dy85KC6+9oy0vucEKSz/t0yHELlPzilj4bP+2nSEkZouWY7Pl3v/hMHcizwhGoiOZzLACLOLFR+rsvJ64mS6pHsuAIBVU87RJ89J87tOhP4CV/x2hukUIrcV2Kl4Aj6zqgHNStMxhi0/egaLjpxiOsa4+AqwG35Ca8a4KOAjGoOK0yulCDicoIK6NI8CaOCkC4/z0jLbAI59g+kQIrflRr9YL/Dzl0Cx6RgAfp/FZy4+2nSMcfPMKTSLNEO7CJZOcLZmY1BxRqXFCwOu7DB4CI0BPbRdcBr/jmy/j3MvOZ7H730tfW86AcUB3zdve6G9qaw4sG+mqa5C7bup05QBw2ttEijC+37fBdX/4bvoftS+/ZS0Cit0YujL6EfpPqWtPtB9WtOPRZ/Suk9p3Wf7/H24uk8l3L5Pn14/mJVvWKSdFACpuOCWIlDXm44x7NwVi2iYVGE6hhijhKMpTcMd5BQpAg6rWCnqfJpuO73vO+v4OZQ/8S6hUCy9bzwOsaTje+GD1iMuOGbmh785+s9DEM2Ihbe6br8/1R/+n/1ertWHv6OGvk6j0EphuftqjqDigXVdDtAHdIHqAL1La9WGokUp9riatqDLrt3+2o7rj1fJcX/DIu2kAEhFWc1VwGTTMQAqK4o5/+O5N/FPgMPQxkHpWKk2Zd/jgJekCDioqX5F9wTnXhzIRnHRVadx18+eTuv7jtejb+1mvwLADB9QN/SfPhJAqX1/73roObNtwVS3Wz+4rqtdK1qVpkXDHg17LKW2uI7aXBnt33z22bPNV1YFRAqAVCi+bjrCsE+ev5Ti4jTvfiKyxtYaf5qaNsjjgEMr8w39F57IEoxRVMysp2FKNXvb+9L7xuOwo3OATW19HDm12nSUVCgNU9FM1XAc7BtY0BplaQbLKnhwXVcbsEGjmtG6WSm9USl3w+vHN+y4SanxNdUQB1WIj2PH5rOrl+PyhukYALU1Zfzrdy/C78/tXWNOLIfqAt0HN2gpKtI8i681oWUk4CC6bNgWT/9fTKKjlzU3P5729x2Pjy+bzo3nLzMdI9OioDcrpTa7Wr1rKecNS7P+ohMb2k0Hy2UyAnA4mi+bjjDsk+cvyfmLf6FzXE26p/HLSMDB1flhVwKSaf57KZpcw7SZk2jZ1ZXeNx6HF95v5UtnL6S8KK9HBktAHa01Ryt0k9YWDvDguq42DW+g2KBcNmql3rj4xLoNpsPmisK8DUvVNbcVE/a3AsY3B2+YVMG/fOcirDxYA1bIIwAAtYHMdPZrT2gpAkaxMwHt6a4AAKdrgDv+65G0v+94XH/OYi5aPst0DK9oR6v1SrlvoNV6XyD5xwuXT+00HcqLZATgUMKBS0Ebv/gDfPKCpXlx8RegdXq3rh0mEwNH1+DXtGdg7rmvvpIZs+vZvd38teWxd3ZLAfChKSh9oUZdiALbDvDAuu5m4Cml9R9xePpTp05qMR3SC6QR0CG5XzGdAGByQyUnyIc7b2RyJtPw4wCpFT9UYinKM/HkTMM5nzkhA288djs7B2neK8vxD07PAX2dVtyh/ex5YF33tgfWdf/iwVe7rn7wT13TTKczRUYADqZp1WxQZ5mOAXDuioVe6kAmPE5GAj6q3g+hNK8GAPBPqqRhajV728yvCHjh/VbmNBxpOkaO0HOA67TiOvzoB9Z1bUDxrEY/VRx0nj7v6Clh0wmzQUYADkapz+GBORIVFcWcfPwRpmOINMrGNVlGAvZX61cZ+TC7wIpLjs/AO4/dC++3oqXgGw8FLEVzg9Lq/njc3/fAus6XHni163899HJXXjddkQLgYDSfNR0B4KzT5xMIyMx/MXZTpAj4Mz9QnaGPUfmMOioqSzLz5mPQNRjjg9Ze0zHygR/UaSi+5/rY+MBrXRtXv7D3V798qv0K08HSTQqA0TStPhI4ynSMgN/HGafNMx1D5DApAj6U7g2ChrkoVnz6uIy891i98H6b6Qj5R7Ooqtj6iqv1b//9/pbkjx5pfeNnT7Rer7XO+etnzn8DGaHxRKV3yklzqKzwxP5DIodJETCk2kp7C4Y/m7JwmidW6by0qW2o14RIu8aqAJPKff6BmLO8M+T8/D8eaI3f8mjbul892fJp09nGSwqA0SjVZDoCwIoz5puOIPKEFAFDF//KDD0GSCrFaSuWZObNx6A/kuCdXd2mY+StyRV+ZtQMNVxKOK6/L2qf0Dbo/uEHD7YM/uSxtrt++lTHHMMRx0QKgANddvsS0MY/yfPm1DN1SpXpGCKPSBEAtRn85o882RuP6/60WbrjZlJdmZ/Gqv27LkaTbnl3xF7ZPZjY9v8ead310yfbvp0Ljwg8HzDrLP9lpiMAfOyUuaYjiDxU6EVAtY+Mre1xS4qZNmtSZt58DF7f1imrATKsocLPlIqPtl7WGgZjzoyuQfv7//HAntiPH297+KcPeXdUQAqAj3AvMp2gpCTA8mNmmI4h8lQhFwF+BRUZPOudfr7xucN0h2Js3ztgOkbem1Llp7b04K10Eg6BnrB9YXcise1HD7ds/vkzHZdmMV5KpAAYqenWelDGF/WedPxsgkHp0SQyp5CLgJoMrqqtmjkJyzJ/Wn2tea/pCAVhek2A0uCh/701MBB35+/tS/z+Bw/u6f3x463fzU66wzP/k+olKnghHvg7Of1kz44YiTxSqEVAZQa/YVtZnHCG+W58rzWb35+gEFgKZtcFSXWT1mhSV/eEnX/9/gN7Ij99vP0Xd9+tg5lNeGjGL3aeot0LTEeY3ljNjOme2H9IFIBCLAJKLchQSwAAlpxofv7OlrZ++iIJ0zEKQsCnmFk9tut4zNYlXeHkdTuKWwZ+8njbD0xNGJQCYFjT3T7gXNMxjjt2pukIosAUWhGgyNxyQACrppzSsqLMHSAFWmvWe2CXwkJRWeKjumTsP1QxWxd1h+1v/eChlvB/P97+XxmIdkhSAAzT8VNB1ZqOcbwUAMKAQisCqjJYALgaTjp7ceYOkKLXt0kBkE3TawL4x7lpWyypi3vDyb/5wUOtfT9/uu3aNEc7KCkAhlmcYzrCzOk1NNRXmI4hClQhFQEVGd5eY/Yy86t4NuzpkeWAWeS3FFMqJzZ5O5pwqvb227f+6JHW7b96pjXj/aWlABim9RmmIxy/XO7+hVmFUgQUKZXReQBWRSllZWbbePeG47T2FsSutp5RW+YnkIYPz0DMOaKj333t5kdanvrJs3vL0xBtVFIAADTdHQR1kukYxx0tBYAwrxCKAEVm+wG4wElnm99J9r09sjtgNllqqElQOrhaq/6Ye05oMNH1s2fav5SWNz2AFAAAxE4ESk0mmNZYxaRJGSv0hBiTQigCyjP8GGDWkmmZPUAKNuyWfQHSqz7AAAAgAElEQVSybVKZH9845wKMJm7ros6+5K9vfrT19Tue2lOXtjdGCoAhShkf/l+yqNF0BCH2k+9FQFkaT9Kj8VeVYfnMnmLf291j9PiFSCmoLk5/ddkfdY5rj+q2nz3RcX263lMKAABtvgBYKgWA8KB8LgLKMnz2c1AsXT4rswc5jK7BGHsHIkYzFKKasswML8WTBDpDiZ/f/Ejrc7/4hf7oZgRjJAVA090+0KeajFBU5Gfu7LSO7AiRNvlaBPgUFKvMflMLl8/O6Pun4r3dMg8g28qDVsrdAcejP+acGZ7W0nbHi50LJvI+UgC4kYWA0bV3ixZMwZ/JnxYhJihfi4AyK7Pr5GqmGW8twua2PtMRCo+C0kBmL6+hhK5r64lv/OnjbV8c73tIAWBZy01HWLJoqukIQhxWPhYBpRmuu5N+PzWTzPb22NYuOwOaUHaYTYLSIeFoX3fYvv3Hj7bcMp7XSwGgMF4ALDxysukIQqRkSlBxeh4VAcUZnggIcMyJZjf32tE1iONKR6BsO9wugemigZ6Ye8OPH297YKyvlQJAq4x3WzqUiopiGgzfIYgsy/H2bI37ioAsXDszrkRl/t9i2twpGT/GocSTjjQEMiAdDYFSpqEnbH/q5kda19+tdcrjWoVdANx0kwUcYzLCvNmTTB5eGOCaDpAGjUHFyeUWuV4DlCiV8e+h1APtvbd1yGOAbEtnL4BU9cecY9sebXtTa53SwQu7AHh3wQIMTwCcO7ve5OGFAU5uDwD82axixfLyHD+FqMw/BnD8fkoNtwVulgIg60wUAAD9MWfZLY+1vpHK1+b4p3eCfM5RpiPMnSMjAIXGzvFHACMtKFEsLs3tcYCiDD8G0MASw/0AtnX0Gz2+yK7+qHvsLY+2vnC4ryvsAkCrhSYP7/f7mDm9xmQEYYCth7aMzRdHl1nMLMrdIqAoC3dqsxaYXemzfe+g0eMXItfwh7wv6nzsx4+13XqorynsAgD3SJNHnzG9Wtb/FyANJPJoFADgxAqLXH0aEMzCRMDqKVUZP8ahhOJJBqIJoxkKje2ByT69Ufvanz/Zdu3B/jxHP7LpYnYEYMY0ufsvVFFXk08lQEDBaVW5uTIgGyMAvlKzcwAAWQmQZQkPTPbRGvoizq9+9XzrqFtTFnABoBUwoTaKEzVtqtm7gkLiapvWyEbe73+a93ofY9vAy4RtczuluRpiHjhBpFOtX3F0phvsZ0A2nl7YSlFZU5b5Ax1Ca6/sCZBN0aRjOgIw1CxoYFA/M9qfpWfj4lx0xe+m42B0/91pjTICkGmuttnQ9wTv9T5Gwv3oCbCxdAknTGqiOjg969kiriZgKfw5eNd8MAtLFHviis5k7hQ3/iw8AtDAvEWNrP/Tlowf62DapADIqmjCO5+BcMKd8vMnOn78tU9M/sbI38+9cj1d3ITR5/8A0xplBCCTEm6EJ1r/i/Xd94568QdojWzgoT3/l52h9VlON2TQcfNqQiDACRUqp04sgSx1M5hmeMmvPALIHg2E4h6YBDBCTzTx9V8+NbDfqHcufU7Ty7Xmmjx8bU0ZpSVBkxHymkbzfPvP6YhuPuzXOm6CFzp+yd7Y1iwk25+rh4qAfJoTWOVTzCvJnWENn8rOibCmwWzBLwVA9oTjLrbHKnvbQUXs0G9G/l7hFgAwzeTBG6dWmjx83mseeJnWyMaUv97VNi/vXYPW2a/abQ39tos3nhimx1FlFiU5dHYJZKFeKa4syfxBDkHmAGRPX9Sbn+bBqHPcr5/rOGX41zn0EU0zi+w/9B2hvs58e9B8trH/qTG/pi+xh7boBxlIc3gOQ0VALE9WBwQULMmhCYHZaNuuisxOuYombAZjSaMZCoGroSfizQJAaxiIOL8Y/nXufELTTasZJg9fV2t2RnA+izr99MR3j+u1LZF30pwmdVpD2NH0J10SHhs+HI85RSpnRgGyETOJRVFxIAtHOrjeUMzo8QtBd9g23gToUEJxZ9ltj7YdAYVcAOAaHQGoq5MCIFPCyW4Y5310KGluaeAwBxh0NL22S9jRxF2NrXNvE0GfgiNLc+MUk62VGNOOMDsRsDcszYAySWvoHPTm3f8wrSFq6X+DQl4GiDJaAEyqM7oCMa8l3fj4X6u9c4fkaoj9+aqfnau/AtS+SXE+pfABPguCanxXyPnFio0RSHhrQvRHZGvn1smN1TR/0Jqdg42iNzz+z4Y4vM6QTcLx+A87EEm6F0KhFgBNd1dB3OgVWB4BCC/SDN0huIzYtMgFhcZvKYoVBKzUt9D1q6EiYEPE28MXllJko8iqMbw1sBQAmWO7mo5B23SMlESSuvqXLw4syI3xubSLGx2HKy4OUFYqSwBF7tBA0tVDjyaSLhFHp/xIYk6x908zWegFBEBVrdmRv96QFACZ0tqXxPHws//9aHAikWu9/8nMCKvW5NGrDC8HEmIiNEN7GfSmuGqh3DfUJtjLxvmEY8yKy83uCdAb9s4jrnzSF3U8O/P/YJKue3phFgBaV5s8fHmZ3P2L3KcZWrUwYLvYh6kCZhd7vADI0nF8xWY/+z0yApB2SUezpzf3llcmHX1kYRYAlq4zefjysiKThxcirWwNA7ZL/BDPBGYW5VZ74EyxDG//HUnkxjPqXOFq2N6d8FzXv1Q4rq4szM+kq4zuwlMmBYDIMxoI2ZrwQXY4LLagNhvt9rzOcAEQS+TWMLXX7elNEPH6EpeDcDX+wiwAcI3OASgvlwJA5KeYqwkd5HnAZLM9cA4pW6dwbbgGiiZlBCBd2gfsnHvuP1LS1b7CLACUMtqIX+YAiHwW16OPBDR4eAQgWwO4Lgplmft7kBGA9OgK2bQP5N5z/wMVaAGgjU7FLTE8EUiITIu5mtgBz0XrAyprDXfGys1Sm0UNVFSWZuVYo4kmnZzrKOk13WGbPX25f/H3WZZbmAUAyugVOBAw+xxQiGyIOHq/1QE+5d3lgNm8JpYYnAOktSZhyyjAeHUM2uzOwRn/o7HQBToCoJXRh/D+Qp16IQqKBgbt/Z+uV3u09s1mARAMGp4ImJQCYDxa+5O09efHxR9Ag1WgVyLX6AiAr0CnXojC4zI0EjCs3KMjANls3x4Imu3AHpOJgGPiatjRnWBvjrT5TZXtuAW6FwCGRwB8Hr0NEiIDYq6myDe0sVClR3/0s3lqDxgeARCpSzgu27sSRJP5N3EiFNOFWgDoouz1/vooeQQgCokGoram3K+o8OgswMN1MkwnmQOUGwZjDjt6cqi//xgooKU3UagFgDJ6BfbLIwBRYBJa42pFmW/o5OO1U2o2CwB/oEBPuzlCAx0DNu2DSe/9oKZJwKeIJJxCLQCyOuInRMHTQExrStXQUsBsXnAPxyV7jYC8IFsbH+WiuK3Z2RMnkvDQD2gGhPd1LyzQAkDZJks7O5szjoTwiISjKbUUAY8VANnOkpR+/N6joTvi0NKfwM3z07OlYFtHFCjUAkBr2+AUAGw7z3/ChBiFA0Rd8NpCgGwXALbMwveUWNJlV28yZ3v6j5UCYvsmNRZmAaC0bXISoO3IOlxRmOKuxq+8NQsgnuUoCRkB8ARHazoGbPaGHAqlPaICmjs/3BK6QAsAZZs8/zjyCEAUKFd7bwQgnuVZ3sm42c+/ZXYOtCf0RBza+pMkD7J7ZT7rDX9YgBZmAeBq2+RMGHkEIAqVQpt8+jaquM7uiEQibrabXKnhRkQmheIurf2JvJ/kNxqfBRtbovv9XmH+JFiETY4AJKUVpyhQLiYfvo0u2yMAcYMFgFJQXICNiCIJl/aBJAOxwr35CkUdogfMcyjMAgCr3+QzyEg0YezYQpjmKG/dfWVzDoACBvujh/26TAn6fVgFtA4wmnTpGLDpixb2TVfAp3irPfaR3y/QAkD3mzx6OCwFgMgu5SYpDr1LILYL5SZwArXEKo7CDjZkPYt2C3cSoA+Na3CdWUmBdCGUO/4P+X3qI0P/f/6zLGfxBpc+k+OQoXD88F8kRBoobVPZcQ9V7WuxnNBH/jxaeRy9079KomR21jJ56ZSc1JDNeWDK8GzzkqL8PuUPxhw6Bm1ChidaeoVS0NobJxwffQQkv38aDkr3m3wSGQpJASAyz3JCNGy7ieLBdw/6NSUDb1D8wXt0HvF3RGpOz0ou79z7QyTb1wnD839K8nACoKuhL+qwd9AmlpQL/0iRmENr78HnnBTmehCLAZOHlxEAkXma+uZ/O+TFf5hy49Tv+B5FoQ1ZyOUt0SxPAHQNNwHKp0cAcVvT0p9kQ1uMXT0Jufh/hGbTKM/9RyrMAkD7ek0eXuYAiEwr736KkoH1KX+9cpPU7fpv0IV1Eo3o7I4EJhNmRwAqioNGjz9Ret/d/tauOO+3x+gctPNyt76J8il4a2fksF+Xf+NBKXHaTT4C6B80NwtYFIbKvX8Y82uC0e2UDL5FtHJ5BhJ5UyTLjWDi4UPfkWVabUWR0eOPVyTh0hNx6A07OAXStW+8fErx5o6PzvcZTWEWADXRNnpLXQyNgMRiScKRBGWluV2NC2/yJXsIRraN67Ul/esKpgDQDO1NkE393YPZPeABaspypwBI2Jq+qENP2Cbmpd2jPMyn4M0doZQn2hbmI4BfXp8Euk1G6OoOmzy8yGP+xF7GO9XOn+hIbxgPi7k66ysSutuNrkCmttzbBUDM1nQM2mzaG2dje4zW/qRc/FOhwHU1b+wIj+lnujBHAIa0AvWmDt7dE2LWjBpThxd5TDnjH2a23MM/N8wXIQPTHdpbjE4/oqas2OjxRxNNuvRHXfqijkzkGwdLwWDUZUvH2B8tF3IB0AYcbergXd2pPaMRQmTGoJPdhkQKaNtldOCRWg88AtAawnGX/phDf8whIXf44+a3FK09cVr7x9deunALAK1bTW4I1N1TOHdaQnjRYJYn5Pu0a3wr4BpDjwBitstgzGUw7jAYcwtl992MCvoU7+2JEpnAypLCLQAstdtkR5LOLrOTgYQoZEkN8WxfhQwvAfRZiqosTTxO2JpQwtl30XexC3Db3UxRSqFdl3XbwxMewCrcAgC11WRPstY2s5OBhChkITf7n/5Yv9mJvw1VJRnbCChua8IJl3DcIRzXxGTL84wI+BS7exK096Wnl0zhFgCOuwXL3COA3r4I4XCcMg88kxOi0AwauD71tPdl/6AjTKspS8v7JBxNNOESTWoiCYdwQkszniwIWIq3d4XTOmeicAuAIt9mDM84bWnrZ8G87O/GJkSh609m/4K1u3lv1o85UmPt2AuApKOJJIcu+JGEQzSpScpwflYFfIrW3jgth+jpP16FWwD85gu9NK3qAVVrKkJLa58UAEJkWdKFqIFr2Lb3W7N/0BEONQLgaognNTHbIZaESNIlmnSwzU5bKGiWUtiOyxu7IrgZmq9SuAXAkK3AiaYO3tJqdkhQZI+ykxTveodAz26UncApqyU26yjsSikAs63P1Vl//u/XmtCg2TbAjTVlJB1NPKmJO5q47RJLusTtoV97apvGAhfwKd5vjRCKZXaUurALAK02o8wVAHvapADId8qxqXz1HipfuRsr/tHeD9HZx9F3znUk6mcbSFeY+gzc1bqG9wAA6E/42dBmPoc4uKBPsSuNk/wOpzBbAQ9Tyuj+p7v39JGUMba8ZcVDNPzu76l+/tZRL/4AJdvfYModN1K66aUspytMGhgw8JHrMzwBMOj35fxOgPks4FMMRBzWNYeydvGHQi8A0G+ZPLptO+zabbY1qMgQrZn0h3+jeNc7h/1SlYwz6YF/p2iP0Xq0IIRcMNF4rvkDs8//6ypKTfY9EwcR9CtCMZs3mkM0d2Z/dKawCwCHt01H2NbcaTqCyIDy956ipPmNlL9e2UlqH7sFXFk/nUk9BhrxKWDj+p3ZP/AIjbXlRo8v9hf0QTjm8vq2EFs74lnflGpYYRcA917VBhhdm7N1uxQA+ajitfvG/Jpg53ZKdryZgTRiWI+B239/0iYWy96w7mikAPCGoE/RE0qyrjnMlo6osQv/sMIuAIYYHQXY1twlfbHzjC/cQ3DvtnG9trj5tTSnEcMGHUgY+KyFugayf9ADNNZWmo5QsJQaesbf0pNgXXOIXd1mi8GRpADQZguAUDjOXg+cIET6+Ps7GG9V5+9vT3MaMazb0Hzb3VvN/pv6lGJydXq6AIrUBXwK19G83xrhteYQnYPpb+QzUYW9DBBAqTdNL4DdtLmDyfVSoecLlYiP+7VWQnaJzJQeAx3sFPDuq81ZP+5I9VVl+C2518sGpYZa9nYMJNndZe7Zfqrkp8KX/JPpCO+932Y6ghB5rd/BSOdvf9Kmt2f0JaDZ0lhXYfT4hSDgVyQdzaaWKOuaQ+zMgYs/SAEAv7t2B7DHZIQPNnVgSz8AITKmy8TaP6B3T7eR447UWCMFQCYEfQpLwe6eOK9tC7FhT4SI4f1lxkoKgCGvmDx4PGGztbnLZAQh8paNmeV/AO+/YXb4H2DGJCkA0iXgU1hAR9/QhL71O8J0Dxr64UoDKQAAtPqj6Qgb5DGAEBnRbWsjw7F+NBve2m3gyB8qDvqZXC1LACci4FOApq0vwWvNIdbvDNPW770JfeMhBQCAD+MFwHuGdwoTIl91GjpX231hXMONnY5oqMKSFoBjohQU+Yd24tu+N85rzSHe2hmhI08u+iPJKgCAqvBb9JZGgFJTEVrb+unsGqRehuuESJuQC2FD1+AdG1rMHHiEIxqqTUfICUGfwnE1vWGb3T1xkgUyJUtGAAB+eX0SML4by+tv7jIdQYi8Yuru3wL+9Kz5vR3mNNSYjuBJAR/4LUU04bKtI8a65hBv7AjT3Fk4F3+QEYAPKZ5E8wmTEd54cxcXnLvEZAQh8kZSm5v97w6EiUXMdnwrCfqZXCMNgGD4OT6E4w6dA7Ynm/KYIAXAsKECwKjdLX20dfQzdXKV2SBC5IEOG2Nrsbe9ZXbzHxga/lcU3vN//76Z+nHbZTDq0N5vE0kU0G39GEgBMOyuK9+haU07MMVkjPVv7eai86QAEGIiXKAjaaai9wGvPveBkWOPNHty/j//91tDa/ETtstg1GVvKMFgNLfW4pskBcCfKQ1rngR9lckUr7+5i4vOW2oyghA5rzOpMTT6j90XMr77H8D8qXWmI6SNpYbu7LUeutgPRB06B5KE4nKxnwgpAPbjPgnKaAHQ2tbP7j29zJguk3eEGA8NtCcVpvb42Lhuq5HjjlRfVUpdRYnpGGMW8CmUAtfVJG2XwbimN5ykN+KY3rIlL0kBMJLf/wS242J4dcRLr2zjc5cfbzKCEDmrx4GYoT22A1rz2gubjRx7pIWNk0xHGNXwkL0GXK1J2ppIwqEv4tAbcXAMbNhUyKQAGOm3n++gafWfgNNNxnj19R1cdvExBIPyzyPEWGigxeDoe8/2DuPNfwCOnJbF4X+l8CmNTylQQzthO44mYWtiSYdIUhOKOYSiTk5skFNI5ArzUfdhuACIRpO88dZuTjlxtskYQuScbhuirqG7SAUvPvK2mWOPUFYcZPqkD7cXV4Da1w1QKf1hZ0A91PVuP8O/1hpXDzXHcTXYjovtaJKOJuFAPOkST7rEHE0ixzbAER+SAuBAPvteHP8Pwez6mRf/tFUKgHEKWMXjf60a/2uH6eD438MNTnzdtvZN4PiWsWaYE6aBFoPLu61wjPbWXnMB9qmvrOSdXRHTMUQOkE6ABxraHth4Gb9texetbf2mY+Sk8kAd463fygMTf3ZqV00e5dYqxddWT5748YsmM97v3y4yugp2QrpsTczU3T+weZ35nf8AptTm//I/kR5SAIxGca/pCADPeGAyUS4q9lVSVzRzXK+dVrpswsd3ympINMwb12tjs0+Y+PH9NSRKx3f8aOXEj2+C6bv/gNb88Zn3zAXYx29ZNFRLHxGRGikARuM4nigAXl63nYGBqOkYOWlx9bljfk1NcDpTSxel5fiDJ1465tck6ucQnb08LccfaBjH8UvmEK08Ni3Hz7b2pMbkkvDWDbtxbPPPwqfW1eC35LQuUiM/KaP5/TUbgHdMx7Bth+f/tM10jJw0u+IkppWm3lDJUn5Oabgqba1TQ0tWEJ2T+lJO7Q/Qc8FfjfvRwUeOX3c20coxHN8K0D3rRgxPfRmXpDZ79+9TmmfuX28uwAgz6/On+U++8uGy0N7GGfF1nBFfx0J7Gz5D6yN8Ro6aC5ZeWg5mNwcCaGnt46wzFuD35U+tNi0IxVZmLzQKxYyyo9kbayZsdx/ya/1WkDOmXEdj6eI0BlBE559MUcv7+Ps7DvmlOlBE16f/gVia7v73BSBafTJF4ffxJw5zfKuIztn/QKwyncc/uJYExNJ4vtuZGNr215TQzk7efHmLuQD7FAUCHDPniHTVkCLNinSCy2OP8bfh/+H82AuclHybk5JvsyL+MhfEn6dIJ9nqPwJHZe+yLAXAwSxbuQPt/jWGR0mSSYfamlJmzcyfyj4bBQCATwWYW3EyfquInvguHH3gbaJiWulSzpryNSaXLEj78bU/SGTJCnSgmGD7VpR9wAJ1pYjOOYHOS79LfMZR6T++FSRcuwJtlVAU2YrSBy6QV0QrT2Dv3H8kXj7xuQ+pSmcBEHFhe8LcxD8LeHzVi4RDMWMZhs2e3MCUGnn+70X1bg83Df6IUxNvEvzIeQiCOskSewsnJN9hfXApEZWdLo5SKx5K0+rH8cAoQEN9Bf/ynYuwsnDRzIYTy6Han93vxdU2HdEt9CdbcVybEn8VU0oWUOqvzcrxlWNTtPs9gl07UXYCp7yW2MyjsCvrs3N8bVM0+B7B2E6Um8AJ1BGrWIYdzM7xR1oXgr40NOrXwAcxzYDBjd6c7gHu+M9HzAUYYcXRS6guy91lnPmqRMf494EfMt1pS+nr9/im8A+V3yaahiXJhyN9AA5FqdVobbwA2Ns5yLrXd3Cy9AUYN0v5mVq6iKmkZ5LfWGmfn9gRxxA74hgzx1d+YpXHEKs0c/xM6LYxevFXwNP3vGYuwAgVJSVy8feoldFHUr74A0x32mmKPsKq0rFP5B2jaP48WM6EIvc+IGQ6BsADj763b5sCIYStYZfBoX+A5N4+9uzsNJphmEz+86ZiHee8+Itjft358Rcp1vEMJNpPnxQAh7L66jCK35mOAdDdE+LlddtNxxDCE3YkNEmD138LeGKtN+7+LaWY2SAFgBctS24i+JG5N4cX1AmWJTdlINEIin4pAA5HWz8xHWHYI49vwLYNjnkK4QF9ztDwv0mxtl7aWw69uiRbGutqKAkGTccQo5jidhl5bSqUq7ZKAXA4a7/wFvCK6RgAPb1hXnpZ+gKIwuVo2GFwtz8AS8Fjaz1xSgBgzpQG0xHEQVgTWN/vI7M3e67Sb0sBkArNz0xHGPbQ4xuIRg12PRHCoN1JiBvs9w8wsH0vXe3e2KejsrSESRUVpmOIg+iyasb92k4rwyuUFFIApCTcexfgidk+g4MxHnlyg+kYQmRdnwN7TT74B/xa89CdfzSaYaS5UyfLYm4Pe8e/EGccrWRcZfFu4MgMJPozG79+RgqAVDx6YxzNHaZjDHvmuU10dA6YjiFE1iQ1NMc1Zi//sO3VLUTCGZ+dnZKAz8cMmf3vaYNWGX8MHjfm170UPJ4BVZ6BRH/2wn3fWNQtfQBSpfRPQf01HuidYDsuv7//Lb7+lTNMRxkX0ydxYdZYb1g10Gx41j9AIGnzzEPe6PkPMLNhkmz8M0aTivs5b9obHFu3jfqiocc4nfEq1nfN5YnW4+iKpb+T4m9KP80x9vtUuqmtKB+wyvlNycVpzzGSUvo+kFbAqdt4Xx9LL10MpL7DTAZ17B1kzuxJNEzKved/U4KKUjlvFaxdcRjLEv6OpKbDA9NeXr1/HR0tfaZjAKCU4vj5swn6jd+P5IxPzXiFv1+2lqU1O6kJhgj6bII+m5pgiMXVuzlv2noSrp/N/dPTetyIKuF9/3xOSLxDEYeewTqgyvmPiq+x2zc1rRkOMOiLB6/Z+NQtcSkAxmLppVvRXI9Hnrrtbunl9FPm5lyL4Dq/okJ+8gpWc0ynPL857MK2uPlRI6dnkCc80vUPYHpdLbNl9n/Krpz7DJ+b8xw+6+Cz8n3K5ZjaZgKWw7u96e262m1V83LRciY5vUx320f9mlcDx/CfFV9hl68xrcc+kNL84p5vL/gDeGA4O6fcddXbNK15GvTHTUcBaG3r57EnN/LJ8z0xKJGysKvxSA0lsszWEE/xam5r2BLH0EapH/Jrzb23Pm84xf4WTM/oHWJeOWHSZj4zK/WJm5fO+iOb+mbwevf8tObYa9Xxg4qv0uB0s9zeQL0z1Eei01fHev8S9vqyMp8jbgX40fAvpAAYK80PUHiiAAB49IkNHHfMDKZOyZ1dwHptufgXqr4xLG3eGtfETV/9ga0vb6avxxMdwQGYUlslff9TpNBcOffpMb/uynlPp70AGLbXV8djPjPzt7TmlrU3LPxzS1l5EjtW91z5BOCZmUC247Lqt6+itelB0tT12+YndAkz9qb48H93Avo90PTSF43xzENvmo6xnyOnZXaIOJ/MqWhnetnYO+rNKOtkdvnoQ/U5rMeP872RvyEFwHho/b3Df1H2NO/o5vmXtpqOkTINtBru5iayz9GkNJmvz4E2D1SIPuDh28e+kUsm1VdVUleR0eVheWVuReq78B1oXmVrGpOYp+HGtd9c0jPy96QAGI97rroHeMt0jJHue+htenrDpmOkrDmmScOW8CKH7Ihz2JGfiDs09O+FH422d3fQutsb/f6HLZRn/2NSHoiO+7UVE3it1zjafeS+v1l454G/LwXAuCgN/LPpFCPFYkluXf0yruE2qalKatiZ6mwwkfNS+fdOurAppnE88GPhi8Z5+C7v9PsHqC0vo76q0nSMnBJKloz7tYMTeK2XxBzNM+3xUSdeSQEwXmuvegB41XSMkbZs6+SJZ943HSNlO5jegUsAACAASURBVOIQ8sLZXmTcxsihR3xcYFNCj6k/QKb40dz/q2fRHpiAONLimeldn14ItoXGP2KydTD3R1scNK93J4g5+oLAN9dffeCfSwEwMTeZDnCg+x95h+07vDVseTCOhvXhsTWFEbmnOXboZ/8a2BrThD0w6U8B7z+7gb3t3mj4M2xKdTUN1XL3P1bNA1Noi459U53WSB07BqdkIFF2vd2ToDex74Ol+BH/8Op+aw2lAJiItVc9BnhqgbDraG5d/TKxmAdap6Ug5sJb4cM/Gxa5qTUxdHE/lJ0J6PXAxR8g0dHHi0++ZzrGfhSKJbOmmY6RkzSKNVvPGfPrVm87B53jvUo2DyRpiez3waoJJAPfGfkbUgBMmP4u5huV7Wdv1yB33+etpUuH0mdrXglpQh65CIj02BaD9yKH/mjsSQy1+vWCgOuw9hfPmI7xETPra6mSdf/j9krnQh7efWLKX//grpNZ15nRnfgyrjlks2lglJtAzTeKvv363OFfSkPWidp43y6WXrYEWGI6yki79/RSW1PKzOkZ3lM6TWwNbQkIWIpyn/QJzGVhB96NaloOs9SzPanZ7ZGBKh+ax297nu693tpl06csTlo4n4BfTtUT8VbPXGztZ1HVLiw1esFpuz5+03w2d20/k1w+A+0I2bzXf9APn09ry+e+/ItHIJe/Sy9pWjUb1Eag2HSUkQJ+H9/6q49zxMzcKAKGlflgXrGiISA/oLkk5g4t72xJHH5IrCOp2eGhXhBbnn3Pc0P/AAumTWXpLJn8ly6TS3q5YNrrHFu3lcnFQ/M8OmLVvNkzj0f3HE9HtMZwwonZPnzxP9QHUBNJ6qIZ/L8lPXJ+TZemVf8O6u9NxzhQbU0Z3/nWJ6go91RtkpIiBfUBqPUryv2aIqUIyE+sJzh6aN5GxIV+G7rsoUc5qQzmd9mwzUNLQMM793KXB4f+A34f5y0/mqDc/YvD0fD+QIKtg3aqr7gx+Z/L/1tOp+ly8a8rKApuAjy3dmThgsn81V+cnXO7Bor802VDs0ca/QD4o3F+/X/vx3E8tuYPOGbOTOZMmWw6hvA4W8NbvXHaImOYRKV4PvnD5WdJaZkumx5IsPSyAeBTpqMcqKs7TNJ2WHxk7i9rEblrb1LT7KFhf7/rcvctjxONxE1H+YjqslKOnXsESknRLg4u5ri80hWnKzbmAnaGe+pXfyqrANJJB28FvLNp+AhPPP0+z7242XQMUaA6bG898/ejeXLV857a5W+YQsnFXxxWZ8zl+Y44/YlxjV75gtp3thQA6bR2pYPrfgXwyNzm/d1173re2dBiOoYoMG1JzY64d9bKWsBrD7zO9s0dpqOM6ojJ9dSUl5mOITxKA5sGkrzaFSMxkdbvyj1GHgGk2/t/6GDJpdXAKaajHEhreHdDK0sXN1JVmXuTAkXu2ZmAFo+Vwztf2cyfnt5oOsaoggE/pyych8+SezPxUSFb82pnnNboxJumKKUG5acsE2KRfwK2m44xmlgsyY9//hy9fRHTUUQecxnqANjukSY/w/q3tPLUA+tNxzioZbNmEPT7TccQHqOBnWGbF/dG6U+mZ8Kq1syREYBM2PxQkqWfaQb1OdNRRhOL22zc1M7xx84kGJSTjUivpIZNcU2/xzo7Jtp7Pbncb1h9VSVHHTFTml+I/QwmXdZ1x9kZtknnZq8KbCkAMmXDfZtZcukyYLHpKKMZDMXZ+H4bJxw3i0BAfgxEesS05oOoIuKxVXW6L8TqHz3qnYkIB/D7LE5btIBgQApyMSTpajYNJHm7N0E0M7umBuQRQEYl/wLw5kwjYE9rH//98+eIx1NuHiHEQQ24sCE6VAR4iTUYYdV/PuK57X1HWjZrJmXFRaZjCC/QsCdi81x7jG2D6b3rP/BIcuuXSRvvj7D4ki0odYXpKAfT2xdl+85ujl8+UyYeiXHRDLX23ZogkyercfGFo9z+g4dwbO9e/eurKjl6tgz9C+iKO7zenWBH2MbO8GfJZ9EvBUCmbfzDJpZcNhc42nSUg+nqDrOntZflR8/AkiJAjIGjYWtC0+6xmf4AvmicVT98mGTCY5MRRvBbFqctlqH/QteXcHmnN8EHA0niWaqii3xK5gBkxZIrngHn80CV6SgH07F3kK3bOznu6Jn4/VIEiMOLuZoP4opBD15frUiMNT98hHjMg5XJCEfPmUVDdaXpGMKQgaTLO71JNg4kCGf6lv8AdUFfkQw6Zcvla85B6Sfx+EDfvDn1fOO6MykpCZiOIjysy4YdCU1m5iZNUH+YVf/1MHaalktlypTqak5dNN/jZwSRCf1Jly2DSdqijrGJqQsqA8gIQLZsvHf7/8/encfJVdV5H/+cc++ttfct6ewhOyEbW0BB9lEeB5WE4IK4jBtEVMB1Znw048w844zOgDBs6ggkQZYIwWEQlVFERWUPgQAJCRBCCEl3Or13Vd17z3n+qE4I0Em6O1V1ajnv1yuvkO6uul+Sqjq/e1bmLqkHTjAd5WA69vTz7PM7OHrhRLtE0HqbUMNLGc12vzgn1Ie7u1n57/cV5eE++4tHI5x05Ewcx/a2VQwNu9IhT+3J8HyXT6/hPTKmJm0BUFgnvec3pCJnAhNNRzmYru4UG557jYXzJhCL2Z4AK6s7hI0pTU+Rtq3p13az+upfoYttJuJbCAQnzJ5OTSJuOopVACGa1/pDntiT5sXeIF9L+kZEAPPqI7bzqeCWrZwEPAmiwXSUQ6mrTXDJ505h4vg601Esg7TObuf7ml88x/juTwDtz23j56seMh1lWOZMHM+cieNMx7DyrC/QbO31eaU/xC+yorQp6nBic9QWAEacv/IctPg5JTD6F4t5fObj7+SoI1tNR7EM6FfwYlrTV6R3/VLACw8+y4O/XG86yrA01VRz8txZ9qS/MqU07BwI2doX0JYxN75/KEfVRZha5dohACM2rN3EkUsbECw2HeVQgkDx2Lqt1FTFmDyp6DstrBxRwLZMtvHPFOmHmKs1f7nrYR75/UbTUYYl6nmcNHcmnt3rv+zsySi29Pg8uSfNq/0h/UXQzX8groCFjREcIWwBYEx2aeB7gPGmoxzK3lMEtYaZ08dgb17KW1eY3cu/swiX9+3lhYr7fvwALzz7mukowyKF4MTZM6hNJkxHsXJkINRs7QtYtyfDlp6Azowquo2whjK5yqU1ni1C7Ue5SUtWteLwKCVQBOw1b+44/ubCE0nEI6ajWDmW0fBKRrO7yHeGdnoHuP2aX9PdNWA6yrAtmDqZaa0tpmNYh6kv0Lw2EPD6QEhnpkjHxQ5CCjhtTJyEm236bQFg2rKbTwT5AFAyG4G3NFVz0adOZvy4ot3XyBoBRXYr31f94tvKd38C6Nq8gztverCo9/V/q0nNTRw7Y6rpGNYodfuK1wdCXhsI6SnyvSUOZXq1y5zaN27ebAFQDM5b9TEEN5uOMRKe53DB+cdx4vH2g61UaWBPkL3rTxdxww/goHn6V+v5y4PPmY4yInXJJKfMm23P2SghodZ0ZBS7BkJ2DIRFsWwvFyISThubILLfS9EWAMXivFX/geAy0zFG6oxTZ7HkfQtx7YYmJaUrhFd9TW8Rj/Pv5WV8fv6j3/H69t2mo4xI1HM5ff5c4lE7XFbsenxFe1rRlgppTyvCIjvRMheObogyPvHmaX+2ACgWy+5wIH0fcJbpKCM1rrWWT33sHUwYZ/cLKHY9CrZnNF0l0PAjILV9N2tueADfL/KJCW/hSMnJc2fRUF1lOoo1hIFQ055StGdC2lMhqTK5yz+QsTGX45reXojaAqCYXLC6hox+EFhoOspIea7Dkvcv4LSTZ9lVAkWoN4TXAs2eEmlHXa14/N4nefxPL5iOMmICweJZ0xjXWG86ijWoP1B0ZBQdaUVHJqTH8Da8hRRzBKeMiRGRb/9gth/VxeZDt44jDP4ETDYdZTTmzm7l4x9ZTG2t3ebUNE12+94dfonc8Q+S3X3ccf1v6e7sMx1lVBZMncS01jGmY1SsVKjp8hVdGUVnRrEno8gU8+zWPHIQnNgSoT4y9Ip/WwAUo2WrjwT1h1LYLngoNdUxPrT0GI5ZNMl0lIqkgI4g2/D3l9CkZRfNCw9t5IF715mOMmozx7dy1OQJpmNUjFSosw39YIPflVGkKrSxH8pQ4/77swVAsVq6cjFS/BYo2Z1D5s0dxwXnH0d9Xcn+L5QUX0N7oHndp2h37xuKANSeXtb+5Hd07u41HWfUJjQ1cNzMIxD2YzXnAg19gaLPV/QEms6MostXpMt87P5wzKzxmFVz8MPc7Cu1mJ23cglC3AGlu2NjLObx/vfO47STZ9r9z/OkK8w2/B1B9u6/lHhas+7+p3j4d8+bjnJYWupqeMfsGUi73O+wpEJNT6DoDzT9gaZnsMEfCFSxbqtflI6ocplbd+jVJ/YTudgtW/kpED+ixP+tZkxr5kPnHWtXCuRIRkObr2kLIV1qrT4ggd5tbdx94x9IpTKm4xyW6mSSo2fNpMpziEhsoXsAWmsyCvpDRTrMzsRPhZpeX9MXZu/uS/ClXHSmVLnMq40Mq8Wwr9RSUCZFgBCCxcdNYen7FlJTHTMdp+QEGjpD6Ag1e0KK9qSxQ3H6U/zqpw/xyottpqMcNhGJ4bZMAZntpBNCEJUQdyRRKYi72VnY2V+SmAOeEHhSMMSk7JKkNPhK42tNKoRUqBgINelQD/6ebfQzKlsEWPkztcrlqGE2/lDiDUpFOX/lF9HiB6Zj5EIiHuE9Z83hjFNm4bolO7pREIHONvi7/ewa/lL++PTCkMd/+RSPPbTJdJScEF4Ut2UqOKN7DbsCXCnw5BtFgSvBk5KIBEcIIoPf2/c20bxpOZe334iDIwRysPfBEewrMJSGvUPlSut9m9xoBMF+E+YySu9rEYIQ/ME79kApfJVt5IP9GntfQTD4NcswAXNqIkyvHtlJk7YAKCXnr7wMLf7DdIxcGdNSw5L3LWDBURPs3gH76VXQFWRP4+sr8UYfssf2vrr+ZX655lGUKo9OXuFFBht/e7SvZZYrYGF9lNaDzPY/EPuxW2rOW/lNhPhH0zFyafy4Wv7P2QuYd9R4ohU4hyqjs+v1u8Lsev1y2aPERbN70w7uvf0vpAZKe5x/f8KL4rRMRjgHn2FtWfkWcyTHN0aojYzug9MWAKXo/FVfR/Nd0zFybeHiaRx/2lyq6hPUOFDlCKpkeb1INZBS0KM0PSH0KEG6zNYtu2i6trbxi1v/TE936RzZOxzZxn8Kwt75W4Y1xyRHN0SH3OFvuMrps7WynL/yIrS4huyE6rJy9OIjOPas+QSJGBKociApBTGpiQlBQma7vYpdAPSHMKA0/VowEGr6dHEfuXs4XDQdm1/nl2seprcnZTpOzr11wp9lmSDIrvGfUeMddgNeAh+j1gEtW/0R0DcBZdkXOW3OON753oW4jTVvGwj3BMQlxKQgLjQxKfDITopyReGqIl9nl+GlgbTSpHX2jj6lKPojdnMlohQ7Nmzjl3c9Rjrtm46TFyKawG2ZDKLs6m2rhFS5gqMbo9R6uXkd2gKg1J23+q8Reg1Qtuvqxoxv4Iz3L6JqYhOBHt5L1hPZQsATEBHgiuz+bC4aMThDWgAS8bZiIRisNpTO1h0Kga+zM559DSHZhj/QpbfxTi65qQwbHtrInx7YgC7jvwgRS+I2T7KNv2WMACYlXY6sjeDm8GVoC4BycP7NZ6LlzynhbYOHw4u4nHzWUUw/9gjCaKTkZ8eXIgeNv7uHh+9/mufWbzMdJ+9kshanYZxt/C1jqj3JwvoIdaOc6HcwtgAoF9ki4F7g0Ps/loFps8ZxwrvnkRhbR2hfxnnnpDNsXf8KD973FOlUeXbzv5WsbsSpH4P9mLRMcKVgZrXH1Co3b5tG2Vd2OTlv1QUIVlFB/64Rz+XE0+cwfeFkZG0VJXTqbdHzVMjul9t4+H83sO3l0t+1bySchlZkVUkexmmVOgET4i5z6jxied4usmIaioqxbNWPgU+ZjmFCLOZx/LvmMG3RJJzaqooenx8tTyk6t7Xz2IPPseX5HabjFJ4QOI3jkYla00msCtQUdTiyzsvZJL9DsQVAuVl2RwOknwNaTEcxqao6xvGnzGHS7HFEG6rw7Ut9SAJw0j67t7XzzMOb2bhhu+lI5jgubtMkRDRuOolVYeoikpk1HmNihV1iaj8Vy9F5q5cj9DWmYxQLIWD2UROYe9wRNExsQkUjFd074GpFpqOXl5/bzuN/3FR2m/WMhojGcZom2t39rIKq8SSzal3GRl0jrbEtAMrRsjuqIL0DqDIdpRglklHmHj2FybPGUT+2DhKRsp5IGFGKTFcfO7e2s/GprWzZ9Dr2ULY3yEQtTuN47IEUVqHUepIZ1R6tccdoK2xf8eVq2eobQX/CdIxSIIRg+pyxzJg7iaYJDcTqkijPLbleAkH27j7oTdHT3sP2l9t45rGX6NrTZzpakRI49WOR1Xayn1UAAlqiDtOrPRqL5NATWwCUq/NXnY/mdtMxSpaAiZObmTK9hZYJjdQ0VuFVxSDiEgppdA8CR2hkoAhTGQa6B9jzeifbXtrFC8++Rqq/fA7dySvHxW2aiIiW9dYZVhFwELQmsg1/tVdcTa490aJchfJJZKndwxYRDdtebhty+ZsXc2ltradlXB31jdUka+LEq6J4iSheLIITcRGORAqBEgIh2Lc8USHQZLcqFoNlhNh7DLvWECqUHxBkAvyUT7o/zUBvip7Ofna9toftr+ymu7O/QH8J5UnEkriNE+xRvlZeJV3B5CqPSQkHL8/L+UarOFNZh2/FCsmGad1A0nQUyyoKApzaMciaRuxHn5UPUsCYuMPkpEtzxOz4/nAUeTzrsCxb9TowxnQMyzJNuB5O4wTb5W/lRX1EMj7hMiHhUqAl/Dlh+8DKmx0DsCqejNfgNI6zx/haORV3BOMTLpOSLslSOJ98CLYAKG/239eqXNLJbulrd/WzciTpCsbFXcbGnbwczlNopVm2WIf2kVvq8VWH6RiWZYKIVeE0jEO4dmMf6/DUeJKxcYdxcYfqUurfHwZ7h1iuAuaZjmBZBSclTt1YZFW96SRWiXKEoCEiaYk7tMYd4k753ifbAqBsqRNNJ7CsQhLxapz6VnvXb41YtSdpikqaow5NMYlTIbtC2gKgXGkuMB3BsgpBOC6ybgwyWWc6ilUi4o6gKSZpijg0xRxiZXyXfzC2AChHH1x9HErbIQCrrAkB01vHMGfiBEIEHWnF7kxIR0bRnVFGd2u0ikvClTREJA1RSUPEKbod+UyxBUA5Uupbdn6nVc4aq6tYNG0KNYns0b0u0JpwaE1kl/pllGZPWtHpK7p8RVdGkQptSVAJYo6g1pPURiR1EUl9RBIp0p34TLN/K+XmvJvfj5B3m45hWfmQiEY4ctIEJjU1jvjTy1eaHl/R6Wu6MtnCoCdQ2K6C0hVzRLahH2zwayOSmG3sh83+TZWTC1bXkNHrgcmmo1hWLnmOw8wJrUwfNwZH5G4pVlpli4HOjKLH1/QFir5AEdiioKi4ApKuJOlJql1BXURS60miFTp2nyt2CKCcZNR1IGzjb5UNIWBKSzNHTppA1Mv9x1VUClpiDi2xN+8S6Cvo8UN6Ak1/oOkLFb2+pjfQaG2rg3yJOYJqV5JwBQlXUD3Y4Mddae9W88D+nZaL81dehBbXmY5hWbkgEIxvqmfOxPFUx2Om4+yjNPQF2Z6C3iA7r2Ag1Pt+zyhsgXAAQggiEhKOJOpkZ+LHHEGVJ0g62bv78tpmp/jZAqAcLFs9D/TDQNx0FMs6LALG1tdy5MTx1CVL7yBLrTVpBQOhIq00AwGkBguEVKhIheBrja80qkzqBCnAkwJPCGIOxBxJ3BFEHTH4e7bRj8hsEWAVD/uvUeqW3VEFqUdBzDYdxbJGrcQb/tEINARK46s3ioJAga8UGQWhzvYo+FoThIMPEtkVDnv5+x33FWqNGux9CDX7CgwpYO9QuRRi3yY3Ao2734S5iBT7JkS6DniDd+yulHgy28i7+zX2ngR38GtWabJzAEpe6gbb+FulSgrB+KYGZo1v3bekr1K4Alwne9f85nsxe2qhVRi2AChl5636NPAR0zEsa6Rcx2FySxMzxo0lEY2YjmNZFcl23pSqpTfNRTqPAAnTUSxruGIRj6ljWpje2oLn2vsPyzLJFgCl6MKVSVLiUWCO6SiWdSgCQUtdNVPHtNDaUI+dB2ZZxcGW4KVoQFyDsI2/VdyinsvklmamjmkiGSuepXyWZZIjFDNqttMS6wRgV6qOF7rHE+rCL4K0BUCpWbbyE8DHTcewrKEIIWiprWHymCbGNdQj7e2+ZQEQdXzOnfwnzp7wCFVu6k3f6w1i3Pfq8azd+g7SYeGOs7bvzlLywZtnouRjQLXpKJa1P+FFkck6nGQdE6qjTKuO2BPXLGtQc6yLv1twK5OSbQf9uVf6mvl/T32YtlRtQXLZd2ipOOeGBLHEw8BRpqPk0S7gGWAjiFcQ1KC0BCYheAf2jIOikm30axGJWoT7lpn8AsZEHaZWuzRHHPtJY1WsuJPmu8fdyITEwRv/vV7ta+Ibj/0NA2E0z8nsEEDpiCWuojwb/27gNtA/Ze6Lf2DFCnXAn/zQreMIgjMRnAO8G9sTUnAimkDGqxGJaoR7kA8oDTtTITtTIUlXMKXKZWLCw7N7vVoV5oNH/H7YjT/AhGQ750/9PTdvPiuPqQAYsHV5KThv1QUIVpuOkWMhgh/j62+x9mO7RvzoZXdEIH0KQp+DlueAnpL7iJbrSHS0CmLVyEQVyNHfMzhCMC7uMLnKpT5iKwGr/MWcDDee/B9EpD+ix2WUxyf/cDmpMK97ZOywBUCxW7ZqFvAYUGU6Su7obeCcy5oLHs/ZUy69aS6OPAMtTgP9LhANOXvuCiKFoKG6iubaGlrqavCdOI92pHN+naQrmJBwmZh0idsjXa0ydVzTJr4x//ZRPfa76z/Io+0zc5xoP4Ln7RBAMfvEjTH6uJ3yavwfIRQf4K4LduT0ae/8xAZgA3AVK1ZInp66AClPA30aiJOAupxer0y4UlJXlRxs9KtprKnGlW/cnW/uCfJy3b5As7HbZ1O3T2NUMj7h0hp37RCBVVbGJjqMPHY4hBKbbQFQzPrdK4EFpmPk0NOk/TP570/15PUq2XkETw7++g/QgmWrZyLEcSiOQ3Ac6IVU2umJAqqiMRqqq2ioTtJQnaQ2kTzExjz5PbJOA+1pRXs6w/pOn3pP0JpwGR93idot8a0SJw/j/eOIA0+HygUl9FO2AChWy1Z/EK0/ZzpGDrWDfn/eG/8hCc0aNgIbYXAuxWdv8NgdOwopFiDkHLSeCxwJTKEM5qxHPJfaeJyaZJzaRIKaZIKaeAzXGVmrmihg97zWmo6MpiOT4bmuDE0RydiEy5iYQ8wOE1glqD1VM+rHtg3keSmgwBYARWnZqumgf2g6Ro59ijUfe8l0iH1++DmfN3oJ3nDhyiQpZzZCz0FzBOhJwCSySxAnAcWypZ0GXhNSbJvY2LA4GYuJZCxKMhqlKh4j6uXmrd0QcxDkux/g7ZSGXWnFrnQGgBpPMiYmaYm51EeEPVfeKgnr9xxBqOWI7+YVkqf3TM1TKgACXP1bWwAUm7OvigK3A6MvHYvP71lz4X+bDjEsqz7WBzw++Ovtlt04FiLj0boFSSOKpn2/C1qAGtAJIAo6CSJCdg7Hwbb3Cskuh+wG+oA+hOhCqR4k3Wi5E8EOUG2EegdeZCc13W388HO+Bo694rkHQbwrh38L+8SkYFzCYXt/eOgfzqNuX9HtK17oCYhIQXNU0hRzaI46xO2B9FaR6vHjPLRzLu8a+/SIHvfHnXPp9vN6ztvv114yZ7ctAIpNVf33gaNNx8gppb9mOkLOrPnk68DrpmPsTwtxp9DkpQAAmFsboS2VIqMK3Q8wtIzSbB8I2T6QLUoSrqQpKmmOSRojdu6AdWBNag9/lf49izLP0qyyk+zaZANPeHO5P3Yy7bI+59e85cXTWNj4IjVe37B+vttPcsuW03KeY39C6LVQBmOdZeX8leegxc8pq38X/QBrPna66RTl7OyrXqiJheE2kcdeo86M4uH2dNEUAQcTcwT1UUlDxKExIqmJyHJ6Q1mjdE7qN3yk/x48hl6TnxERbo2fwz2x3H9czazdzt/Ov40ar/+gP9ftJ/ju+g+ysWtCzjPsp8dJexPXfGNal62Vi8WylZOAX4LIa79PwQlxORvWPm86RjnbfN/V6bnv+fwEEMfn6xoxRzA+7tIXaPqC4i4CAg29vqYtFbK1L+ClXp+OtKI30IQKXEfg2jkEFeWCgZ/zoYH/weHAY/EOIQv953AJeNqbndPr707X8OddR9Ic62ZCsn3In3m4bTbff/o8Xulryem130pobvjZV2feDXYr4OLw2Rs89sjbQJfb5jVb0dF7TIeoBKHjXiHD8DNA3rYOi7uC45uidGUUm3sDdgyEaF3cxQCAr97YlnivmCOojUjqPEld1KExKnBsP0FZOi6znnMHfj3sn18y8Gs2OdN4LJLbndd3per4t6eX0RLr5OimzW86DviJ9unsShVkq5K09Lhy7x/sK74YnL/yCrS41HSMnBN8lTsu/L7pGJViyRXPXwEU7HXUHyi29IZs6/MJi78OOChXwpSkx/QaF8/2DpQNoTVXdP8TE8KRTdvZ5rRyWe0385TKHK353trLZ++bk2X33TJt2ar3osWXTMfIg3509CemQ1SSdDTzHWB3oa6XcCXz6jzObI0zuzZS0lv6Bgo29/j8cWeq6Ic4rOE7Itw24sYfYGK4g6nhq3lIZFSHS/jd/b9gCwCTPnTrROBmyrEnRouVrDk/v3tZWm9y7/L5e4TWXy70dSNSMKPa5YyxMY5vitISK93O9N5A83B7Cr8EJjtahzYteGXUj50ebM1hEvM0fHHNnb3R3QAAIABJREFU5XPf9JlsCwBTTn3AJQxuBRpNR8kLwbWmI1SiOy+fc3OoMTLvQgjBmJjD4qYop4+NMb3aK8kd/PoCzabukZ3eZhWnKn3wWfcHU62Gt2yvFIRa/WLtZbNveevXbQFgStOr/wK803SMPLmfNR8d2c4XVs48sCslUoYH5ROuZE6tx5ljYyxuijIu7uKU0Nj61t6QoAQmOFoH13sYi6p6ZDKHScxJhZrfvp4e8s1nCwATzlt9NoKCd9UWjNBXm45QqbyvPPGpAV/99SO704RF0IAJIWiJORzTGOGscTEW1EdojBb/EEGIZnc6v4exWPm3xZ006sduPozHFosQzWO7M6RCfbZ3+RMfe+v3bQFQaEtWT0DolZTjuD8A4mV07BemU1Skb6yvR/NvAF0Zxfo9xdWN7QnBpKTLO5qjnNUa56i6CI3R4t2kpy+wBUCpe9GZyA6necSPe80Zw8syr5vxFMRTHRn2ZAaXvwqu5G8fftOQsy0ACunUB1wcfSvQZDpK3gh1FWvON7txfIXy/OAfgH17SbzaHxTtWHbUEUytcnlHc4wzx8WZVx+hqYiLAas0aSG4Jf6BET9udfz96BIashrKpm7/rWd41Hu+93f7f8EWAIXUsv07wEmmY+RRLzpml/4ZEL3s8enARW/9+sZun809gYFEwxeTgilJlxObY7x7XIJjGiJMSLhEpNkP4Li0H4/l4C+RhdwbG/7e+vfETueRyII8Jsq/F3sDNg5V/GsuiX71sWl7/2h3AiyUZStPR5fRoThDu4k153eZDlGJlBRf5gAnDj7XncETMLmq+N/unoRxCZdxCdBasyej2ZUK2JVWdGdUwY4llgIaY7YAKBc3xZfSLatZ1n8vLkN3UAY43J74a+6OnlXgdLn1cm/Ahq7Mgb4dUcq5DLgEynYcush8+KdjCMJ1wFjTUfJIo5wjufMjdt//QvvG+nrPD7YBB562LGBmtcesmoOdSlzcMgp2p0LaMyHtqZDePG7YMzHpsLA+mrfnt8wYo9p5T+pBFvnPMibM7pm102nkSW8uv4y9i52ytEdnX+oNeKYrw0ErZU2/r6MTuWJuR/HfEpS6FSskG8JbKO/GH+BXtvE3wwv8j4M4+JolnR0T9JVmbl2kJCv/iITWhENrInuGWSrUtKUVHemQjoyiN1AH/+AbppgUzKmxjX852imbuDmxlJtZajpKbulsT9+whvsECU+kL/DhalsA5Nsz01YgOMN0jLyzS//M0XLpcFu+l3oDMkqzoD5KCe7R8yYxRzAx4TBxsCDIKM2ejKIjrejIKLrSinCEFUFUChY3R4nac1KtEhFoWLcnzY7+Ecy9FiwFri7xj4Aid96qUxH8L1DuHycvMHfLbFassOumCu1vH270Mt5ORvgaq/EkxzVGSbjl+xGgNPQEis6Moiuj6PQVPRk15IGwQgjGxSVH1kWIGZ58aFnDlQoVj+zO0JUZ8Udv6KPG2h6AfDl3ZQuCn1L+jT9ocbVt/M2IpN0ztRj5a6zbV/xhV4qjGyI0x8rzJSoF1HqSWk/umx2hgO6MostXpAd3S4w7kuaYLMlti63K1ZZSPNGRJjO6cyuciHZOswVAPqxYIdkgVgOtpqMUQA9RbjYdonKJRaN9ZEZp/rI7zRFJlzl1kYpYEyyBuoikLlIJ/7dWOdJk5/O80O0f3pQXoRbaAiAfNkz/JujSXksyfD/hlo92mw5RsQQLD+vxOrtmuCOjOLohSrKMhwQsq9T1Bpondqfp8nPQ4SrEQlsG59r5t7wL9LdMxygQDVxnOkQl0zA1F8/TmVE8uDPF5h4fXQRnCFiW9QYNbO0L+MOugdw0/oDWHGF7AHJp2U+a0aoyxv2zfsGaCzeaDlHRBPW52h0n1JrnurLbhy6sj1Bru8kty7geX7FuT4bOkU/0OygBdfYdnisrVkiIrALGm45SMFpcZTpCxdPU5Popu33FH9tSPNfl2yNxLcsQX2me7crw+12pnDf+ABrqbQGQK88c8XXQ7zYdo4A28bML7jcdwsoPpWFzj89vdqR4qTewwwKWVSg6e5DX715PsaUnYHST/Id3JTsEkAsfXH0CSv+D6RgFpcUPQNhWwTBH0B9q8rZtXUZpnunM8Gq/5Mja7PG9lmXlR3s65NlOP2fj/AfjSPpsAXC4PnJLPb66jQMcxFKmuomy2nQICzwp3DDMfx3WmVH8qS1Fc9Rhdq1nl9FZVg51ZhSbun12pgp3kronhWcLgMOiBf6qG0FMNp2kwH5sl/4VhxpPVqfCwn1otKVD2tpCWuMOs6o9qj1bCFjWaHX7io1dAa+ng5ycYzESta6ssQXA4Vi2+isg3m86RoEpZHit6RBWVq0n2VXAuwYANOzoD9nRH9IcdZhV61FvewQsa9i6fMULPT47BsKCN/x71UYktgAYrWW3HA/qn0zHKDx9D7d/YovpFFZWjWd24562dEjbrpCmqGRatUdL1LGHjFvWUDTsSods7vHZnTa/c3qNawuA0fnAjXWgbwcipqMUnJb21L8i0hRzEBi7idinPa1oT6dJuoKpVR4Tky52U0HLghDNjv5sw9/jm36nZgmgMSYrYvvvHNMCz/0J6CmmkxjwLD+74LemQ1hviEhBQxGdXdsXZFcN/O+OAZ7tytAXFMcHnmUVWl+gebYzw/2vpXiyI1M0jT9AY9QhIoXtARix8275EnCu6RhGaK6yS/+KT2vcYXe6wPMADsFXmi09AVt6AmojkslJlwkJF3vgnlXOlIadAyFb+wLaMubG9w9lbDx702B7AEZAL1943I+qf3VZjciYjmLCHuLaLv0rQhMSDm4Rn2HflVGs35Ph/h39PNOZYU+muIoVyzpcezKKZzoz/HpHP491pGlLF2/j7wqYkMwWALYHYJj0pQvrVJrb/ib29KT3R17gnwZO5JqBRYSVMuNJiB+x6sI+0zGst/OkYELC5eVe33SUg/IVvNQb8FJvQNwRjE+4TEq69gRCqyQNhJrt/QGv9AUlNdQ1Meniiex7zhYAw6RSXIvgCIBGmeKK5ANcGH2Wy/tO5Q/+BNPx8i1Eq+tNh7AObFqVwyu9PubnFg/PQKjZ3OOzucenLiJpjTu0xm0xYBW3vkDz2kDA6wNhXvbnzzcp4IiqN/asswXAMIQXLbgEwYff+vWj3Z38rvZ27s1M44u9p/Oyyvm5LEVC/Jw1F75kOoV1YAlXMqXK48Ui7wUYSmdG0ZlRPNflU+NJxsYdWuMONXaTIasIdPuK1wdCXhsI6SnAFr35dESVS2K/ItsWAIegLz56vkL928F+5r2RLZxev5WrU0fzz/2L6dVltjpQa7v0rwTMrPF4tT8gk8fTQ/Kt21d0+9ltUeOOoCXm0Bx1aI5LXGF7B6z8C7WmI6PYNRCyYyBkoABbbRdCRMK06je3TfYddRB6+dwqpb3HgFnDfcx2VcXf95/M6tQcdHn89T7Dmo/Ot7P/i9OSK55/07/Ltv6QdR1pU3HyxhHQFHVojjk0RaXdgtjKqR5f0Z5WtKVC2tOKsAxPvzy6Icr4xJuXDNsegINQeNczgsYfYLzs5aaq+1geW8dlvafxl6A1T+kKRV9pG//SMTHhsHPAyW4xWkZCDTtT4b7DUqKOoDnq0BRzaI5KYnZ9oTUCA6GmPaVoz4S0p0JSZXKXfyBjY+7bGn+wBcABhRct+ByaC0b7+OPdHfyx7lZuSc/m632n8rpK5DJegegOUgO3mk5hjcy8ugh7Mqmy/lBLh5pX+wNe7Q+AbEHQEJU0RhwaIpKaiCyP/jcrJ/oDRUdG0ZFWdGTCotqUJ99ijmBBw9CH1dr3yBD0RfOPUkI+AsRz8Xx92uPfB47luwOLSevi2bXtkIT4F+746N+ZjmEd2FuHAPbqyigeakuXZVfmcESkoD4qqfMktZ6kNmJ7CSpFKtR0+YquwcmlezKqpOfFHA4HwYktEeojQ7c79h3xFvor85OqTz4KzMn1c28O6/j7/pP5WXpmrp86HwIc9whu+/A200GsAztQAQDwan/Akx0VuWnVkDwpqPYkdZ6gNpItDKpdaT8FS1gq1NmGfrDB78ooUhXa2A9lqHH//dkhgLdQfeI68tD4A0x3Orm9+h4eiE3isr5TeTpozsdlckOItbbxL20TEi59gWZTd+ktDcwHX2k60iH7z5GMymwxUBeRVHuCpCtJutIeZFRkAg19gaLPV/QEms6MostXpMt4mOtwzazxDtr4gy0A3iRYvuhTaH1hvq9zmvcKj9Wu5sb0Ufzf/pNoUzkZacgtra4yHcE6fLNqPJTWbO4JTEcpSmml2ZUK2ZV686RJT0K151DtChKuIOlIqjxBlSsQdjli3qRCTU+g6A80/YGmZ7DBHwhUse6sW5SOqHKZVTP0uP/+7Ct5kP78grlKiUeAgs7W26NjfKf/RK5NLSTQRbO06UnWXHi06RDWoR1sCGAfDeu7MmzttUXA4ZICkm62p6DKzc4riDti3+8RiS0QDkBrTUZBf6hIh9mZ+KlQ0+tr+sLs3X1pb7NTHKZUucyrjQyrdbc9AOwd9xd3UODGH6BeZLcV/lzsKb7cdyq/zEwtdIQhaHv3X04EzK+NEJOCjXY44LAoDT2+pscPgbcvtRRCEJUQdyRRKYi72VnY2V+SmAOeEHhSUMTnN42I0tnhFV9rUiGkQsVAqEmHevD3bKOfUdkiwMqfqVUuRw2z8QdbAACg+uQ1wJEmM8x2Ori35i7uzUzjst7T2KJqTUVpIxneZuriVp6I7JigJwUbOjO2OzVP9L5G8ND7MLgCXCnw5BtFgSvBk5KIBEdkexQ8IXD3DuXq7AqHvfbfD8kRAjnY++AI9hUYSmf3Ucj+t963MkQjCPabMJdRel/DEYTgD96xB0rhq2wjH+zX2PsKgsGvWYYJmFMTYXr1yJr0ii8AgosWfQj0x03n2Ou9kS38VcNLXJ9awLf6TqK70NsKC3EDN30yVdiLWoUytcolIgVP7Ulj50+ZFWgIwmzB8OazY8trEycrv1wBC+ujtB5iwt9QimbQ2QT9uYUzhNA/NJ3jrTwUX4g9ybP1P+EzsfU4hbtf8wm4oVAXs8wYn3A4qSX2pkNBLMsqPTFH8o7m2Kgaf6jgAkB/4tSYktwBVJvOciCtso/rq+7nz3W3cJK3Pf8X1PyMuz76av4vZJlW40lObonRHCuhjaksy9qnOSY5ZUyU2sjom/GKLQBUvPNqYKHpHMNxzOCxw7dX38Nkpzt/FxLKnvpXQSJScEJjlLl1kcr9ILCsEiPILu9d3BR703yQ0ajI931w0YLzgU+bzjESAs150U08U3cj/5L8A1Ui5zu8PcGaj/85109qFTmRXTP8zpYYSTskYFlFrcoVnDwmxswaLydr+CuuANDLj54uhPiR6RyjlRABX4s/woa6m7gw9iwiZ/MD9JU5eiKrBNVFJKeMiTG92rPr2C2ryAhgctLl5JY4tTk8CruiCgD9helRpdUdQI3pLIdrgtPDTVX38VDtrSz2dhzu0+0iGa7JRS6rdDlCMKfW410thzeuaFlW7lR7kpNaYsyvj+Dm+G1ZUe9yFSSvBBaZzpFLi70d/LH2Vm6u/gVjRN/onkRwnV36Z+1V40lOao4xp9aze+JbliGuFBxZG+FdLTHq8lSQV0wBECxfdB6Ii0znyAeJ5qPR59jU8BO+nfgTUTGidcQ+WpXskIiVH1LA9GqPM1rjTK1y7bCAZRWKyB7kddrYGNOq3bzuGFkR72r92WOmKSd8HDC2vV4hvRDW883+k4Z37LBmNT+7MO8HIFn5MayzAHKgM6N4tivD7rTdrd2y8qUp6nBknZfTcf6DKfseAP3ZY7zQCVZTIY0/wAxnD7dX38P9NWs4ymk/+A8LaZf+WYdUF8luOHJCczRv3ZGWVanqIpLjm6Kc2BwtWOMPFVAAKCf4d4E4wXQOE06PvMLjdau4vup+msTAUD/yF9Zc8Eihc1mlqznqcHJzjGMbolQX8IPKsspRjSc5rinCyc0xxhjYlKuszwIILlrw1yAuMZ3DJFcoPhNbz9LoC/xj/wlcM7CIcO/Ij8Ce+meNnIDWhENrwqEtHbKxy2dPxg4NWNZw1XqSGdUerXHH6EB82c4B0J89ZpJywieBBtNZislzYQOX957Gr/0pOyA6hTXn53xHIatwCjUH4FDa04otPT670iH2qEHLGoKAlqjD9GqPxmhx9J6VZQ+AXjY3EjrhHcI2/m8zx+ngvto7+ZV/xHX/58d32cbfyommqKQpGqUv0LzU67OtL7DHxFoW4CBoTWQb/mqvuO65y7IAUI3edwUsNp2jiKXPZlPRnYJolb6kKziqLsKsGo9X+kK29vn02UrAqkBJVzC5ymNSwsHL51q+w1B2BUBw8cL3ApeazlHUNLeKHz+z03QMq3x5UjCt2mVatUtXRrG1L+DV/oDQ1gJWGZMCxsQdJiddmiNmx/eHo6wKAP2F+RNUwM0U/V+7WVKLa0xnsCpHbUQyPxJhTm2EV/sDtveH7MmMaLMqyypq9RHJ+ITLhIRLKS2OKZsCQK841Q13dt4moNF0lmKmEX8QNzz5mOkcVuXxJEytcpla5TIQarb3B7zSF9ghAqskxR3B+ITLpKRbsidplk0BoF7v/GcheKfpHMVP241/LOPijmB6tcf0ao/OjGLHQMiOAVsMWMUt6QrGxV3Gxp2y2BCrLAqA4OJFZ4P+iukcJWC7Ezp3mw5hWfuri0jqIpI5tR7dvuL1gZAdAyHdvt1bwDKvxpOMjTuMiztlt/lVyRcA+qIF4xV6JRWwq2EOXCN++LhvOoRlHUiNJ6nxJDNrPAZCza5USFs6pG0gtMsKrYJwhKAhImmJO7TGHeJOaXbvD0dJFwB62TJHi80rQTeZzlIC0lKr/zIdwrKGK+4IJiddJiddQg3t6ZC2VEh7WtFjewesHKr2JE1RSXPUoSkmcSrk9MuSLgBU0wvfAU43naNErBLXr99lOoRljYYjYEzM2bdfejrUtKVD2lMhbWlFyq4vtEYg7giaYpKmiENTzCFWxnf5B1OyBYC/fMFpaL5uOkepkEr8p+kMlpUrUUcwYXDZFWQLgo60YncmpCOj6M4ouyOxtU/ClTREJA1RSUPEKbod+UwpyQJAf/qoMUrzU6DwxyeVIA2/Ezc8+ZTpHJaVL1FH7DugCCCjNHvSik5f0eUrujK2l6BSxBxBrSepHZxcWh+RRIp0Jz7TSq4A0CuQeqe7GhhrOkvJEHbpn1VZIlIwJu4wJv7GPYKvND2+otPXdGWyhUFPoOzhRSUs5ohsQz/Y4NdGJDHb2A9byRUAatfCbwFnms5RQrY6LfX/bTqEZZnmSUFD1KEh+sbX0ipbDHRmFD2+pi9Q9AXKrjgoMq6ApCtJepJqV1AXkdR6kmiFjt3nSkkVAPriRacorb9pOkeJuUas+F1gOoRlFaOoFLTEHFpibx5N9BX0+CE9gaY/0PSFil5f0xtotLbVQb7EHEG1K0m4goQrqB5s8OOutPu750HJFAD6ovktCm3H/UemX8rIT0yHsKxS40ne1lsAoDT0Bdmegt4gO69gINT7fs8obIFwAEIIIhISjiTqZGfixxxBlSdIOtm7e7uZS2GVRAGQHfeXq4BxprOUFCFWiWse2W06hmWVCymg2hNUew5D3YtorUkrGAgVaaUZCCA1WCCkQkUqBF9rfKVRZVInSJEdXvGEIOZAzJHEHUHUEYO/Zxv9iMwWAVbxKIkCQO1c8HfAX5nOUWqkFteazmBZlUTsawQP3VEZaAiUxldvFAWBAl8pMgpCne1R8LUm2Ht4osiucNhr//2QQq1Rg70PoWZfgSFFdh+F7H+LfZvcCDTufhPmIlLsmxDpOuAN3rG7UuLJbCPv7tfYexLcwa9ZpanoCwD9+UXvUkp/23SOUiO0/o24/on1pnNYljU0V4DrZAuGN59gbkc5rcIo6iEX/YVFzUrpn1IChUqxUUJeZTqDZVmWVbyKtgDQIHTAfwHjTWcpQS877dPvNR3CsizLKl5Fe2etLl7wNdDnmM5RmvTVYs2a8NA/Z1mWZVWqoiwA9OfnL1ZK/KPpHCWqX2aCm0yHsMqXAjozin5foREkBzdmsRuwWdahOShmBC/REmYXaO1yGnnBnUpooEO+6AoAffG8eqXkbYBnOktJ0twk/mtDh+kYVvkJNWzu8Xm51yfzltN4s4fzOBxR5VXsyWqWdTBRneEDqfs5O/07qlT/m77XKxPcFz2Vu2NnkRaRgmUqqgJAg9DauRHBFNNZSpSWUtpT/6ycS4WKP7dn6PXVkN9Ph5otPQEv9QSMTzhMq47YE9csa1Cz6uBve65lUrhjyO9XqX6WDfyCxZkn+Zfq5bTJhoLkKqpJgOqiRZdrwftN5yhVAvFrce0Tz5nOYZWXQGv+3JY+YOO/PwVs6w/53a4BHmlP05YO7WE7VkWL6xR/f5DGf3+Twh38fc81xHWqAMmKqADQyxceh9D/z3SOUqawp/5VoHS+L7Cpy6d3pKfjaNiZCvlLW5rf7hzgxV6fYdQPllV2zh/4BROG0fjvNSF8nWUDv8hjon0GiqIA0JcurFOa24HCDX6Un83OmHX3mQ5hFZrozOezBwq29h/eWVJ9gWZDp8/9OwZY15Fhz1snEFhWmYrpNO9O/2HEj3tP+g/EdN5r+07jBYAGoTP8BJhqOktJE/ynWIH9ZK04uiufz747HRLk6FUVas22/oA/7krx29cH2NTtMxDa8QGrfM3zNxLRmRE/LqIzzPM35iHRfgRdxicBquULv4jmXNM5SlyPDJybTIewCk/AFg0z8/X8PSPt+h+mvkCzsdtnU7dPY1QyPuHSGnfxjN+SWFbujFXtRh47HEKJzUYLAH3x0ccorf7VZIayIPSN4oeP5/VO0CpOSuinhBZn5+8K+b1D10B7WtGezrC+06feE7QmXMbHXaJ2S3yrxMnD6JR1yO9ebkrop4wVAPpvZlUr1E+B6CF/2DoYLbW2p/5VKIFcl89GOlHANf1aazoymo5Mhue6MjRFJGMTLmNijt1bwCpJ7bJ+1I/N+1JAgbkCQEXj15PHrstKIQT3iWvX53mwyCpW2lX/K3wRkKc9PRpiDoLCr+RTGnalFbvS2fHTGk8yJiZpibnUR4Q9V94qCevd2YRInBH2BCghedqbladUAAS4+rdGRtzC5QuXAx8xce1yEyLt0r8KtvaSObtB/ylfzx+TgnEJ833x3b7ihZ6Ah9pS/HpHiid2p3mlL2AgT3MULCsXemSShyLHjPhxf4wcS7eoykOifX6/9pI5uwveA6AvmTdPhXy/0NctUy+4LU/82nQIyywtxJ1C8658Pf/c2ghtqRQZVRyNbUZptg+EbB/IjpEmXElTVNIckzRG7NwB68CaYl28e/zjLGrcQnM0O22qLV3LE+3T+PVrx9Ceqs35NX+aeD8Lg+eoUb3D+vluWcVP4+/LeY79CaHXAhS0H00vn1ulcB9Fi9mFvG4Zu8S5bt01pkNYZp191Qs1sTDcJqAmX9fozCgebk8XTRFwMDFHUB+VNEQcGiOSmogs7AedVZTOmfgXLjjiATxn6H0tMsrjpy+eyj2vnJDza88MXuYbPddRow9eBHSLKv61+iI2unldFd/jpL2Ja74xraug74vw4oWrgI8W8pplrEe60Qni6oe7TQexzFt6xXP/qRGfz+c1BgLN050ZdqZK66RpT0JDxKE2IqnzJLVRScweXVhRPjrtt5w7+aFh/exdW9/JLVtOz3mGFrWbj/fdxWJ/3ZDff9hbyM3JJeySjTm/9v6E5qo7L5/9JSjgYUDhxQs/i238c0fzY9v4W3uFjnuFDMPPkMfdNOOu4PimKF0ZxebegB0DIVoXf4+Ar7LbEu9fuMQcsa8gqIs6NEYFju0nKEvHNW0aduMPsGTyQ2zsnMhju2fkNMcu2cj3qj9DS7ibo4MNNA8eB9zmNPKEO5ddTn4b/kFp6XHl3j8U5BWvL5p/lBLyYSBRiOtVAC2lni2ueWqT6SBW8VhyxfNXAJcW6nr9gWJLb8i2Pp9S39DPlTAl6TG9xsWzKwzKhkBz5eLrmZAc2aY62/qaufThi/KUyhyt+d7ay2d/be+f874KQH9lflIJeQe28c8Zgfgf2/hbb5WOZr4D7C7U9RKuZF6dx5mtcWbXRoiX8Fr9QMHmHp8/7kzRZ1cWlI0jql8fceMPMDHZxtSq1/OQyKgOl/C7+38h7wWA6pPXAnPyfZ1KEsJVpjNYxefe5fP3CK2/XOjrRqRgRrXLGWNjHN8UpSVWup3pvYHm4fYUfglMdrQObVr18E/he6vpNa/lMIl5Gr645vK5Hft/La8FQHDxgk8CH8vnNSrQs+51T/7GdAirON15+ZybgZ+ZuLYQgjExh8VNUU4fG2N6tVeSO/j1BZpN3b7pGFYOVHkDo35s9WE8tugIvXbtZbNveeuX81YA6M8vmCsQ/5mv569c4mpR+I3ZrBLiOM5yYPS3PjmQcCVzaj3OHBtjcVOUcXEXp4TG1rf2hgQlMMHROrhePz7qx/YcxmOLzHY/kJ8d6ht5KQD0J06NKSVuwY7751qnTIarTIewituaL85oU1KfAxi/hRFC0BJzOKYxwlnjYiyoj9AYLf4hghDN7rQ9XbvUbeltHfVjN/eM/rFFQ5ASQi695yuzhpwIkZcCQMU7rwUW5OO5K9yPxffX95kOYRW/u78053EQnzOdY3+eEExKuryjOcpZrXGOqovQGC3eTXr6AlsAlLoXu8eyY2Dkh+q81t/Iyz1j85CosLTm03deOvPhA30/5wVAcNGiDwGfzPXzWoTSUfbUP2vY7rps1io0/2Q6x1CijmBqlcs7mmOcOS7OvPoITUVcDFilSSNYvfmMET9u1ZYz0CX/ahQrhhr3319Od83Wn1s4A8n/YI/4zTkh+Lm85qkbTOewSstzv/rPB2a/+5KkELzTdJYDcYWAFRXEAAAO6klEQVSgLiKZmHSZWuVR6wkcIUiF2uj+ApMTHtWekfPSrBx6tb+JKjfFzNrtw/r5e145gXtfPT7PqfJLww/WXjb7bw/1czkrcfQnTo2peOefgYW5ek7rDUro071rn3rAdA6rBGktlly58TqgqIYEDkVrzZ6MZlcqYFda0Z1RBZv9KgWc1RonYrcMLgsCzZIpf+L8KQ/iyqG3sg6Uw20vncLdW99R6nf/19116azPI8Qh3y45+78ML154AzDkTEPrsG2Q162bZ2f/W6OmtVhy5fPfBvFt01FGK6NgdyqkPRPSngrpzeOGPROTDgvrbUdmuRkT38PZ4x9jUeNmxsQ6AdiZquPJjunc9+qx7ByoN5zw8AjNVXdeNuvS4TT+kKMCILhowflCiNtz8VzW22nBZ91r1/3IdA6r9J175fNfFJorKMAmYPmWCjVtaUVHOqQjo+gNVE5K5JgUvGtM3B4rbJUSLQRfv/PS2d8byYMOuwDQy4+errR6nDweRVrh9sikmmhn/1u5svSK5z6sET+mzJbpZpRmT0bRkVZ0ZBRdaUU4woogKgUnNEepsWP/Vuno04JPrr109pqRPvCwCgD9helR5Vf/CaGPPpznsQ5C6O861z51yMkcljUS5/77xgVC6LUI8nrwuElKQ0+g6MwoujKKTl/Rk1EMtbhPCMG4uOTIuog9KtgqJduU1Odml/2O3GG90sOLFl6DYPnhPId1UKHUTBfXr3vZdBCr/Jzz/Y1NrtS3CcHI10mVKAV0ZxRdviI9uMQg7kiaY7Ikty22Kpm4X3vqw2svmTPqA8BG/YoPli86T2g94i4Ha/iE5mfy+nXLTOewypjWYukVG7+oBf8GREzHsSzrkALQ/zy/a/Z3VqwQh7Vb1agKAP35RZOV0k8AI99iyRo2KcUp4ponf286h1X+lv7H88dqwS3ATNNZLMsamoaNAvWRuy478olcPN+IZ7rozx7jhUrdhm38822dbfytQrnz8tmPOTq5UMC/AkMvlLYsyxQF4oduJDw2V40/gDviFDL8nkCckKsA1tA0+irTGazKsubyiQPANz5wxabbHNSPNRxjOpNlVToBT4dafPruy2c9kuvnHlEPQHDRgr9G8MVch7Dept0ZqL/VdAirMt192cx1jYneE4GvAz2m81hWJdLQrdFfbUz0HpOPxh9GMAdALz9qotLuk0BjPoJY+9H8s3P9um+ajmFZ53x/Y1NE6v+rBZ8nx2eHWJY1JA2sdvzwa2u+Nvf1fF5oWAWAXnGqG+7sfFDAO/IZxgIgkK6aKq5e/6rpIJa115IrNx6H1t8DTjGdxbLK2G9BfTWX4/wHM6wCIFy+4Pto8eV8h7EAxO3OdU9+yHQKyxrK0is2nalR/wIcazqLZZWRR4XW/3jn5XPuKeRFD1kABBcvfK+Ae4bzs9bhk5qTxPXrHjKdw7IOSGux9AfPL0GLb2uYZzqOZZWw9Wix4q7LZt493AN8cumgjbr+/PGNSmc2oBlTqEAVTYsnnOuftDOvrZIx2CPwHeBE01ksq4Q8oQXfXfulWT8z0fDvddACILx4wa0gbHd0gWghPu5e++RK0zksa6SW/PvzpyH5OvBX2N5CyxqKRvArrfR3114+50HTYeAgb9Tg4kXvE+ifFzJMhWuTA3WTxE2/S5kOYlmjtfQHz84glJdowaeApOk8lmWcIIVmjdDhv955+dwNpuPsb8gCQH9qboOKes/arv8CEvofnWuf+pbpGJaVCx+44qU6QerTAvFZYIbpPJZlwAtofYMSsf+6+7KpnabDDGXIAiC8eOG/AV8tcJZK5kutp4rrn9puOohl5doHfvDcMVLJz4L+KJAwncey8igt4L9B/vDOS2f8xuT4/nC8rQDQy48bq7S/BftGLRzBLc616z5qOoZl5dN7r11fH017HwUuALHYdB7Lyhkh/iJQt6Qi/i33Lp+/x3Sc4XpbARBevOAqEF8wEaZSSalOENesf9h0DssqlCXff3ayduWHhOZvsCcQWqVpq4DblNI/WfvlOZtMhxmNNxUAg9v9vgBEDeWpOBoeca9bZ++GrIq15MqNxwmtl2rEUtDTTeexrIPYpIW+Sypx552Xz37MdJjD9abTAJV2L8Y2/oX2A9MBLMukuy6d9SjwKPCNpVc+P19rvQTEucB8w9EsC+ApEGtDre76+eVznjYdJpf29QDoFae6amfnVmCcwTyVZods96eINRsypoNYVrFZ8v1nJwtHvBvEmRreA1SbzmRVhAHQDwkt/kc64do1X5r7iulA+bKvAAiWzz9HaPnfJsNUHvFt57onv2M6hWUVu3NueCzh9decBvrdWqszhBBHms5klQ+t9bMS8b9o8SspEg+suXzigOlMhbCvAFAXLbxbC95vMkyFyUjhTRbXPprX4x4tqxy97+rnx7mBOEPDGQJ9BjDBdCarpLwC4rdC6N9orX5z12VH7jAdyAQBoJfPrVLa2w1EDOepIHqVc91THzOdwrLKwfuufn6cE/JOqTgJwTs1LAKk6VxW0XgReEig/4hWDxXbjnymCNh34t//mA5TSaTgeHHtukdN57CscnTO9zc2ua46QWh5DOijgWOA8aZzWQXxqoDHEeIJrcXj2gv/svaSObtNhypGAiC8eOEVwKWGs1QMDQ+51607yXQOy6okH7jipTohM0fJUB+jBcdorY8RQszBHl5UynYILR7XQj0uNI/LQD265mtz7bDqMO1dBniW0RSVRuirTUewrEozuB/7Hwd/AXDu9za34ARHS8ExCuYLoWegxUzsQUbFpg+hN6HFJgFPK83jrus8vuaLM9pMBytlQn9hUbMK9E5sFVwo22XoTBU/fNw3HcSyrKG999r19RE/OlcqdSSII/5/e/cfGvddx3H8+f58b2tVak6mba0t6NY2jtH9+sO/BCfMP/zLobghIv2raleZIPiHMFzUTZEV1LVNYklHpZ2IAZ1uKmwywxR0HTWXruncD2pdOrM42l76O+nd5+0fl1TbLmnT3t3n7nuvBwSSI3zvmfyRzzvHfT8f4MbofouZdQNZ6r4cGwcfhXDQzQ+G6AewbHTd5JpDPT0WU8fljfnGOz4R8aHUIR3DeDDrLT2SOkNEFu7Tj7226N2V6dXRQrdhq8FWgq+itn/KSmAZGhDmUgUmwMfAxsHGwA/j9lpWCK9wdPr1wZ5btCdKExUi3Jw6ooNMhenKQOoIEbk6f3hgzRQwOvNxic//0jMOv7o8Blvp0VdgcaVhH3JY4bDKjOU4NwBF4LpmtjfQOaCMcQQYxzns5m+a828jjGE2fi6LY4uWdU8M3mvV1LHyPwUs3ozr1f8m+bkN7J9IHSEijTGzwL058zGvLz068p6z2eJipFJ0y4oQik4sghUDXoxOV8CLmBUdfx+Au1kwirPX8NogMfsHfInNvK/La6e5zm7rPmVweubxCnCi9rBFwydnrxWdspk7gGHHcC9HrGx4GUIZYhnLJiGWzavlQKG8uHq2vOubt526pl+aJFMwt4+29IHFORJcb/4TkZqZhfMUVzAsiDRCcFiaOqITuPO89Y8Mp+4QERGB2k5Z700d0RGC6b9/ERFpGQGdsNUMb2RLu55MHSEiIjIrgGsAaDjvtZ6hSuoKERGRWQEsL7eitKozISzSrX8iItJSAnAydUSuObtt2x4dRCEiIi1FA0CDBQtbUzeIiIhcLGB+InVEXhn8yfr+vi91h4iIyMWCO+XUEXkVtfGPiIi0qGDYwdQROfWv7Mja36aOEBEReScB7JXUEblkbLXBQR18ISIiLSm4RQ0A9Xc6TJ17PHWEiIjIXEJWDf9IHZE7Zrtsx+jR1BkiIiJzCXywa5Tzx0NKPYRQ2Za6QUREZD7BeoYqBn9JHZIXZjxrW196KXWHiIjIfAKAG8+lDsmLSNStfyIi0vICQLCoAaA+DmVvd/8+dYSIiMjlBAA+sK8ENpa4pf2ZP6Zb/0REpB0EAOshgu9OHdPmToZKQbf+iYhIWwjnPwm+E/B0KW3ObKdt3zuZOkNERORKnB8AbNvIq46/kDKmjXmoBN36JyIibSNc8JXZTxN1tDWD39n2vdpQSURE2sYFA0BWyZ4AdDjQApnx3dQNIiIiC3HBAGDb955z+EGqmHZk8LT1ll5M3SEiIrIQ4eIHsmr2M+CfCVrakrl/L3WDiIjIQl0yANReBfBvp4hpNwZPWv/IntQdIiIiC3XJAABQ6BvZbcazzY5pM8fNKg+kjhAREbka7zgAAFjky8CpJra0F+Nb1rtfuyeKiEhbmnsA6C8dwu3hZsa0C8f/FpaW+lN3iIiIXK05BwCAsLxrs2E6KOhCx7PA+tr2ySIiIu3JLvcNvuljN8Q4/SLwkSb0tLroFu8p9O57KnWIiIjItZj3FQAA27bnSDA+C5xpQk+L84e0+IuISB5cdgAAsN5Syd2+QgcfFmTYr0LfyCOpO0REROrhigYAgEL/8C4320AHDgEGz9iZri9aB/7sIiKST1c8AAAUeod3gH2dDloIDZ6xxe+6x3YOnU3dIiIiUi8LGgAAsr7hLcA36IAh4Pzi/6O/6v0PIiKSKwseAACyvtKP3exe8rxRkPGEFn8REcmry94GOB/feOetkfgb4MP1yWkJFfAHs76RH6YOERERaZRrGgAA/Ku3LnULv3D4ZD2CEvtPdO67rr80lDpERESkka55AABwsLjx9g3AZmBJPa7ZbAaDVrBNtmX47dQtIiIijVaXAWCWf+2OFV7xXjc+U8/rNti4u28q9I/8OnWIiIhIs9R1AJhVuf+2+8ztO0B3I65fJyfAfhIK1z9qW144njpGRESkmRoyAAB4D6E6cfvnDB4G1jbqea7CacwHwnT1+zawfyJ1jIiISAoNGwBmec9dhepbk1/A2GD4x5vxnHM4iPF4mK4MaOEXEZFO19TF2O+/c3V0Xw+sB1/VhKc8Cf50JOwoLBt+Tkf4ioiI1KT6bxzfuO7GSHa3wd0OnwKKdbr0AbCnIvyxUDjxZ9vy+lSdrisiIpIbyQaA/+c9dxV469i6amCtOWuAtY7dZPB+4HqgC1hErbcMHHMoBzjq8LIbB7Kq7WdJ9WXbvC+/uxOKiIjUyX8BeawtadLv8RMAAAAASUVORK5CYII=;" parent="1" vertex="1">
          <mxGeometry x="709.0300000000001" y="258.06" width="41.94" height="41.94" as="geometry" />
        </mxCell>
        <mxCell id="OSBObG9JWodtX16g0ous-52" value="&lt;div&gt;&lt;font style=&quot;color: rgb(0, 0, 0); font-size: 10px;&quot;&gt;Ad-hoc SQL Queries&lt;/font&gt;&lt;/div&gt;" style="text;html=1;align=center;verticalAlign=middle;whiteSpace=wrap;rounded=0;" parent="1" vertex="1">
          <mxGeometry x="685" y="310" width="100" height="30" as="geometry" />
        </mxCell>
        <mxCell id="OSBObG9JWodtX16g0ous-53" value="" style="shape=image;aspect=fixed;image=data:image/png,iVBORw0KGgoAAAANSUhEUgAAAgAAAAIACAYAAAD0eNT6AAAABHNCSVQICAgIfAhkiAAAAAlwSFlzAAAOxAAADsQBlSsOGwAAABl0RVh0U29mdHdhcmUAd3d3Lmlua3NjYXBlLm9yZ5vuPBoAACAASURBVHic7N15YFTV2Qbw5zl3JgnIFggJq+wgRFBkTcgyQAg7shh3bV2pba12tf2qLa1dbGs3bbXWutQVCYKAskMCJOybQgANi4iKohRBhSwz9/3+mCUzk5mQhISwvL+W5M6de889d9rMee9ZAaWUUkoppZRSSimllFJKKaWUUkoppZRSSimllFJKKaWUUkoppZRSSimllFJKKaWUUkoppZRSSimllFJKKaWUUkoppZRSSimllFJKKaWUUkoppZRSSimllFJKKaWUUkoppZRSSimllFJKKaWUUkoppZRSSimllFJKKaWUUkoppZRSSimllFJKKaWUUkoppZRSSimllFJKKaWUUkoppZRSSimllFJKKaWUUkoppZRSSimllFJKKaWUUkoppZRSSimllFJKKaWUUkoppZRSSimllFJKKaWUUkoppZRSSimllFJKKaWUUkopdZ44dOhQo08//fSeL774Ir6h86KUqszR0BlQSl1YPv744wSPyB0WeZ9tS9vS0tKvALzY0PlSSoXSAEApVSfef//9LqR1v8fjuZM0jQUAKRDhFGgAoNQ5hw2dAaXU+a24uPgqy3LebwxuIOkgDWgIQ4I0MIanALRu06bN1w2dV6VUBa0BUErVmIiwuLh4JMn7SDNBYEPEAPA+9UMIIUAIRNjIGI4GMKdhc62UCqYBgFKq2oqKimJIXv/ee+/9BGAy6KtGFEAoIAiRiEHAFGgAoNQ5RZsAlFKnVVxc3KykpOQ2GvMjQ9OBpK+aP7S6P9q2MTx+9GhSYnIyyxr6XpRSXloDoJSKauvWrZ0sy7r/5KlTdxqaJsFP+oFtIfwd/oKf+sNqAJq3bv1ZFoCFDX1PSikvDQCUUpVs2LC9p8Ph+RnAm2yB0wAQCECCkYIAX9U/KIDNTWJkISm/gJD+IMC25WZoAKDUOUObAJRSARs3bkwW4QPG8AYaOgwNQqr7w7aNCVT37zJkLoBXunXr9h4AHDp0qJBkKiuOPWlZVpvWrVt/2cC3qZSC1gAopQCsX7++n23jR7YtN5KwBBVP+kC0p37ssm3mGmPP7Nm9154Iyc4UQSq8x0KEjW3bngLghbN7d0qpSLQGQKmLWH5+YYpx4EFDjjUkaYyv4x4RcdvwS8uYl0XkX5dffvnbVaV94MCBNg6H40PSWEEdApe2aZM0+mzdn1IqOg0AlLoIrVq1qq8IH6JhToRC3ttzP6i63xjugTHPG+Df/fr1O1bd6xw6dGg5yZFBowJsh8NxaUJCwkf1eX9KqdPTJgClLiIrV65MFsGvPbZMIf0d9+kbyy/ebQEAgZAlBsgl8a8rr7xybS0v+aoIRnovBAhoPB7PdQD+Ulf3pJSqHa0BUOoisHDhim6WQ2YY8kYaGuN74id9VfOh20cMzd8B+6khQ4YcPZPr7vnss6aXlJR8RJqmQc0AO9u0SepbV/emlKodDQCUuoAtXLiwg9D6sUVMpzGxwQV+hKr/9w2tv8XEOJ4eOHDgybrKwwcfHPqHMfxO6ORAHJaUlFTbWgWlVB3QJgClLkALFy5s5rbxf7bgPgOJ81bte8fxe4fre6v7AcBADgL4dXlZ+QvDhw9313VeROwnRKxvk96ZgbyTBmE6AA0AlGpAWgOg1AVk1qxZVmxso7tA/MrQJHo79EWdsvcwLfPbxISEp5OTk+t1it5Dhw6tJM3woDyciouLbd+iRYtqdyhUStUt09AZUErVjdmz3xjtcMS8bYv9JASJAoF3ej7fLH4iEO/2KYj9cHl5WY/hmZn/rO/C3+efvl6A8OWoUVlZ2S1n4bpKqSi0BkCp89zs2bOTRfgoDcf4n/SjPPULwZmWxZ+OGjXqg7OZRxGxPvzww3eMMX2CaiCKkpKSLj+b+VBKVdAAQKnz1HPPzW3RqFHZb2nM3aRxmLCCP2z7PcvwW2PGjMlrqPweOnRoKmle9+fTt0pgemJiYkFD5Umpi5k2ASh1HnrllVduiI0r3S3AtyFwAAIRfxV7SNV/GQQPN24Ud0VDFv4A0KFDh7mAbJKKZgCI4P6GzJNSFzOtAVDqPPLsyy93ddryTxozxvcEXdVTv3/7sGVYIMYUOsiC7OzsraR3up+z7YMPPs62LFkS1AzgAdArKSlpX0PkR6mLmQYASp0HnnrqKWdcXOMfg3iQNI2iTdlbRRAQvH3EMtwo5CaHMZvLy8s3jx49+sjZupePPvpoMcnRQasEPpaYmHjf2bq+UspLAwClznHPPPNMGo31L5LJp3/qNzDkcRo2P11AEDwk0DL8AOTbNKbIIneQ3HX8+PHd48aNK63r+zl48GBXh8O5g4aNfXn4KibG2TE+Pv6Lur6WUio6DQCUOkf95S+zGjVt+uUjNLyXNAx56q/6Sf9tiOMm45R0IxxtLDOSZNPTTP8bPkcAaIybNAcNsRfG2mdR9hpj9oo4PgLKD+/fv//Itdde66nNvX388cffA/h3/7UA64GkpIQ/1vFHqJSqggYASp2DnnzyP/2NZb9EWn181eQh1f1B22WkiakcEOCFaVOnfgMAnnpqs7Nt2yOplsXRJEbTmP4kGT0IiDpVsDf9im2b5BEafkqYj4zBEdL6iDSfGiNHHA7HlyJyCsAJkl+KxJ1yOt1fXXrppScA2IcPH55Lmqt9QcCHrVu37kqyvGE/eaUuHhoAKHUOmTVrlnX06LEfg/gVaWIqP/UHCuPFhviNMSYWNEtJY4Ufa2junzLl6r+HX2PJkiWJts1sY5nRhhhOY9pXXStQ9VLBrGLbn+cIsxCWkqbcGDbxDwm0LPPNhISE/zbE567UxUgDAKXOEX/965OdY2LkBdCkV/HU/xksfuu2W2+d4z/v1Vdf+yWIGRGaBDykdc2UKRPfqOq6eXl5nT0epFmWGUYijcb0IStWDDxdrUAdBQQgTXHr1gm96R0ZoJSqZxoAKHUO+NvfHrvVWNbjJJsFCslKQYDZTNhTb7/99kPB586YMcP06NVnqWUwMkIQcBIww6dMmbixunlZs2ZNvIik0pg0Q6bRmIGkiatcyFermSB6EBAhIDDG3JKQkPBS3X/CSqlwGgAo1YBmzHgurnnzE/+iMd/wFogROul5C/PCRnGx426++eYTkdJ55ZVXkmg5NhuyQ4Qg4KjDYVwTJkzYWZs8Lly4MDY+Pn6gMY5UEgNo2J803Y23Z2LVBX7kJ/2qagX2JCQkXK61AErVPw0AlGogf/7znzsC1us0HBTxqbhie1eM0xp22223VTlMbubMmYNAs9rQxEUYLfCJw2Eyx48f/15d5L2goKBpXFyTK4xBf2PxCkOTTPIyGraoRdU/gqcHJnFj69atX62LfCqlotMAQKkG8Oijj2bYMLMMmRT9qd+A5JeG0n/69OnVminvtddeuxk0L0YZ93/I4bCGjxs3rt5m3duzZ087j8fT2xjTm2QPkp2MsS4lzaU0aFXNgGBXQkKrviTt+sqnUkoDAKXOukce+eN3aMxfjTFO+trQ/UFApWYAmjvuuefuZ2uS/mu5uX8i+KMocwR87LDMqHHjxu2qr/uL5uOPP25cXl7eGUBLAPGWZcWLmHhjcJsxvCKsL8D1rVq1eu1s51Gpi4kGAEqdJY899ljsVydP/ZPgHabyk36k7fXfvmd6ak3n7Z8xY4bp3bvvy8bC9VGCgGOGGDt+/PgN9XWv1bF37yeJsXHuJww5LbwZwLLM/pYtW/YmWdaQeVTqQqarASp1FghAZ/G7NzU+/sVYAN6V++BdtC94O7BOngA25Ue1WbRnxowZNun5BkQWSeRVAuMFXLJo0aKRdXJztXDw4MGcmJiynRBMC1oZMLBKoG1L16NHj97dUPlT6mKgNQBKnUVLXcMGfhV3ycPHOnfud6xTl3bijI1c9W9M4b3f/XbamVxr4cKFsSdPnsqlMROjTBtcboh7xo4d+0xd3d/pFBcXd7Acjj8bmmsj9AWwSWMq+gLwM5LdW7VqFXHkg1LqzGgAoNRZNisnx2r+0YGfgvj5V4lt5ItLuzb+sl172DFxFQUi+LllWQVCbjIwKxMSmm+qzbz7Tz31lDMhIfEZGt4Sde0A8JENG9b9fMaMGfXW6a64uLgZyAcMeT9pGkcYEviuiH29w+H4L2n6BfUF+G3Lli0frK98KXUx0wBAqQayNPXKKw2sl0QkWUiUtGqNL9u2x9dt26O0VSJgTHBA8Jmx8JzT4Xjq9ttv31/Ta70+d97PDPEb7wx/EUcILLQsc2tWVtbRurzHzZs3O5s2bXo3yF8amtYRnvqFtP7TuHHcj1q1anXi8OHDg40xa0lavn4BJ0WkZ0JCwkd1mS+llAYASjWohWO7xzpPNP8NBT9AUJ8ccTpxqlUCShKSUNI6EaWt28DTqDGMoU2a1x0Wf3Lbbbe9X5Nrvf7GG1kWzPM0bB9l3v+DlmWuHTlyZLVnDYwmLy/PkZiYeB2N+YWh6RlpoiDC7DAG3+/UqdOK4HM/+eTI32hwn6noEPhsfHz8HWeaJ6VUKA0AlDoHLE/tnyIwL5DoHvpHycAfqbtxY5S2ao3SpLYoTWxbWp6Y+Gipbf9u+vTpJ8PTmzVrViMALW2HI94p0lLEtDQOxlPYwxjzAxrGhtUA+AOCMkP8X0FBwV9r0yRQVFTUxO227zCG36dhp4r0QyYHOkjiF126dHkp0lj/I0eONBHBFhr29AUBHssyg1u0aLG1pvlRSkWnAYBS54hlAwY0Z5w8Q3AaEFT0B/2VBv/BitOBsviEUnfz+EOlbdq5y9t2MO6WLZvQWC0NWTEbYNjUvNH6AoRNyFPocFi3ZWZmFlcn7+t37EiKddv3kriHhi2jTA/8maH1O8B+skePHqVVpXfkyJErAawjTZxveOCG+Pj4VJ0cSKm6owGAUueYlWmD7obI4yBi/Psq/aEyuG6ggsQ4Ud4qEe7WiShPbAtPYht4WiWAxopc4AeaASIFBOYkgIeaNWvy+MCBA8srXUuEmzZtyqBl3WHAHJJxURYFescy5vHGjRu/3LFjx1PV/RyOHDnyHZL/CCxvbMxdLVq0+E/1P0mlVFU0AFDqHLQybcAQgK8B6BTyR0ocJWgBaBGyO8JfMn0/JS4O5YlJ8LRuA7fvN1olAA4HIvUFCOsXAJJ7LMv8OD09/U0AKCgoaGeM4xvG4m2k6RFllUAPyXmA9Xjfvr3za/s5HPn881wDXOMLAj63LOuyZs2a1WlHRaUuVhoAKHWOWpyS0jLWKn8ZwBjvXypB4GMSORmrN61fm5qa4HaUd6ewj1B6ARgMYAiBWF8VQUD4H7pYFuyE1vAktoGd2BZ2YltImzZgo8ZRAwJjzDLSlJAYS2MckZcCtjaT8iqA16688soz7rl/9OjRZrbIRkP2Ig1g+O+WLVpMP9N0lVIaACh1TpuVk2MlfHLgTwb8ftDuMgi+7yrY9ET48WtTUhqVOz0pMBhBwTUEeoUcENKtILy7IWC3aAFpnQS7dRLQOgmS2AZIbAPGxFRVQ3DYGD5pWdbM/v37V6vPQE0cPXq0jwg2GMMmJG1jzNDmzZtvquvrKHWx0QBAqfNAftqg20A8CSDWX90vxH+afGV/e+CWLZXa5/1Wpw+9CvTcQMNbACRFLPijfAv4dwstIL4FkNQWSEwCEtsBSW1hktqATqdvBj/ON4bPiMiSSP0FztTRo0dzAL5mDElya/PmzYeQdNf1dZS6mGgAoNR5YnX6wGFCzgGQ6N9HcGlMKXOGbthQ5XS5hZmDU4QsRNDffPR+A76tKpoQAACGQKvWMEltgaS2YJt2sNq0PWYlJs6CM/alK6+8sqDaN1cNR48efZQ0PzSGAPDzFi1a/K4u01fqYqMBgFLnkTVpg7rahksIdAfg+wuWHR6accPzN3xY1bkFrqHPA/KNKgt+Vm4WiHRw5f1BoYNlga0TYeJbHbPf3/cUSk5us0X2tIpp+W6PRYuqHP5XFRFxHDt2bBlJF40ptYwZ0LRp06LapqfUxU4DAKXOM4WpqYlup/stAgOBwB/xQVs4KnP1hqht8AWjhrWj270XQCP/PgIg5AGbPAwiETbbkWwNIImQtvDWNiSCkSoMGLpVxbeJ7y0PnDGfOrr1aGHatCl3tO0oVtv24mzb4YQjvsWXpCk1hscBuC3LOg5jygzwtX+hJN9iSYkkJ/s6H25q1rRpqjYFKFU7GgAodR5akt3vksaljXIBGRvYSXwKYnR63sa3o51XOHzwnwH+IPSJn4+mrlz342jnFOUkx5w81riDG1ZXwnQl7K4CdoWNdjRoC6Br+DmR5i0Ifyf4GDa+BFbrRDjadYSzfUc4k5LgaH8pnO07wLKs4AmK4J8XwLeK4s+aNWv2SLS8K6Wi0wBAqfNUUXJyzP8SGv8X5PWBzn2C/xH2mGGrNkXsJV+YnZrIcvsgiDj/PgIfDc1YfylnoFaz7BVmpyY6RfrCZjJoXw5wAIi+AJzRCvyIIvQ5YEwsnO3aw9m2vTcwaN8Rse07IqZdR1ixMSBZSvKqpk2b7qpN3pW6mGkAoNR5bFZOjtXus4P/BXiTfx+JL2wgKz1vw5ZI56wdPvR5EN8IeQKnjBi6YkNeXeVrbUpKI0dT9KeNwaTJEIgLQHzFBUN+VUOlI8XRrPkXjpatjjKu0e6S3TvnENxpx5XsGrhgS6W1EZRSlWkAoNR5blZOjtX+8w+eg+CWoL/o/9FjslJXr9sWfnzhyNRBRuyKFf8IUPD00JXr766vPMoMmK1r0/oDMkIgEwGkArBCj4pSW1CzbykbwAEBdhrBLhjugGBXbLNju5Nzi8pqmX2lLkgaACh1AZAZMOtWDX1WIN8AAn/YR41BxtAVGypVj68bMXQDiMFBfQGONY0/0eZsFZJbx6a39njsSQQeJtAWQZmuiRqc4gZYDKKItr1TgCIbsvPLsti9w/PztROhuihpAKDUBUJmwKxdNeQlAjcEjdX7wLaslLRlhR8HH7shK+VWEflvaMM7Jw9dvnbe2cjrltEp3UHzTwiyox1T7S+n2nyLSWCrDMBuQHaR3CFAEeF5p//i9e/XIlWlzisaACh1ASnKSY45frTZAkCyAd8wP8p2xCBz6KKKyYLyXK64RlbpYQAtgobwvThk+bpb6zN/eS5XXLM4908h8gAQ0hERAMoFfJ6QuwL7iVkCfkLYcQI0BYwTkBYg4iFoJWArAzStaT6kilc+/wNkm4DbjHCb7XFv2xff8b1rc3M9Nb2WUucqDQCUusDkuVxN4kzJCngXB/JWBpBLHcfKJgRPG7xhZOpLoNwUdOrRg/EdkuqrkNsyJmU0xPwjMIlRMHKtZdvT/1cWs7d5XLlvyWCC4G39F695vqp0Nw8Y4ERC4wRj2e1hox3BDgK0NUAnAbqB6AZBUk3zK5W3vgbwjtiyDcRmC9x4RUrh7tqOnlCqoWkAoNQFaLNrQEK5ca4BcVlgTn/wv0NXrLuNvhJtfVbqNEJmA0Hz/lsmY8iSwjV1mZeN41xtnJ7yvwtwbWBnRaa+APCz/imF//YXpNvGpB0H0Mz3/m/7Lyl48EzzUORyNSmNdXcj0RMGyRAkA0gG0AMCR03SkqCfAE4AskmEG0hscJa7N/RdseHTM82vUmeDBgBKXaDWulK6G0s2AGwZ2Gnw8NBl634BAG9n97uk1L7kM/hnBiRB4I+Dlq19oK7ysHV06jSA/wKRULGXIAARvua2rPsHL8z/JPicbWPSiwHp7p3WgK9dtWjN9XWVn3BFOckx7hMtL7cNBpAygIIBAvQDEBMo4iO2EFSQ8IMEBwGsF2C9wKze36zN29p0oM5FGgAodQFblzU0i8JFBByBsfeU2wYvW/88AGzMSp0HyiR/oQxg96Bla/uc6XU3Zw1obqy4x0D4+hQw6KEfh0CZftWiwkWRzt0+Jq0QRKrv5ZYrFxUMPNP81ERRTnJM+ZfxgwG4aJApglQAjYGgYr6KoCAkIPD+OgFBAcjVFM8az9GyTVWt4KjU2aIBgFIXuI0jU78nlL/7XxMosY2dNnTphi0bRg27k5Cng78IjJEeA5as21vb620bk+YSyPMEO4W9JQSedbvjfjhw+fLj0c7fPjZtLoDJvpfHr1xU0KK2eakLRTnJMWVftRwEiItAJrxzGFwCnD4giBAMAMBJIdbDltUE8o6XxazVoYiqIWgAoNRFYENWyjMEbgfgmzGYB63ymIF0lLS2aQLzBPhW/PnewKVrH6/pNfJcrrjmjdy/oeD7AEzIm8RhCm+7cvGaJadLZ/vYjKdICUxK5BEkXrVozWc1zU992TxggNPRutEPQTwMhPYfkMCPyiS0mSB48wQgK0EudtjW0iuWrj5Q55lWKoIadX5RSp2frEZl99olMUMAJAOEATrZzrKX3m/RcXyXLz46BiI+6GlgBIAaBQBbRqd0N3TPhuCKwE7/VATEW7bwtv6Lq1mI0z4S/GzisEx3AOdEALBtQprL8vCXArjCinQAoasihgcD/kYQAQBW1AoQaAZwsggmu+nB5tHD3jPCxR6RJYwrydepjVV90RoApS4Sm7JTLxfBRgYtByyUH1vACAErVhUEv9jfvF1CdTuubRubPhkizwNo7j098MVSRuIn/RYWPMbTdqWrsGNc2vcEDGqykFv7Lix4sbrn14cdE9Jcts1fAciIeIC3tN8skIMAp0V+O9JplZoHwg8roWClB5hjWWb+uVQTos5/5vSHKKUuBIOWrt1pwB/4X5OAAX8L0tchjd7/EC26nPhwwOnSkxkw28ek/R4ic0A0J71p+gr/TyEYecXCgr/XpPAHAJs84p3ByPvPNqZbTc6vSzsnpF3xzvj0RWIzj0BGULYCBLIMgqwrFhUMAs0J/5M+wZ8L8SsIFhM4xvATEfjEQxINOyxOiHGG+I/tsQ9vHjUsb3N26r0bszM61ttNq4uGNgEodREZuKzwX5tGp46lYJJvV4wIJwRXXQMAxRoBYGPlFLzezs6+ZPv6ky+CmBKhGnGL5TFT+i5dfahWmbR5hEYCGaJEmDionm0b4+rssORhEftGAkbCb1IgBOaB8psr3ioIrLpogCFCb8FuyLlXvLVmt/dw8J0xw3rCcDCBdAEyRNDLf16geSC0acC/6T2GsAC4BHQZuP++OTt1EyBzScw+k06b6uKlAYBSFxnL5j02JRNAc3if+ENqAn3TB48E8Eik87dPSGnv8Zycb4Crwt8z5FtfXeLOSc0tOFXrDBpzBEGT60mkmQPrSfHYIc1KrLgHIfZ9AGICQUhQbgRYTNgP9V1YuDn43M1ZWc2B0sv8r8tt+dy/TUCwuPBdAO8CeBEAisa52pSjPENsZkAwAkTvaIGABCVE7wEU70yPg0Xw+03ZqetIvhDj4Gv93io4VpefibpwaR8ApS5CW7LT7gbkqcpV0oGNr+3PSuLDx6tvH5fWk4JlAlwaeh5ByqyyT0/dfKZj3N+ekppolTuCZ9M7evmbqxOinlAHZAbMzk0Z3yTxOyB02uCK9nvJN8Z6KHlBfkGkNN4Zn5YF4TLfS0/fwWtiajJN8NZxqZ2MzTEiHANipHftg9A+AiFtKVJ5EiIBSiBcYGi/cKIsdrEOL1RV0QBAqYuQANyanZoHMhMIKfh9vwhjMPSKhQUb/G9tH5vRH7AXA0isOJy+x1s8994lbe6qixnvZuXkWH1OfVqGoD5Kttgt6+vJdsf4jFRDPiaQaP0e9gjtH/ddUPBmlelMyJghIr/0vpJP+71V0Ka2eSrKSY5xf9UqzRbPGAHHANI3YhAAQMJ6GAa9/BQir3jEfn7oig3v1DYv6sKlAYBSF6lNY4b1MoIdBJwAAmPYKoIB+XH/RYWPAsC28RmptO2F8PX0D3RcA0Dh3D1NknLqcrrbogkZRwC09r8WcvDlC1Ztqqv0AeCd8WnxDsv6gwjuREgtf6AwPQrIjFOHTz5VnVqNHePT8wC6AICw11z+VkHkEQO18PZYVwcbZWNFOAaCLADNTlsbEBoprBXyMXO0ZI7OQqj8dBSAUhepQYsL3yXxL3+3cwYX/gAAkw4AW8cNG+gv/L1V/RWFvwBrv2pSflOdz3VPHkFgWAGBOu4HsHtixo0OY+2G4C6GPwiRbiH+VuYw3ZPfXPOP6hSYB1yuOJBDK/aY3XWZ3ysW5X/Yf9Hap69aXDitqWmWKMJJRvASAO8Sz4GbqLiVsFEHqRSZabeMfX9jduqDhdmpiVAXPe0EqNRFzHY6f23Kym8hGTLdrrfMlbSto9OusISLBdI8+KkfAAxQ7IiNmXRl7prad/iL7giAZP/lyLoJAHZPdnUWkadEkA0g8MAcdFvrxcN7Ll+4antN0j3V2B5MIC4oMNpV9Rm112PRolIACwAsyHO54lrElo0W8FohJhJoKlLRbZDwzr8cdJ/tRPCwE/LgpqyU12yax4csC+3MqC4eWgOg1EVs4IL8z2nw28COwAM3AKClMVgNoFXwU7/vwbJMKDf0nrviaH3ki+CRsH4JZxQACMA9k1zfgi3vUJAdGM9fMbD/mJD39B6waljywvwaFf4A4DEYEbLDsN4CgGDD8/NL+i9ZO++qJYU3lTazk0BOJTgT4Nf+YyoN8fT+jBXiVoq9aUNWytp1o4ZOkvCaEHXB0xoApS5yTdDs8a/w5f0k2oe/R7JZyOvAhvyiX9D497pGI0ck9Om81gHArnEjOu1x2P8BkBWpjCNkthuO7/adv+JTzK/dNQwxJrSTnuOsd7pLzV13CsBcAHPX5qQ0ch7neANcL8BEAjFhNQEQEKCAghQjnLcxK2XbBsGvB69YN6+mkzep85NGfEopbB+T/n1Q/uJ/HV7dH/JFQazuO2jN8JoMcaupPZNcDwrk4Yqry5He81clVXlSxHSG3w7afwVCAxmfz0F+57I38madSV7fnehKcEM+RaBGVfYmL1jd40zSrEubXa4EiSm/hWLfKWSfytMOS1AnQgAib5P49aDl6+dqIHBh0wBAKYW3s7MvEevk+wASohb+sp74SQAAIABJREFUFU0ANsB1AiywLPN68vz8Op+FbvfVrukQ/AuoaJKwyho177Fo0YnqnL8vJ6u5u9TzpFBuiPQ+BW8KnNMvm7/s4zPNa9Ek180UeREIlJbPJS9YdfuZplsftmSnDbBh3w3BjQCaAP5hg+FjCAARFJH448H4Di/XeSdPdU7QPgBKKVyxdOnXAB8/feFPADQAhhF4RGz7vZ0TMjbsHJ/xwK4JGXX21GsgRyoGAHiVO0qr1Qzw7tWZ6eVl5e+AckPw3P3ef3ICgpt7zc+fWBeFvzevGBPaP4Jr6yLd+jBgacGWQUvXTi9txHYgpsM/3TPDxxAAJJJF8N+ORz/cvnZkypizn1tV37QGQCkFACgandLSbTk+AhAXVuUfeYhZGG9nM+4AOceGZ07f+Wtq3Q6+Z9LwYaAEZtzz9mbndVVV10tOjvVe+dGHAHkQgBXhkI0GvLHHGyv31TZf4YpykmOs0oRPBWjhf3q2hL17LcjfU1fXqG9bRg7p5zGOuwGZDhEHUKkmwIuy0Db8YerSdefNvamqaQCglArYPj79JSO4CUBIr/+qCn+G/gg+ei8Ec8Qyc/rMy9tYk/bkXRMyeliWeS/k0sKf95qX97tIxxfnpLeWcutlgKMivC0A/nQi8cSDA/9dt5Pg7Jo0fDwhb1ZcBh9fNn9Vh/Oh7bzI5WrytaM8m5QJACYI0LpSfwAgfJKhcht8wlNq/Sq9QNccON/pKAClVICx8TSImyIW/pVmzAk89Ye+rnjRHcRPjNg/2TMp88PdNHMp9txesYmreZo25dhGMUfc5e6QFGkijwQonjIyRcrtWQA6RMjI5xTe1OONlUurul5tWZRrBP6nZIKChedy4b8xO6OjgXuCgJNOocxFIC7KyICQBYgggQ2ngdzHGPfN60cO+eUpT6OndL2B85fWACilAgTgjgnpuyHoFTIvYFjhX9E3IELhz7DX4QGE4DMA80nOMWVxK3wT21Ty3uThJQBig3K3pucb+SHT6743dcS9EHmUQEyEJLZY5LSuc1YejHy3Z6YoJyfGKvvsEwDx/n02ZGqfeavm1sf1amtTVlpXY9nXgMyBYGD4tMHBSwkEjQQIfY2gpgDvioj+N3cZ2PcOWblxZb3dgKo3WgOglAogIDuA/wIMVLVHrvKP+tRfueAPT4NoDeAOQO6wY08d3zM58y0DM6eJp8midgsWnAw68jMAHYIii0ANQFFOTkyM5/MnIHJHlFt5ztFcvt3l+byS6Hd7ZqzSz8eQiA8qJEuNuJfX1/VqYsvolO6kdQ0o18CWAQCD2vIR8oQfND1A2MM+dgE4CiA94nHeHX1smOXrRgz9D2PlR0MXbajWKA11btAaAKVUiLfHDOtlLGsPEFZwC58npRXIEQAuAU7/1B+9s2DYcd4Xp0BZTMEcB/BmObmCwFXBOTj5tbNp4+anGtPtfF18BVNYmmUU3Ndt7sp/1eima+HdycPfAORqf6loA8t7z8uP1AfhrNiRndHRY9k3CuQ6CPv790tQo37lJ/qQxYPKQK4mZIHY5s3SxvJZzEn7bQG6hJ4TSDUkQVtwiIZ3p65Yt7iu703VDw0AlFKV7BifsYtE7+B9BG9PfnPVc0U5yTE4lZhOY4+GYAyIvt73K34CVXUWjHQ0woOIMgBuAI1D9gpvoZGHAXSulGnimNBM7TF7eX41b7PWdk1Nb+uwHR9IoBZVQBv39JyfX++BR7DNWVnNHc6SaRTcLEQmfEO7g1cCDJ7sp+J1YNdnABYJZIHH8iwNfoLfNCrlSRF8K+icVQAGiaBxVc0HAnm+zC79/vD87V/U7d2quqZNAEqpSoyRuSIMBAAEAIM2AJCcW1QGFK0AsALAT4qnujqUl9ujQTOGQBaI0IWFQjZOW/D7xQCMAcKbD+SFyocCAPYZI+O75i5/t/p3WXtOj3WrEI6KanGWi8jss3HtzQMGOJ2JjcaQuFlQOgmgdxGioFKfrHgZVq0PADtJvEmxFxQ377Ah0iQ/m7KHjRKR6UFtBe+edMeOcTrLWzpFfiXAbYBYkZoPCH4zlrHZa0YM/Vb6yvUL6udTUHVBawCUUpUUjUsbIsasB4La/IV/T34z//6qzstzuRzt4jFUbIwBMIaQ/iB9E46xOgW/97gqvpkqvUUUumPsyb1ezf+8qrzVFZkxwxS/vXoPID2CHnvf6jkvb0J9XvftMcN6GYfjDoH9DQgSIz/RB1XpV7xZBjDfFnuBoefN/ovXv1/VddaPHdLMcls7AFzqmyVQYOgavHTtav8xG4cPS7aN/QdAxkfrROgLOl6KNe7vDly+5Xjt71zVF60BUEpVcuSkY0vrJvZXBJoESmN6awCq4hsSVuD79+DeKdmJbinLBjjWAKMAtPalVaOCP1Lg4OMWyDxnqbkEwFkJAPZuWz2eRnoAvo5wAEh5tT6utTYnpVHTkphrALkTNtIhwghP9L5MABT6g4CThCwS4RyPJ+6tgcuXV7sAttzmLwAuDdr1dHDhDwCD8wqLAExYP3LIcAgfA3B5aJYIQiCCm0s9jtS1I1JuSF25bmONPwBVr7QGQCkVUdGE9GWgyfK/JmRVnwWrXbVNT2bMMO+9s2YAYY8hMAaCIQCsaAV/eAfD4HcifXEJsNVQZrlt++Uec/I/rG0+T6d4yoh8AJlBS+t9XWZJm+Tc/K/q6hq7r87oKx5Mt4GbAG+TSminu9BOeL5fx4V4Ex57jttZsnjggi0nUUObR6eOF8EC74QAAICPHeUxyf3z86O2528eMMBZ3tz5AwC/ANC4Ui2AV7kI/m9Y/oY/n8vzJFxsNABQSkVUNDHzFwB+BQSe7PYkL1jVu+qzqu/g+LT4sjjnKNhmNCHXgGjmvxZCNrwvon5ZVe5saAskj4JnTppWryfn5pbVVZ73TR05SCAbgaBe9MQzPebk3Xmmaee5XI7EZjIFIt8BmAnfRSKPxQ+EACcofENsvGY1Pbrc2z+jdraOTW9tezw7ACT5ryPCaYOXF86pzvkbsgd3sd3mHwKMC85sWKfDt8TtvEVnETw3aACglIqoaGLGCIArggrko33mr0qo6+vsnTrimwCepr9JMmT+oehVA9X88vqEwNOwHU92nrPk8BllFMDeqcNnArzO/1oEMOTgbnNWbKptmkXjXG3okLsATIegPRA+FW+lIOAkgDdBzmzyFRd1yc+vk7kOtoweNk9EJvmvT+HcgcsKp9Y0nbUjUnIAeRxAUuQARvbZFqdmrNhQ67UiVN3QAEApFVHx2PTW5Q5zBID/m6K8z/xVkWbcq7V900b8VAS/Y1hZX6ngr1mhH3KcrwAqEeBZ2PLH2s4MWDxteLIRvg3ACirUtnafs3JAbdJ7d2LmIBu4H8Q18M1kWEWHujIAS0jMRJyZX5fNDQCwJTvtbkCeCiqujxthn6uWFdZqxcTV6emtHTHup2HbV0epwfhaRO5KX7WxXvpOqOrRAEApFdXuiZmfCpDo77QXd4KN6uKJU2bMMPveWf03AvcCCKn3J+ARQS6J6yN3FqzAqoYLRFYO4D+2Q37V9dUVn9bkxH3TRswFMNl7A4HC+u7uc1c+Xd00BGDxpOHjbMiP4R23X3lyHd+Bvl+bQL7gEMzstaB+RjlsG5XRwzaebQAuqWjW4D0DlxSe8ZwG61xD7xTKXwVoAl/SweMUbMrv0/M2/Vz7BTQMDQCUUlHtmpiZB8Ll/6JwWrFJ3ecuPXImaRaPHRtrGpe+CEEOgKCnewJAOcCbxcgNRnyFbYVyAM5aFPqRfAnBH6WJ+9Euz58+oDkwbfgQgVknAINK5/+VWHan6jyNF48dG+uJK7mJYv8Qwj7hpV3wrHwCHBIbL9kiL/Z9a/Xumt5YTeS5XI5mseUFAIYE8kEpGJCyNpMzYNfFNda6UroL7RcBDA1cA4A/4KEtr8d9bd86cEvNOy2qM2MaOgNKqXParopNQsTd9EwS25eT1ZxxJYshyAERmBzIV/iXkswxYq2xBCFj6gm6LUt6O8h+BO8HsBBAqT+JSv8Y9q/yMU1BPIyvHe+8n5M94rQZp/mdL9mK5gnKP05X+BePHdvs3cnDfyaxJQeM4BnA9IlSq1EC8GWKjOx91arOyW+u+r/6LvwBoEWsewZ9hT8AECiFyF11VfgDQGr+ur1l0ihdBI8i5Enf+ykIOe1UE2tVwbBh7erqmqp6tAZAKRXVrokZD5B8xPuKsAz693wjf3tt0tozaVQ7h8OziEC/sCp/ACgxlKmdZ69cdOCakT8DELQYEQHglc65y28KTq/4prHNYt1l40RwI8CxqOm8JsHT4BPPlzud9/d4eVGlxWz25wyfRDHzwua+P1ke4+kUbfKhopzRLWPcZfcB+J4ALSrPxe+tC7chu0g+7XHGvpCcu+R/Ncr/Gdo6Oi0LkCUATGA2P/KhqxYX/Ka+rrl2xOAc2+az8DUJhK1TcNBDz5jh+Vv21Nf1VSgNAJRSUe2e6PomKM/5vyosmMye81euPs1plRyY5rrMI2YxgU4RCv+vhebqbrOXrRCA708bWQyiW1BVv9i2XNn19RVRe40fyHG1cdB5qwDfQegkNhFI5QZn7479Arm5c+6Kdf7dH0+c2Lg09uQuAJ0Ch3mryR/vOnvl98KTKc5Jbw238wcEviOQQG1JWOe+U6CdC/DpXnPzC6rOa/3YMXJIUrnTuR2QNv4ymODG46WOYb7JnOrN6pFD+hgP5gDoFWE+g6M0Znx63voN9ZkH5aVNAEqpqAwk0FGOBDwGcTVNo3jKyBSPmAL6ClFfav7C/0uIjOs2e9kKAPjgmlEjwgp/AFhYVeEPAF1y8z/pOGvZHzseKe8G8gYQOyvV+4dc2/+fwC6A6Epw9fvXZv3Iv7s87tRDCMq3r8WiFDb+HJzi+1PT2+6bMvzPxuM8QOKnIJpGeL7aR8EPYiDtes1d9Y2GKvxlBozbGfMCUTGzI4GTHsqt9V34A0DGig27HI0wGIL5Ed5uJba9oiBz4Nj6zofSAEApVQU35ZPggszAY9Xk/OJpIyaSshxAKwDhw/m+oDC765yKGgUb9p3hnfwIPFLd6zE/333pa0tndrRbXAnhHRR8GN4vIDQgqBQIOCj40/vXZL1yMCd7gAA/qJQfwb/8Qwk/nDKy1f5pI//ooXMvyB/At0wyfNcDKBQsp81JPa7M7NljXt5fu7wRfVa9s2Hb+rSfAJIdslPkp4MWF56VhZQAYOiiDSeGDd8whZC/R3j7ElvMvPzMwTlnKz8XK20CUEpFtWdiRheh2Q94CzQxmNh7bv6b1Tl337Tht4vwKcC7al5Yb/+jtrFHd8/N2+I//sMpI1u5HfwIQKx/H4GCTrnL02ub/48nTmxsNyq9TygPAGge/n7E6XUr9rklqF+BeLuvn3Azprun9ERJbGzc98XGDwA0l6A6bG91Or4WyEtCPN7j9byi2ua/rm0bn5EKj70KvvsS70yGy/ovKhzdUEPxVmcO/j6BRxHUF8G3sJEbwDczV296uSHydTHQGgClVFQURxmAivWAPKzWd8Z7k0c8KML/oFLHPALAEQAjggt/ACg3vBWhhT+kBk//kbRbsOBkh1lLf++wHT0oqLRcb3BgguC6AO8vR/ATEkkI8A8nym6Ji4nbL4JfIRBUBI78lJD/c5SWdew+J+9b51Lh/874tHhj26+CQf+bCL+w4L69IcfhZ6za+FcA1wMIH47pAPDf/MxBt539XF0cNABQSkVlOR3lwa9Ju8omAMnJsYqnjnjCGDyM4PK1olw9bGy6IrXp0yAwn76v8H+nU+7yhWd6DwDQNnfRZx1mLcsBzU0kQnrb+5sHKl5Hn3bQgPeI4M8CJITd1wFQvhNjnerSbU7e7zu9dW7NdS8AbRvPSlgHSRr57hWLNtTbwknVlb5qYy7JUQDCm0csCv6Tlz74jNdaUJVpAKCUiupk2cmQAMCmifqdUTx2bOxe9+evQHBP5CPkkMBkdp67vNL49oPXjhoGoA9QUe4a8pG6fjLtOHPJK07afUgzv1L5zgib4WP2ifjQc2QnyG8cPOrp2W123hMdc9edqsv81pW3x6Z/F75ZDIPuZ27/RYXnTPV6Wv6GAhF7BICjYZ+7MZSn8tIH3dxgmbtAaQCglIoqxpKQXuG07YjfGQfHp8Uz7tQyANdGTkkOWMaZ2e31ZcWR37ZDn/AM9neUFrNqkeXTEof1FQVHwNAVB8KbA6KpGJwoj3TJXdmv6+zlL5yN3vO1tX1sRn8CfwrbfbisvOyuBslQFTJXb95mUbIAhM+vYAg8tzJ94LSGyNeFSgMApVRUtsM0CSkLxVRabrZ4qqtDaYxzjYDROusVi9uZ2Tl36YFIb+7LyWouYEjgQOGfmJvrqX3OIzt04+jBnnJsE4o34IgUBJxmu6JDBH988JoRv9589wBnXeezruyZNKwpKTMR1LcC3i52dw5ZsfFoQ+WrKsPyN20XsUbA21ckmMOAr6xMHzy+IfJ1IdIAQCkVFSWmaWjhJ6XBL4snDk8W4VoCyYFDQh+ed1soz+w+b+mhaNcwwI0AGgOBgvYTT+Py588w6yEkJ8f6+PrsBy2RAgA9wqr1Q4XXAkSvDLAEfLDl/1oU7Js2qkedZbYOlXjMkwB6huwk/t1/cWGd9K2oL5mr1+0wHkQKAmIMJHdFxqDUhsjXhUYDAKVUdGKHzP0vpqKn9rtTXGliYQ2AjlHOfgficHWes+ZwVZcgEFr9T/6tOgv0VNcnt2R3OWx9uQrEwwI4qyjQ99fyEoMJe+u+a7Km1vL8evHOuIzpFNwUtvs950nHjyKecI5JK9xURLHHAgifnrmRJbJgVcZVvRsiXxcSDQCUUlWQkADA4asBeHeyazKFS4GwTnF+xJZy4YjTrRx4MGf4AABXBe06XuZ0PHlmea5w+MbRt9oebgdlWFXZAHgzwDPpcNiEIrP3Tx35a5kxo8G/V3eMGzYQlSfZKRHa1yXnn371wnNFxpotW4VmMoCQmicBWoptFq9ISWnfQFm7IDT4/1GVUucwj7QNe13y3hTXtwDOBtAo8klcb3nsrN5zV5y2jdkW686Qfv7kE5EW5KmpgzeOj//ohtGvieC/EDQLGUxQsekG+ZcYT/nlEJkMSLczvCyF8tC+navnFt80ttkZplVrRaNTWgpMLkLb/SGCH/ZfuLZWCzk1JNeqDXkUuQlASJ8QAS61rPKFBcOGndEKlRczDQCUUtEZdgoun21YPxbBkwCs0FnbAla73SXZ1Znu9pNbsi8B5Mag+fdOeSw70tSwNXL4xtHDnVL+NiHXenMmvp8VBLKJsAd3eHXJD0uN4zYQ1wS9GdggZC6k0tj0KlEwyTpVmr9/0sikM72XmpIZMB6H4wUAnUMzxdz+iwueONv5qSsZaza/TsG3w/cL0K+Mpa/Oysmp0RTVyksDAKVUVCLoFPLwTLmhipH5q8ocMv6y+YVfViftkpP2dQAqnpRFnu366opPo59Rtc13D3B+dGP2DFtkuQAd/YV+yPS+gq9t8KftPS1S2s9cvu2D60cNBPin4EMC28SLl85aMfVU6alLQf4UwDFfPkMvHOHzEKC/OOx1e3Nc3Wt7P7Wxc1PazwCE95LfX14Wc84N+aupzIJN/xbiDxHeGt/q8PuR9qvT0ABAKRWVEYmytG5oqUfIIkdzGZOcW/32ZaHcEfTSDVp/jnrwaRzOGdunzfFWG2HjlxAYBJf+FVHAXNvj7tVx5pI/MDfXc2CyqwUFs+CrKg9dFwAb7UbuuwHgsvmFX3aatewPHqCLCP4gQGAoZGitQsWG95LsAo9ZtXeK6/La3ldNFI3NGAHwV2G7Sw3s6wYuX378bOShvrlWb/o/AJXWoiDkh3nDBt4R4RRVBQ0AlFJRCXnadnGCb5Q5Wk+uSc/94mnDkwWoGMolMjPaPAFV5g/gR9dlfddjeTaDuDJSuS/AB4Bc3X7m0qkdc1d+5D/PEet4DkCX4MR8d/QJxTM1/H665S4/3mX28p/aYi4X4K2IuamsncDkFU8bnhzpzbqyfcKI9raFVwUIVIX7gpD7+i4s3Fyf1z6bCNgny8xNFNkFhH7iNvDEyrQBQxooa+clDQCUUhG9nZ19CSBVVmELMOt44vFrk3NzK00QVBVDK3jon7g9Vo2rcA/kuNp8eN2ot2zwcRFp5K2aD6n09wD4a4ynLLn9zGUha89/dF3WfQAnw39GRUlSZhv3NH+gEEm315cVd529YoLQvhqCw/40ELIRIgE2lu+bMrJnxHfP0OYBA5yWuF+DIDF4vwDPXblw9VP1cc2GNG7DhhMeG5NAVHQy9X7uMSJ4ZeGQIQ3WAfN8owGAUiqimJjSfvA9UQY3ewdVlb/Y05lw48B/bymvfHZ0B77piqPILYHOg8Sb3ecu3VmTND7IGTXJMs53AIwNzpeI/59sNsLBHWYu/UFiWLPEoeuzhwj4h7B7ASCwie90nrlybXXy0DU3b36Mjb4imBlc8oc0C1RcoI0H9oo9EzO6oI7FJTV+BMCwwJW9v7Y0P2lV6jR3PisYNqzp6vQhfVZkDMg2lkknsCHCYV3jHO7ztrPj2RZ9Sgyl1EVt16TMewg84f+aCF0xD//p2d81nTNm2DVNd9+0ETcQfMWfkIEM6zy7eoXuJ7dkX1JeZv9FhHcHZ6Yia/IlwIc62C3+EWkq4UM5o1vC2FsFoZ0bAYENPNF51vLv1PR+AGD/NSNyxMbTAJpHCQD8wcZe8UhKrwX54XPd18rOienTxGYuAPpHO8DGUQc9A/osXHuwLq5xthSmpiZKjKerx7a7UdDVNuhKQXsA7UXQEUBTwHeXIbEOgkaieH/akJRRhVvXn907OP84Tn+IUuoi1d/7SxBSxAL/7DUv/17Oy6/txDl3BVIUrO78evUK/w+uGzmopNR+iUBP7xA9BjLk+/J/wzid93Z4eVHE5W0F4CHaz0PQKXivr9Fg1ectjt1fy/tB19krc/fmuLaJx8wmcAUQsfAHgO60OLd47NisHosWlUZOrXp2j0vr6RY+i8BHCQDwkOaGPgvXnJOFf55rQEKMMX1sMZdR0AOCrkLpBkFXG+6mIgB9kSbDR1vUAIWpADQAOA0NAJRSkQnSJOjpWgSAkb9c9saqH9V2md69Oa7usOHyFryERXnktNnIybEO8osHbFtmEPAuvFPxvAsCh0Dce+lry+dVlc6ha7N+CGBixZk+xMFY25lT06aMcN1z8/ceyklJKfE0+icFt0X7iARIQ8ypZwS4pbaf4+aJAxp7xOR6JznypQqANh/ou2jVstrdQd1Z5xraWSxeRkgf2LhMRC4Toje8/SGClluIdvs1/lj+B8qnFPkIMBvtUnmmtnm/mGgTgFKqkqJxrja05GMwuOafAsoaA7MCBvN6zc17u6bpFk8Z8XtD/NS39u72rq+vuKqqQvDA9a7O9DheBJAWvN+XJw+M/OPUqZKHTjf3wAfXj0wXmysR/NDjvepJsZHW+fXl22p6L1UpnjL8+wAeBWCC+xkE9xSg4MGe8/J/W5v0d07MeB6Cb1Q8JAsEfLbfW6vP6lC4tSkpjawmJtn2eK40QD+hXAFBPwFbVGQtNOAK7U8SuTo/LEj7VAT7QNlLG/ttykcU86kN+4hlzMdfX3LsyLhFe8+oNuVipQGAUqqSnRMzbzBAoJ2e/g1U9AUQyC4L5qnyGHm2OuP/N989wNni8+YfAGhDAGJ4Q/fZK2ZGO37/tJE3k/gHgOYMbegHgK2EubtT7tItp7vu/htGJllubgXQLni/t7+g3NAld8Vrp0ujNvZOdk22DV+C4JLQQk78//VAZNRl81fl1STdnRMy7wLk3yEFqcgq65L/ZSfnFtVoNEZNrB87pBlsxwDLYw8UylUivAJATxH/0ENBxGCnegHAJwLsEshegvtg2/soZq/b8fW+4flF583aBecbDQCUUpXsmpT5bwi8s8eFlL2VOwQa4JhNPhLbQh6rai6AvVNHTAEwx/+ym9Xqskgd9Q5MdrWwHdaTBrg+/D0CXwn4UGfGPx7p3HCSk2MdxLFlAIZXepP4TedZyx86XRpnYs8010Dj4VsAEsMKf79PPOXon7ww/5PqpLdrYvpVtrAQQFzQ0/8+R0zMkOqsvVBdmycOaCwlzv4CDiQ4EIJBQvSAiPHdBYJuByE/qw4A/ic2dsJIkUB2ClAUa7hzyIqNdZZ3VX3aB0ApVYkIRgEVvcsq+gKEdggEABuIp8gfyr7A3e9OcX2z19z8gihp3lUROPDRSAV48TVZLhF5geKdyjcs+Jjvdpjvdp+59FB17+MDHPsNIhX+kLmd+qT/Elhe3aRq5bLX8zfvmTQ8gwbLEHnZ5DbGIS/LjBmjTjei4p3xafEinI2Qwh/HAU4808J/+7i0nm63pBBIESAFpZLs7aLhfV+CuhmGPM2Hb1fsKAewQ4CtJIqMzZ3lnvKijDVbqlwaWp1dWgOglAqxa2L6VQKzBQjurBX8q3ItQGAvxRaYGb3eyPtNcNv+vpysS223Zz8AizCHpSSmS3Av+KKcnJg4+fxhCH8EwDDoq0mAjywj93bOXTm3JvdxcNqIiULOk8rfc++cpGdYTaYtPlO7J7s6G2AZBN0jV4fLD3vPX/WXaOcLwKIJGfMATAwqaMshHN93Yc06/W2eOKCx8cQOhNukguIt8IHW3qf5oF4K4XM/VK69gHg/3FIBdgD2FtjYCmBL04SvdtRnc4SqGxoAKKVCFI3P+A2In/tL+OoGAaHHmZc+/sK+bXh+vhsA3p06YoYR+SUACPCTnnPzAgvwvDclq7eh/TL9ww4r0vQQ/GdZecmD1V1gyO/gtKyuNrEZkPjQd+QzOOzBXWbmv1+T9OrCrqnpbY3HWgngMiD4iVkA4JTYckWfN1cXRzq3aGLGT0XweyBQMAsgt/Z9a81Lp7vu5qys5pZVmgYjGRRk2JABEO9oitPMWYCQY7wHlNjEOxRugW1v9RhuiTlWtnNZthT1AAAgAElEQVTgljMbQaEahgYASqkQOydk7ALQ21u48xSALwnfNLOn6Q8QHAQI+EovZ8KtAFBc/vl+EJcS+MLjKbv0svmFXwrAvVOH30PwUQCNgtMgsE3A6d3mrNhU0/wf+KYrDl9bhRBc5d/nK8TKAGR1nb1iTU3TrCt7Jo1qR5avEqB7hAK3oPeAVZmcgZCmgJ3jM4eTskwAy/9UTvKBy99c9cdI19g80ZVguT1pBsgU2JkC9oOvo17wk3zFa/+uiE//e21gHYn1tGXdV+7YHf6gTp3/NABQSgUUXZ3eRzwsAvxV+lzYZ8CqiTu3uq6yYF8N4T0gWlUVBFScC0DwCGhWE7LQd+Bve85d+eD+SSOT3MZ+lsQ4hI41/ErIX3541PNYbQua/dNG/Btg5eVvBXd2nbOiwceHF03MutTQvQqQzkCltvPv9FmwKjCV7Z5Jw9q5bWsrgKTAccRjfd9cfZ//mOKxQ5qdNLEuCEYC9ggRJCPou/20w+4Cx9hfE9wskLUiZr3lMOuuWrTms7q6b3Xu0QBAKRWwc0LG74H/Z++846sssv//+cxz00MggAhIETEIhE7oLQlNAoiKZHVd2ypiQf26NnR/62arZXft4OJaUdc1iCggRXqvIi0UQVBQaVIEQtp95vz+uCXPvUmAJDcJhHn7ekFm7jwz57lqzpkzZ87BOH+HYFybL5b4C/Vsv6ZXDVtcD5B4gvAloTmjESAAdwNoTuC0Ylgz0e5uouRNv1fB/wCnK0uNbT553t6yyr/n+tTbhXwnuF+Al5tPmV/mTH+h5puhva+wLWuJAJcBcCrlo8rlatFq6vwjC5OTXZfE6gUA+gD+8/bJJ6ILbos7Hd5dIP1F0F8gSfAFdJfuHP9bCFZCuEqLvcLs7i8+jAFgMBgAAAuTk111Y/ReEg18fRrs2W7G4pXBY7el9W4hLusTAm09PWfxBAAg+DZE8kGO8TT9Y34UwUMtPls4pTzy7x7Zv51AVgKIDvroy71H9NDzTbltG9G3rQiXQFALKNyRU2R86xlLxm4e3vefFDwC+BW5DWC5QLoAiDqrGz/gQ2gR2SSQxUqsRQr2ivZfrjhUcW9nuBAwBoDBYAAAbBnWb7iITAP8ijw7d392fEkBXuuGd46OYey7AEZ5es5gBAAA5QSg4hx9mpAJyIv6fcKsWSfKI/u3owbUhK3XAkgI+ugbV15+96ZfLDtWnvkriqyh/fpQYY74YiA8d+bdAP4E4M8ISokvQVo/0I3vbMEGsEELFlvEIiosa3eefgeGqsMYAAaDAQCwaWifzwiO8LWVwheJ05cMO9Mz6+7uHBZzIHaaAFcH3Rk4ozcA4AaAY676bMGa8sotAL8dmfoJBNcHfXRcWdL9iskLd5R3jYok65p+oyDIDM6YBwS68EvMtOcZ6BZiPSGLta0W56n8pd1nrS6XUWWo/phEQAaDAeuv6dUQNoZ6SvR4tLQt+OhszyW98VXBxkGDbgiLyFsgRFcWOrI9Z9YOI8CrvLIVkPHjL/JSyqKFIXHJf3t9/99By/VB2xlbKDeer8p/36geUSdzIwYL5HoIhpdB+RdAsI6UxQIsjgiT5aW9KmkwGAPAYDDAVWA9CIrLV2WPYLYVpc5YXc9HWGRBMgSNissYWHhtzTdafjlx6amXUz7/KiTKf+d1/XuI6Gf8S/ogH02YsnBOKNYIFeuGd46Okdj+Qow6kYtrAakBoEiufG+Xs+VT/rshnAel5xXkRX6ZNG/eL5UjuaG6YgwAg+EiZ+OgQTHCnNH+bK8eI+Czs2XK+/ra5Frhtjwnou8GAtMGe9qB3gBPDgE2jD0Qey2AyeWVe/c1/S91Q0/2lwj2IsB7LT5d8FJ55w8Fm4b2jne51HBqDhMgTYiYINf9mZT/zwQWasg8l+g5rWeu+L4yZDZcPBgDwGC42HHl3gWgtldHe4wA0R+e6ZHNQ/sMpa3/A0ED3/Y+4HkAQtgU3gXK7wC0hXhMApIPoJwGwMLkZFeBZX9E4WVBCnRZQVjdu8szd3nJSkuub7lwrYaMBJAMDZegyJm956/AR3MhWC7AXFEyt13npRuCkwIZDKHEBAEaDBcxC5OTXbWj3d8AbObrI/BN265LWxWnfNYNGFAzIjLvRYJ3OMYHR/iBgAjlrsRpS97OGtGntRK1Fv7reYTS7HDVjIUbyyr3jhHJz4Ac5/wFJsD3FsO6Xjn1y0q/3rY1LbUpLH0dKCMB9ASgnNq9pF0/ic0iMpfamptjnVySNP2r05UmtOGix3gADIaLmPhI+0YRNAME9O3kBS8Vp/w3D+87CHb+mxA2RtHgPm/OH7834P8Spy15GwASP1+6Neuafi8TeBLwjLOVjAFwX1lk3n5NyjWgPBF4652nQIyoTOW/7br+LaDt6yEyErA7izP8wUsxu/5jAs4BZJYqkLmt5yw11fEMVYYxAAyGi5TMUaMsnNr//3xtEQHJo7CjJjnHrRveOTpMYp4RLQ/QayUUDe7zHgGIAMLfJ36x+BXnHMpy/Uvc7rEAanhjBK4V4H4W8YKfma3XpzaFrd8WCfA5iBB3tpxado/CuZI1PCWRkGGkHg7b3QsITMRTzI8AZDcEMyhqukQfXtLGVMkznCeYIwCD4SJl/dW97iT5ZsAvAeKvHWYu+4OvuWFovxQl+m0AlxdXDdD3o68l4DNtZyx+qrj1tl7T93UI7/E/ZqmkVp8t/Opc5d2TnByZWxMr/FUDfQj+0HLaor+e6zylQQB+c21qFxF9vYiMBHClt98/IGg8AORDsIRKZtgFrhltZy34tiJkMxjKi/EAGAwXIVmjEsPzT/IPvrzw3p38Sbflehnw3gwIy3mWou/3O/YLg/sAR74Af255Ja+2nb6kWOUPALZWHyvKPYDXYHDbwwCcswGQVwOvQtBRvBN4V//4qmmL/nauc5wLMmqUtS3vSC+KPXIHcZ1ouzEQ7M4PegY4BOALgfrCxfwvW043d/IN5z/GADAYLkJyT8SPVkRTX1sEoMLLSdMX/bzh6t69NU+/S43mzgh/wBHl788X4O0VeafN9KUP4Qy0SVq0ZOtX/Q4BqCcARHE4PClvz8q24cm3C+Uuf4fHCtlwSmr8trTHCMWx7u7OYTH7Y1JAjtyed2gEgUuFJe/0vV1fC+UL0prRuuPCtSZi33ChYY4ADIaLjHUDOtdUVuQ3IOr5a/IIjouWRFh8RBH/B0D5xtPp40fQLw3Pw5nboxv8On3yZPtsa28Z1m8yITd4nqWEu/WlCWcpObv9mj7tNNQq+PLle5Y9DMWurT5b9N3Z37h49iQnR+bF6UEaHAlgOIB4/4fFKHy6XLbr0gY78n/c+4rbrb5oP2vRD2Vd22A4HzAeAIPhIoOuyD9CUM8btec9AlAraGEBgKuKpvD1+PhZjDdABDMKDub8Jv2rsyt/z8N6uZAeA0CEeQqdAJSYsW/7Nb1qaFGZcCh/AAUQpreaVnrlnzUqORa5Oo3kyBxIGoSxZxrPqGip0bUna/Toi9hOXS0VGXkpyYmlXddgOB8xBoDBcBGxblCPlhCMDUjaQ0Cg0+jY2xdm7oOjTwK8AULMj8u2RjUroVpgcSjheu30JvDMBoAW10QBrgrqfqT1jEWLznXNTUN7x7uohhMcKbkyCGBkCcF7AAArJlZqdOvNGj37IrZjFzIsINFgbRGJJJl7rusbDOcrxgAwGC4iBOpFX+rcwvrz3s/o0fqFafsDAgS9XV5vANQq12l1bbNFi0qlCJXL3mXblt+4ELJjSWOzhvcdIyI3eYT0eh+ISW2mLX71bOtsu65/HSkoGApylACDBAg/U6CAVSMOsUndEdcrGbGdupCusJKGEsClAExaXsMFjzEADIaLhLUDe11DyNUidF6iLxAgrNAb4D0SOKM3QL7WEWpI4qwz1woojqumLd+/ZWjfbIg3J75Ip+LGZaUldxDRhfn8PdnzVkW6Y0pM87t5RN/GSvM6ACO1290LpFV0VGE5PVeteNTo0RdxPfshum0H0CpmePE0gDEADNUAYwAYDBcBy67pVYO58pqn5a33J4CAT5NyswBtgGBvgMMQ8F31I7YK1OBOny06XhY5CMgmyC4C7T0mBa/YOaRbXIKjdv3OId3i8pTOBBDpeHB/GO2RCTNm5Tnny7om+Uqx9UgQ18NGF/GXIioeV+06HqXfqx9iEtuDSp1peEk0LMtDBsP5hjEADIaLgIgc/XeBJ4WvL5RPgFW7azb8x5UnforyGQBFC/oE+AO+FbcM7DR32Rmj9s8GBbuEaO8zKXLDwi8HsMn3ea6KmABBguORAi38VZsvlv8EAFnDeyWKtoYBGC5a9zrbXSZXnUtQo3tv1OiVjOhWiaCy/AGNZaRBeR42GM4XjAFgMFRz1gzq0RNCT959b7leAjmieHv65Mn2moE9p1rk047NPgBnkKBAgH1E2IBOcxf9VF55BPg2IG1ugb4MXgNg49De9wnk5qBsg/cqYc6WYX2fgeB6rdHCOVlxuC6phxq9klGjRx9EJbQESI/S99c7kHM1AvIBhAf1GQPAUC0wBoDBUI3ZOWRIxDH38f8IoAKC+0Se6vLlih0A0HXuig3rBvXYA1HNAhLse4dTcNAiBrafXfY7904E8mNg5UDVCAA2Du/TiTZeAAqzDQI4KcAfSLtpoLIvqrxVjTjE9uiD2N6p3p2+AklnzkLP+mdW/ocArAGwDMA8ABEAlgeNMQaAoVpgDACDoRpzrODY/wPY2rOL9+6rBQuTeq98BfMcA8mpEPmdJzCP/sh/AkeFalD72Ut3hE4q/hjU0WjdgAE1YedlChDhPIIAUINADX+X04oBwIhIxHTtidheyYhu1wl0hXlkL6xsCNJ/sFF4xFHIjwAWAVgCYAnJ7c4PRSQKgBuBvytNDIChWmAMAIOhmrImtUdP8ZXgLazZe9ii+k2RtLW2mgqlf+dpCLw3BU7a1EO6zF6+CaFE9I+FSYQJgI3CIvLehKC5V8oiOPU+XWGIat8J0b36ISapO1REpMO9H6zsg1S+yH6QywDMI7mcZNaZRCWZIyLb4Y2R8FKn1O9sMJyHGAPAYKiGLOvVq4ZQvw/AAgrz/Yjwjk7zlhc5x+/ce9mKdSt6HSCkvqdHTtsiw7t+uXJNqGVTtvWjbXnsD/H8kw6NWMARbhi0TRcA4Vdehdg+KYjp0ReqRhwIBuQoKLK992z/d8Pjwl/mdrvnRkVF7SmDyOsRaADUKsMcBsN5hzEADIZqiCtSXhHgCjjS+grwUrd5K74o9oEMCAbqrwUcAiJfUUZ2/XLl4oqQza3c9QHl1NX+dLziuKcPAK669RDdOxkxvVMR1qAh6Avm8wYn+nf7ha5+AZApIlNFZElMTMz+EIi8AcCtjrYxAAzVAmMAGAzVjBWpPa4D9O2eFr3KkV/Fxv8yrrjxq/p3u3Stst4gMASALZq3dJ63YnYoZdo4qG8zsXQ6BLcL0NKfV8CHI9EQw8IR2TEJ0b2SEdkhyXttr3BokXP9wDZFcAOJBiQb5+TkTCnjrt/JzqC2MQAM1QJTDdBgqEYsT+3ZVEGvB1HbEWd/XNvo0nPRyl3B49cM6J4OcAKAOiA1gNu6zl3xQShk2TiobzOt7BtF8CsQ7Qs/YdFfPFSISGyLqF4piOrSHSo83BupT++u31eMiELyOxLNCj9HoWeA3qiCwrYQWKqUeicsLOwTkqXOXigirQBsDeqOJZld2rkMhvMJYwAYDNWEmUOGRMTnHVsKoIu/k3ATktZ9/uq5zrFLh/aOD8+zxwO4yTMMIpT7us1d9e/yyLB+YK+GopAO4EYA3QrFCMLboeLrILpPKqJ7p8Cqd6n/XL9QmRdpf1u7dvyVx48f7yzkrQq8kUS9EpR/QJvkSQDvhIWF/ZPkvnN9JxGJBJANR4lkAI3IIrcZDIYLCmMAGAzVhBUpPV4D5X7A4U4Xub/7wtUTnONW9e82EFBvE2jkHyjyRLf5q54vy7qSAbVuZfdUwrobgmvhqy1Qwm8XpRTCWiYiqt9ARHTqCuWySlL2RdpKcXJ8fHy6f22RsJMnTw6BUndTMISE8hsAwd4B+H/OJ/mhZVl/PFdDQET2Amjs6GpzthsEBsP5jjEADIZqwLKU7ukK8jEAZ/m+13ouWPWAr7GiR48oK0b+KILHACjf//4Uyei2YNWfSrvm+oG9GmrILSDuAXB50RGOfH4ErEvrI7Jbb0T0ToGrdl2/a79Q2Qe3izUGxtWuXfu54uTJyclp6na771JK3QmwQaDyL9YYyCH5olLqOZInipvTh4isBNDd0dWbZHCCIIPhgsIEARoMFzhL+3dtQS3/KczcJxDh3HxEPuwbszKlezdQJmmNFs56AABfLo3ylwyodcu6p4LW3TbkOgCuwNzBAVUDwbAwhLXrjMi+qYho1QZQyhEBUFiUyJd3WARfE+wYeJ2vcFIRWV+SbFFRUd8D+IOI/Dk7O/smpazHASQWHzToeQTAU1rrW0VkNMkzBT4eC2qbQEDDBY/xABgMFzDrBnSumeN2rVREK0f39nzJ65GyaMPxrFGJ4b8cjc2A8HF6cwL4IGVit/mr72WJGfWd6/RuomnfBcFvQVzmncHxZyBW42aI6NMPkV16QcXEFLvTdwT5HVWKH9q2/XajRo02HDhw8DiJmsUEAWrLsurWqlUrWBkXi4jwdF7eUCUyjmSvs8QJCMk3ATxcXHCfiHwI4NeOrhtJfnwuchgM5yvGA2AwXKBkjhpl5R7e+xGBViJ+V/t+bemhKfM2HF/Rt0fbX37WkwB0gEPLexX2B936rL6P88+s/Nf079lFE4/YsEdCPL8v6H/Cs6g/q190NCKSeiCidzKsJpd7lGzJewytgZUKnETigwYNGpwu/Eh+BFizmJx+W89V+QMepQ5gBoAZubm5AwD8AyIdirlT6PtaRgPoJiIjSH4XNF3wusEFggyGCw5jABgMFygNDn3/vBBDfPtwERxVWg3eX7fJ98tT+LjA/jPACMBzLOAZRggwNU9H3lEkHbAXyYBatbj7MCo+oiF9i2TTdYylAFbjpghPGYDwTt2hIiIK9avTte919VNhr4h+17b1O82aNfuuhFf7SYDWhXl9PAl9FbCiLN8TAERGRs4Tkc4FBQW3APgLgMbBRYG87XYAVonItSRXOaY4HjRlRFllMRjOF4wBYDBcgCzr2/U2AX7nL+8rchrkCFJOXnb4+/kC9mNxSlvL3F+iat+UNmuWO3jOmUOGRNTKPf6rVUtlHBVaOX0GfvvB94flQli7jgjvlQxXq0S/a7/Yc30wXwFfkpjUuHHjqSSLrB3EyYBzf3jsAIGUK+iOnjwH74nI5Pz8/KeVUo/Clyo50Bi4FMA8EUkjuaSE6YwHwHDBYwwAg+ECY1lyt95a5A1HgZwcoYwA2doWPQtgLAA4Nv0+lkTUcF+bNn1WnnO+Vf27Xaqh7mfesXtB1PVn6fMH9RXu+VkzHmG9+iG8VzJUzVqeMcUoa297s5BvRYSFfdCoUaMjpXhF52z+v7TWZfYABExOngYwLj8//zOl1JsiSCymOnAMgOkiMojkahT9XWkMAMMFjzEADIYLiKW9u7bQWqaCCPeq5RyCY0TwMEXSxLvrdobniQAiWEO3a1jS9NX+s/alA7pcoTSf1FpuASUiKEbA7wAQAFbzBIT1TUVYu86gywWSnr290KGuBRSeoMJHSvHtK664okyFhLQGlfK6/v1H9PJDvXr1imQyLA/h4eGrRKSzbdsvAbynmCFxAKaJSBKAsODHQymLwVAVGAPAYLhAWNKn4yWaMgNAXXo0fR7IjwXyAoC6AAqVdqAhsDncJWndFi8/CQDLBnRuQtv1CGwZAzDCs2sPiBHw/OhywerQBWHJA2E1buKIlfM7+n2iiUCWUfBmbI3YTxo2bOgI6Cs9pCif38ERBLioPHOWvBbzANzrdrtXkXxdRKIY6A6oB+ATeAoCOTExAIYLHmMAGAwXAAuTE2NFu2YCSAD8VfNOUHC702EO+I/ePX3EjjALA7vNX3NkeWrPplrs38ON2wUICwiA8z0rAtapC1evZLi69YKKifVuwX3BBgGxffupMElEv92qZatvQvi68YVHCT5PgCwK4fxFcLlc74nIRhGZBaB+0MddAWctAwDGA2CoBhgDwGA4z8kcNcrige8+FCAJCDjTv0S8B/YEg0/OAWCfUq7BeQUF4Uv7dXtZa/fdBCKdRwPO+Xh5c4T1TYXVrqO3Ap9vF16o/AFogSyg4I3TOac/S0pKKgj1+wpQzxFH4DFORBaGep1gSG4QkX4A5gNoFPRx8I4/+EjAYLjgMAaAwXAeIwAXH9zzBsBr/H1Fg/u85+8A4Nuly09QuEXb9uOKvBOQCJ8ed8YIMDwCKqk7XL2ToS6t7wjzd0jgPOcXPbZtm7avV9wbAxDULXRjEAT21bv00t0VuqYXkt94jYAFAJqeYaj53Wm44DH/ERsM5zELeyU9R43f+lzhAapZgo0Az58UaIDboTFHIJ48AIGDgJo1YfVMhtWjNxgdU7jbLzmi33fu/3RWVtbHiYmJRyvifbOyssIBxDuS/wBSMef/JUFyt4gMAbAKnkDA4rArUSSDoUIwBoDBcJ6yoE+XpyHyGACfH9y7GXcmr/H8HWQIKEBSAz0C3nH1G8DqmQyV1A0Mc6FIrr2gNsl1AJIcdkB9rfFPAL8N/RsDcXFxTX0uB58BQlXx7v9gSG4TkVsBTEXx2Y7PlsvAYDjvUWcfYjAYKpv5PTs/AJE/AUGJ+sWTtEaCMvh6r/ohaKhnnAjY9ApYt46G66FxYLeegMsKuOYH/+X/gPbanJyc/gIccH4O4vasrKz+IXxdP5ZlXeGXwfuH1npRRax1Nkh+DuCdEj42HgDDBY8xAAyG84z5vTrfBeJl8WhwAD5l7sCTGe/MhoBlgR27QD34BNSYB8FWbSB0RtYBAmSXoPw1ibHdu3c/IZC/BC1OEUxct25ddMhe2ovW+opC5Q8A+L5+/fp7Qr3O2RCR1iIyBcAdJQwxHgDDBY85AjAYziPm9066CSL/hi+Uz5dWFwh05QOOq37i7fMq9/BwoHNXoHcKWLuOf+7C63sCEMsBNZ5gS4g8XbT8Lt/p0KHDGgCwCwr+o8Ii/g9AgiP5T/PIyOjXAdwW0i9AqSud9wxJVanufxG5XGudISK/IWmdYajxABgueIwHwGA4T5jfo/Mo0TJJxFm217HPF2evo+ltSGQE0KMP+PCTwLDrwfjafneAd+xp0fKm1qpj9+7de8fGRk8R0aOd03jHHwP0k75+z1U//ZQ4PAUAAMqtWVnb7g7V+3uWlzYOaSrN/S8il7rd7le01jvgMWrOpPwB4wEwVAOMB8BgOA/4skfnUUL8F97/J4sG9/mMAAbc1BMAiIkFu/YEevUFIqMgLFKEdxfB17XtfqdPnz7+srYnT578Faka+OYpDAKUJzt16nzYOUH79u0/2bhp0+cARhSOBwB5eevWretat269PgRfAyho76wAiApOACQitfLz8x9zu90PkYwJrhDoGwagAIHJf4wHwHDBYwwAg6GK+bJHx5sIeV/gcTkHX/UDSjAE4mtD+qQAnZIAV1iw0tcQzKLC+F69es7xVsILgOTDnhkDkv0s7NSp0xvFyemyrHtsW/cWoI5jfKQIJ2/atCmpXbt2x4p77lzZvfvgpYD7Ur9Mgt0NGzb8vjxzloSIRObl5T2Qn58/jmRtb19weWAhOR1ABoB/w5MR0IfxABgueIwBYDBUIXO7d0oXYBIAy++up7OUj4cAQ6BWPKRPCqRTV0+gH+lMCnCUwNuKeL1Pn94lJs9ZsWJNfxHp6E8g6LECTgMymqQU90xiYuKBjRu3jCXlI2dyIFCucLnCP9+3b9/gxo0b55T1u7Asdztn3AMVFpV1rpIQEZWbm/ub3Ny8v5BoUtgfeJUSwAySGSS/8j4XnPEwDwbDBY4xAAyGKmJO9043C/EeACswuK8EQ+CSerD7pgBtOoKKgM/V7wnaWy/C8RERYR/17NnzHJSw/qO/nI9f+/H3SUmdvz3TU+3bt/nf5s2bRwC40bO0LyhQ+pw8mf2RiIwkWSb3OGm3Fyh/8iEJcfrfU6dODcrJyXkeYHs6Mhx5Xt/fnmnbKiM8nGuDHs8Pap8IpWwGQ1VgDACDoQqY3b1TOoB3RWAVOdNHoCGg612qpWc/Je07glRgYUGePAg+Edjj+/cfsPJc116+fHUqKX3gW8NjaKxMSur0yrk8r7W+SymrpUA6MNATMGL79u2vAyhTYCDJdoUtgdahOf/Pzs7uKCLPkRxYUsIjEcwBkBEWFraqhGmCDYCToZDNYKhKjAFgMFQys7p6zvwBWIXBboFp+AWA1K2Xp5MHREirREWlvOfTAgH3KXAiIW8OGND/YGnXJ+WPQYrwtFL8bXFxAsXRvn377K1bt15ri6yF4BLA77gHwNHbtu042bJli0dLOkooCQHaOzbmOxs1avRDaZ4P5tixY00ty/qL1vpmksoTVxDk6xeZoyzrz2FhYStKOb3xABgueIwBYDBUInO6dbxBAM9VP3/CW8BpCKBmzZM6eUAN3bZjBBR9gWkiWhYK1PjISNe0lJSUMgWhLVu2LEUgfemo6yvEY0lJSdtLM0/r1q2/37Rp6w1UMleAcEccAUj87ptvvokVkXvP1ajIysoKh6Cl40xjUenerJDjx4/HA3iKVGMBRPo/cHr9RWaIWH+Njg5fc47TBv+uNAaA4YLHGAAGQyUxu1vHkRr4iL7/73zX6n2GQGTUcXfKgBjdqWsNUvnS+J8kMMl2q/HDhg3cVp71RYTLVqx81nnuL8DM7l26lKm6X7t2rZds3rz5JlJ9DKHLWTQIwrt37NgZu3DhwtvOxViJiYlJBBDu8yWI5pLSyrNnz57I+Pj4sQCeAhgfqPEBUjTAz0TkrzExMV+Xcvrg35XmCMBwwWMMAIOhEpjVpf31Io9+PvsAACAASURBVPIRSFfAOT8AcbkOu5MH0U7qWpeW5XWlyzYC490FBZNGjBgREmWzdMWKXymwq0P5H1KQ35bWVe+kbdu2n27ZsuVWkO8DsByZAkHi1w0vu+ySrKysG89ePVB1DLgBQH2uO3OIiDp27NivAfxVRJoCRFCQnyYlUwR/i42N3VLGVzUeAEO1o7gqVwaDIYTM6tL+eiH/ByDMH9dPAFRH3F26/Wz3G3AVwlwgCYIgOX3YsLQR5VHMwcycOTOiRlytbYQ0Iz3HCiSu6dGjx/RQzL9ly7bbqOQtkpb3HbxGAEFwF4kRCQkJW0t6fu/eva8BuN9zs4FHGzW6rO65vP+RI0cGAngeQAfPmr7vECDpBvkRgb/HxcWV6ogjGBHZAKC9oyuaZJmvPBoM5wMmFbDBUIFM79r+OoFH+QP+BLe5iI79R84jT8a6UwdfJa7grLP67VAqfwCIqVFjLCDN/CuAE0Ol/AGgTZtW7xG4AYLTgD9dke+FrwSwcteuXb8q6XkR6ViY7phrz/b+hw4d6nDo0KE5WsuXItLB/6jnjwIAb4lIy5pxcbeWV/l7iXf8XGCUv6E6YAwAg6GC+KJr+2FK+D8BwgoL92Cem2yX88DDH8JyRQRU8/NU+MvPycmZF0o5lixZcgnB3zvqAuzIjol6JJRrAEDr1q0/A6Q/gMO+heD9QYA4Efxv165dk3bu3BnnfE5ELAHa+8aTUqL7/8CBA80OHjz4vgBfARzkqF8I0cgD5HUACbVq1bqrVq1aZ8xpUEqcBkC5Mh4aDOcLxgAwGCqAmZ3apUIwGZBwABDgqBaMSVu9YdDw1Rt2ilg1i1H+AGRTenr6qdBKw+cgEu9dpoCQWwa3b58d2jU8tG7depXWdk8INvv6ggoZ3UKlNu3evfsaX8f333/fAoIY32g3sDp43kOHDtXfv//AqwC2C/AbSMDvrhwIXgF089q1a98XHx8f0vTBIhImIrGOrgOhnN9gqCqMAWAwhJgvOrfrphU/E0GkAALK+1pbVw1bu+ENX0VfEanpf8CpIcldoZRl8eLFPUXkdv8KxJ969eoVnOUupCQmJu7Kzj7VncS7wRUEva/aVASf7969Z9r333/fGkAn36cCIMKy/B6APXv21Prhh5/+5nbbuwAZCyDc4Vk4BeCftm03q1u3zkN169b9sYJeKR6B8VKlzr1gMJyPmFsABkMI+aJz27aanEmgBgQ7lZZ70tZvWhA8TpQOC7iLD6+G0QiZAZCZmWmJYDzpz667bP+PPz4bqvnPRFJS0mkAd2z/5pslELwMoEZhsiAPAhluaz2U4D5Hbp49DRo0OPzTTz9F27b9AJV6goD/Sp/3PU6J6FdtW7/QsGHDnyvhdeKD2sYDYKgWGA+AwRAipnfokKChvoQgSsA/qV+y2xan/L348+U7jwJEEDL3dd169e4H0MHbPCHavjU9Pb1Sy9i2bNHiHa3tdiLak9ffERfg/UsBaFpY5VDW7927917btneBfBZSqHwFyIbwea3tZvXr13+qkpQ/YAwAQzXFeAAMhhDwWZc2jUXruYBsJ3Dv8HWbzxZ5bnvy5Th2xQKIkpCUmZ0/f35TCv7q9y4QD/Tr229PKOYuLa1atfpORPrv2rXrHgB/B6SW776/L/NfYZvXARjpLQfs+/w0wH8r8rn69S89VNny27ZdWynlLBdsjgAM1QLjATAYysmn7drVU7b6gMTTw7/anDr8q7Mqf1iAu/ggQATfCSw1njL2aiKAGp4VmNmvT59J5Z23PJCUhISE1y1LtRRgkvOeYGCQoChHOweQl/LDwpo3bNjwkfr161e68vfSUEScbeMBMFQLjAfAYCgHmZ0711SSfzMZPnL4uq/O2SXtdvOosvw60L/dVcJyG+ULFiy6jcRg7wb6B0vhnvLOGSq01kLPNboCAOFBO32fJyBfgImAfrZx4yY/VaW8ACBko6CMacYAMFQLjAFgMJSDmgUF7sGbNr9Y2ucsSx+UYoIAReSS8sizcOHC+lrLC+LJhqe1jdv6JPep8nvrWVlZsVZ4+P1a5CmCcZ6SxoFBgQ7ClIKcOHGyss74zwhFGgdUEDQGgKGaYI4ADIZyMHjTpjLdp7dt2+/ODjgKgFxVHnlsW78h3qA1Cl/o379fSUGIlcK6deuit2/f/oTL5fqeIs9C4E0C5Pd+nPT94HD9U0QerBEXt3Tv3r3NK13oojTy/eA9CihXmWKD4XzBGAAGQxWQnp6eQ+Dn4DgAAC3KOufcuXNHAxjubW7Mycn+f+UQsVxs3769xrZt28bFxMTuAfisALUd5/wiwGyIpJF41qH8C7yf+9pdSa7/4YcfbqmKd/AhIo28fwPAEZK/VKU8BkOoMAaAwVBFaEFhZTpvEKAArRcuXFjqo7n58+c3B/iCV8fmEnJzWlpaXsiEPUc2bdoUn5WV9bRt6+9E8AyAeo5kQCdJvGbbdquEK68ccuWVV84SkU6+nb8IniIxToA8h10UJ8CkH3748ct9+/YlVPb7AADJRo4YwCq5SWEwVATGADAYqghCPAZAYNmbuGPHTvYqzTyZmZmWbev3BIj1zvdEampqVojEPCc2btxYb/PmrL9Rqe9E8CcAtT2iCCD4EZAnXC6rcUJCwgMtW7bcAXhuKwjQ038aIGpR06ZNn1NkEsCvHccEADBQKbVp//79f9y5c2dEZb2XiMQJEOevOSCyu7LWNhgqGmMAGAxnQEQoIhVSNlsEW4IuwwECWBbTSjNPzZrx4wTo5Z10Tv/+Ka+GVNAzsGnTppYbNmyaSKrvBfIUAH+hH4FsIXCH1vYVLVu2fL558+YBrvM9e/a0BdDA2zy+d++3GwCgSZMmWw4fPthNRP4sKDwWABCpRTJiYmK37t+//1YRKfeVybORn5/fGIFXAI0BYKg2GAPAYCiBSZMmxQCeO+wVMb+IvRQIDgIERPQ152p0zJkzp69AMrzNn23bfUdFyetkw4YNKV9v2DBda9lK4m4BIuF39XMRiaGtW7Vq16pVq3cTExPzi5vDrfXgwt2/np2SkuJPgpSUlFTQtGnTPxJIArAKCCiZcAWA9w4cPLhl//5D6SJSYb/HLMtqEtRljgAM1QZjABgMxTBhwltXARWn/AEgPT19q4gU3nMvjANoOW3atMFne37OnDn1tOAjeK/zEnLP1Vdfvb+i5N25c2fE+vXrb/nqq6/Xa5EFEAyD9xo/IDaEkwHp0qZN65TWrVvPPOt3pzHK84MAwPTihjRu3HhTo0aX9dLkWIgv+M4fJNiSlI8PHTq04cChQ3fu27cvKiQv6hRRa78BICLQWhsPgKHaYPIAGAwOMjMzraNHj6aS7uW33nrn6QpfkFwAT3nbgLTAIupxALNLeiwjI0Nprd8HVUPvA58MHDRoSkWIuHr16mZKWWN++eXEb0FeQgog9NXHOw3R75DqhXbt2pyzcty1a9eVIugCAALkEPiipLEkNYDxe/funepyuV4W4AZn8iCAbSl4MyIi4rnDhw+/5XK5JoSqJLCINCEJEYAEXC6XMQAM1QbjATAYvLzzzjuRh48evaF27doLxowZU/HKHwChpwdVzPU2dMrnn39eYjBg165dnxRwkHf8EctSY0Mpl4io1atXD1u9eu0XpNoF4AkAlxTKh8MAM9zugqYdOnQY265du1IpRtuWWzxTCUTj0+D4gOJo0qTJTw0bNhwlmqmAbPQH5hUOqQPgcbdtf/vzz0fmHzlyZPSJEyfqlEauYEg2caziBrCvPPMZDOcTFRLcZDBcaLz44ou1wsMj73C51GtjxowpqKx1MzMzo5Ry7QdRkyQIegrOECC5Iz8vt2N6enqO85mZM2f2E3A+ScvjMeAtQ4YM+iAU8qxevbqZbcstSvEOkJd7RPHJRJD4FqJeAOx3vSV/S83ChQtdl13W6DsQl5GEIgc0b958fmnmEBFr//79d1GpvxC8xCOeV0ZPFkRfu4BQ85TCpyIyLz4+/rvSrJOfn78YQF9vEaAdYWFhLUvzvMFwPmMMAMNFz6uvvtpQKddDtl3w9IMPPljpd+c/+WTKmyDv9BkAXuUPr3J85Zprhj/kGztnzpx6Bbb9NcGG9OTTnZGWdvXwM81/NlatWhVXoPUNCuo2QvrQszgClb9aqyj/2L1796flLSm8Y8eO60h+Cs/7fde8efPmXjd/qdmz51it6Oj8JwGMBRkdpPyDjQEQ3EVinlJqvsvlWhMVFbX3TPPn5eXtIXm599/HFJfLdUOZXtpgOA8xMQCGi5rXXnuthUD9C9A3VYXyBwCt+a6ycGdx5YE15IHPP5+xdsSIYR9kZGSoggL3ByAbegoH4BSg7y3LmuvWrQvLzc0dIMJbCtz2tSSjAA2QcByvayrMsIkXe3TpvChErwsAj/qKAAn4blmVPwA0axZ/HMAThw8ffklr+b0Ao0lnkSH/2/iKLl0J8EoRuaegwI2TJ0/+THK9UuprrblJKdkjIt/FxMTsFxErPz//Mt9aIrKlGBEMhgsW4wEwXLS88NpriS7hVEUZNnbs2G+qUpZPPpmyHGRP384/wBOgWKCAMYC6DMRfCo8KZFxaWtpz57rG9OnromPisq9WwutIDCUZD/96jl0yeQyCtyyLE7p16xbSa2/bt29PBTnf61nQtu1q3qpVs+9CNf/+/fsvtywrg1Q3k3T5d/8OT8A5tnNJ7CXZwve5Ukx3uVyTQyWrwVDVGA+A4aLkX6+91sLSMpeUe8aOfaBKlb8H61lATwNQWBrQh0aYEG+DoukvHSjfnDp16qxVCBcuXFhXaw5RSq4TnhpMYbTvs8Kdvvh2/psV+Fp4mOuDsp7vnw0Bfu/blJOYFkrlDwANGjT4DsDt+/cfywgLs38H8E4Bop1fp2f5wi+5hHYkwBbOz21bGw+AoVphPACGi44XX3zxcirXUpLTH3pw7H1VLQ/gyTg45dOpGwi2cwQBBgcF+s+0lWJaWlrarOB55s2bV0dr3RdQyVRMIdmG3u0tHbt9RztHEVO0Vm/27dtzcUW+47Zt23qCXO57J6XYMyEhYWVFrnnixIm6BQUFY0neT7JuCXEBQe1CT4A3+A8k88LCwmJJus+8osFw4WA8AIaLimcmTIiXfPcXBMK0XfBUVcvjg6R8+umnD4tgvsARBwDPVbmANjE9LS1t1vTp06OVimhN6o602IFAb9vWbUgq/3DfBXYEtgl8JZC3tNv9Ud+UlOOV8Y5C+nf/Ilhc0cofAOLi4n4GkCEizxw7dux6gneD0s//pRQbJ+CQufDr22GUv6G6YTwAhouGjIyM8LiateeQSIbCbx5+8MEPq1qmYD759NOPCaYXdyPA0f6GZA2CDTzH0wzwDpTcxs8APwKst1JT+2yszPfaunVrd4Ar6AEk0q666qoiHozK4MSJE1dprX9LqhtIXHGOcQH/DQ8Pv7kq5DUYKgqTCMhw0RAbV+tlQJIFsuL/Hnjgv1UtT3G4lHoUYG5QeYCARPgAWkDQIKCKgPfzom3ZD8EEiO7/88+H66emJj9Y2crfU1AJL8J/uUA2tmjRosQshxVNXFzcjlq1aj1Rs2Zcc6VUBwB/EmA9IP4dfnCKISHN+b+h2mGOAAwXBf944YU7CNwDAND4Z2UUzDlXMjMzrwSsVCr2d9s6hWCkJyjP6/r3uc3hzH7rOBgo0uZ3AvmMxJTly5avyMjIKPM1u1CwdevWXwPs7hFVQMHz58v3HxsbuxHARniOCWJyc3OTNDCOIlc7j07EttdXmZAGQwVhDABDteef//xna4ia4PGgy7eXNWo4rSrlef/9KQ2scHd/BaSCKhVgU/j1oe9o+ixxAHCe38kPArVSQRYocv6gQQN2VsZ7nAvr1q2LFsGzLDRgtrZs2fLjqpYrmGPHjtXKzs6+XSl1DwRXBcYBiERERKytOukMhorBGACGas3EiRPDTpzKft9zrQuwoV4ubya70vLhhx/Gi6hkWkilsD/obuWJO6MnGU5Q8p9StL8npHdaWtoPlfk+pSEiIuJxAI08LYFo9RTJSv3+z8Tx48eTlFL3krwRQLTW4t34+4oyASR2kTxalXIaDBWBMQAM1ZpfTmY/SaATKBChDV3wUUWvOXHixOiIiJjeSqE/yFQt6EiKBU1vEb1Cn35hUT2U0D6jMdBUCwcDeKui36ksbN68uTHAxwC/6395YmLLz6taLhEJO3HixEgRPEyia2E/QMeNAF9bBGuqSlaDoSIxBoCh2vL88883h8iT8JVzBdY8+uijP4d6nYkTJ4a5XFHdaCGVkP4kuxMS7lHVwcq+xPZRIVYC0ohg+yLJgIpPawsQz8+ZM2f64MGDD4X6vULAeADRHuVPgBhXlcIcO3aslojcffz48bEgGxc9Uik+ORBJ4/43VEuMAWCotgjUSwQiRcR7lQshuXaWkZGhGjVq1F6EqVTsT6g+oI71b99L3Nn7lb0IZQeAlSCXK8jKUaNu2LZo0SLryJGjux3DziUIsHZBgX4BwG9C8W6hYtOmTb8WwXAUfg/TEhMTl1WFLIcOHbpSKddDWuvbScYG1wkIsq02CfCTMwhQa208AIZqiTEADNWSvz//fC8Aw5yZXEgpswEwYcJbV1mWO5VUqUKmaGEd+jfjPrd8ifvI0xSsJblcNFe67fCVt912/ZHgNT7+5JNhCmzMgDkBABsFyCMc7moUGhgkbp45c+aXaWlpk8r6fqFk48aN9UT4MnxGjyibCpWedOngwYM9lVKPAbwG0CpQ2Qco/3yB/hTg+Bo1aizLzs4e75imICoqakNly24wVAbGADBUSxT45yA1ap84cWLTuT7/yiv/aWRZdiqI/opMBe1GAv9RQqEC8dsXAdv0fRBZLsRKiqxo3LjxhpSUlLNmkaPIfQCLVgQU/B6wtlhh9noIahcXFwDw9S+++OLroUOHbj73b6liEMEroNT1XkmEQP6dmNgmq3LWFh48eHAYycdB9nae6xdTIfAHAhMtS70ZGxt7wDFNu8L5uJlkTmXIbjBUNiYToKHa8cwz/+pIpdcDATnd9zz26O+uKOmZ1157rY7WTAGYqhRSQVzlPf/1HR8guO3JzMcCkl8rYqUIV2jtWjF69G9KHZX/v//9r4VSru3wJMpzZv5bNvL66/oAwOeffz5UwOn+bHpFM/99A+guaWlpJ8r41ZWbr7/++lpSTYX3+yF50LbdLTt27Fih6YazsrLCa9eufRPAx0gkFmbyc+T597QFkAVKqQm1atWaFpzeV0SYnZ19jGRNgFCKr0dFRZ0X9SIMhlBjPACGagfpvl+ksJALAIiWXc4x48ePj83P130ApFJJf7ct7Uko/331ksPzf4bISoArbSXLabvXjRkzJgSV81wP+GvyOYIERdHvOh8xYsQXn02b9v8A/K2EZEAtQE7OzMwcnp6enl9+mUrH+vXrLwE4wbnJJvFYRSr/w4cP18jLyxtNqodF0Chgtw/AcQzzC8FJInpC3bp1t5c03/Hjx5uGhYXV9D0lgqUVJbvBUNUYD4ChWvHCCy9E5eYVHCIZ66zmBvIti9YkQPcHmUqyG8mwYqrjOdua5DZCVgqt5RRr5X333bkj1DJ/9NFHDZVyfQsiMrACIGfeMPK6ocHjP/98+lskfwuHpyDQE6AyV69ecVNlZgAUEa5fv2E6FYeycPe/uF27tikVkfVv9+7dl7pc4Q8qhXtBxp+hwt9mISdQ5IN69eqdOtu8J0+eHAnyE8/XSZBsFB0d/WOo5TcYzgeMB8BQrcjNLRgMItbfUVj97k6BvrOIxSsC8Sl94BQgazS4XAlWFhTkrnz44YcrvFIeaT0pkMigzH82RT9Z3PgDBxrcU7/h/iYEBxSOd1rzOr1r955HAdxbcVIH8tVXGx6kwlCHt6RARN8fauW/b9++K7WWR0jeTkqkgMXdjswHZSqpJtSrV29JaeYXke6+oksisjMmJsYof0O1xRgAhuqFQpqzkE5QytzghLrfCblCASsVZfnRo0c2Z2RkVGrJ1w8+mNJIYN8VnPxHgW/ccMMNxQYtjhmTVDBnzpxr8woK5kDQq2hQIEDIPbPnzJFVK1eOrWhPwNq1azuC8pxnffquML7YsUOHkAX+ffvtt0mWZT1u2/p6kpb/36XjbqSAPypgostlvXnJJZfsL9tK7O77r4bk4lDJbzCcjxgDwFC9EPbx13Lz3v/3ki8a66GwUoHL3QXWyieeeOCnKpPTCy33OACRgcmBeCw/P/zpMz03ePDg7JkzZ6bZtswD0AVAMcmCeG/Pnj3rZGZm3lJRMQFZWVmxp3Ny/gcgAoXn/ttPnz6dEYr5d+/ePQjA4yD7O29cOJS/ALJQU01o1KDB58FBfaVBRMJOnjzZuTAToBgDwFCtMTEAhmrDs88+W1MLj8F3U89xrg/hgCeeeGR+FYsYwPvvZ15pufQWkhHeGwUgAUX14KhRI189lzlmzJgRL+Bsgl2DbgQ44gIwNzcneuSIEb1Phvod1q5d9x7IWx1n5m5tqd5J7duvLuucCxcudF12WZNRloXHAXZw3CjwnvEDBE+QnKS1PeHyyy/fFop3+eWXX7qSXO2LI7CUahIdHb0vFHMbDOcjqqoFMBhChZtMQDFGrYhAKR1XBSKdEVr2S/DtnAF4PRdbjx79+d/nOsewYcOOhYe5Ukn5MvCwXRwnIRwYFZWzbt68ea3LLbSDtWvXjhXgVjhWEsHzZVX+O3fujNixY8etjRo1yiLlvyLo4Jzbu8IOAuO0tps2adL4gVApfwAQkYGAd0WR3Ub5G6o7xgAwVBuUjSZFOsV3HKBqVrY8Z+K///3vcAL+CH+vuhZN3D9mzJiC0sw1ePDg7Ojo6BEEPvNOFqg2RSBACy1Y+eWCBdeEQHysWbOmnxa84FxMgM1xcbF/Lu1cO3bsqLtjx44/aq1/APmeCFr4ZvR8KygAkAlI8uWXX96yadOmzzVr1qwigjMHepc15/+GiwJjABiqE0WUvE8RCnWtSpalRN55551ILXgJQKCyFrx906hRi8oyZ0pKSm529qkbCLzq3PsHbaDjaOvP5s+f/0xmZmZ4WdYBgOXLlzcVwWQAYQ7lXyDavi0hISHvXOfZtm3b5du2bXtFa/lOBBkC1A0S/ScCGZalml5xRbNfNWvWrMKU8qFDh2JJ9hCvxQFgUUWtZTCcLxgDwFBtIBHlbIs4XdOMr3SBSsAVHv4EgCsKlb8AwEGl8Hh55k1PT7fT0oY8COFYAG7f9jnwhAHUgnG169RZtWDBgsTSrrFu3bpo5XJNFeASv3fFs8pTXbp0+fpc5tiyZUv7LVlZH2otO0XwAIAYCXRbLAIk/Zfjxy9v3rz5ny6//PIyRvSfOxEREf1EEO47ACA5t6LXNBiqGmMAGKoNGiwxIx9FJ1SmLCUxadKkNtB4Mkj5g5D/S09PPxqKNYYOvXq8aAwn5Xig8ncaA+wognXzFiz4XWZmpnUu84oICwrcb0PQEU7jCvi8S+fO/zrb81u2bEnZtGnLLAG+huDX8N5C8ir/kwBfV4ptWrRISElISJiclJRUqqOQ8qC1HuT7WUQ2xMTEVLjRYTBUNcYAMFQbFPhLcf0iAg2WercbajIzM8NBTgIQ4VT+EMy88cYb/xfKtYYOvXq21joJwEbfIsUECUYS/FfdS+qtWrBgQeezzbly5crnBfhVQNAfsCc/IvyOkhL+ZGZmWl9v2jRq06ZNa7SWBSCuRkCSZdkGkbEul9WoZcsW9yUkJFRK0aBgSA70G2Pk7KqQwWCobIwBYKg2aC3fF+317bBxVUZGRpXmvTidm/s0wI6BvTxOyj0VsV5aWtq3kRHh3Ql5KzgoEIHtJKXUmgWLlkyaN29eneLmWr58+X0CPuoZ7+/OE22P6tOu3bHg8du3b6/x1YYNdye0aLGVWjJF0MVv9Ag0wBkkBrZu1SqxdevW4xMSEqqsgNGRI0caiUgrR1eZy0YbDBcSJhGQodrgcslOW0PDYdgWJo9BRHhs7JUASiwEU5FMmjSpm4BPODL1wZv8Z+xNv76pwq6bpaSk5AK4a/aXX64C8CIEsYVVi+H/grRAkXKLyxU2eNGiJRki9n98JYyXL19+o4CvOsd7c+U91L1796+c661evbGZy6UfyD6dcyeJOO+lfS9yAKL+Y2v3xA4dOpxPKXYd7n/8EhdXY1VVCmMwVBYmEZChWvH3Z57bCEc9dwCOZEC4e9y4x/5T2TKNz8yMjcnJ/YpgC1+yH2/Rnsm/+c1N6ZUlx+zZs69UynofZPfiiwg5iukobqfIOACnqKyZJMODPn+hR7duj/jmXrt2bS9APUziWpIWHPORXEZivMvl+jQxMbHSqxSejWPHjn0CYKQn/S+m1KpV64aqlslgqAyMB8BQvRBZDLJd0W4BiGEAKtUAEBG+O2nS2xC2CNz5ywFlSaXWmb/66qt3LVy4sE9Bgf0UgD+A4gosJ+zwDGi0BPkZSBuA5XSlgJjcvWvXxzZu3BiTk5N/MxXuFUGHgFK8ItlU/FBra3znzm2LrWlwPnDgwIEYERniM1gAmPN/w0WD8QAYqhV/+9tzKVRYENzv3Ylm5+Zk183IyMitLHneevfdR5Twn4XlhuHNYs9ht95688zKkiOY+fPnd9WC90m2KKkksn+372yDy0h5kLTuIHEryJqO8r8AuYOQ1wG8m5SUVGxQ5vnEkSNHbgA52ecN0Vo3rlOnzg9VLZfBUBmYIEBDtSIhodkSQEo6X46JjI1NqSxZ3n777X4Eng2Imff8/VJVKn8A6N+//xptuzsJ+O+AhAkAnPf7g9viOdf/CpAHBKjpDeqzSXwGyKCkzp1aJSUlvXwhKH8A0MANviuSADYb5W+4mDAGgKFakZ6ebhOcWOIAW26tDDnee++9ywT8GNp3zOa/jbA2MjJiXGXIcDYGDx6cPbB/yr0k/lGcsi+uTZF28NYcBGBD5FnLUld06dLlui5duswt6Trg+ci+ffuiLGft9QAAIABJREFUKBjqeNvPqlIeg6GyMQaAodrhcqmJAE4F93s3utc///zz9Sty/UmTJsW43fZUCC4Nuu9/HJBfVVRp3tIwd+7cmnPnzh87b978LVq8GQgL0/p6fzizMQARC1CdAVRawp5QEhUVNRhArKNralXJYjBUBcYAMFQ7HnvssUMQvubsc3i5wwXq0YpaOzMz08rLd39UeO/dJwCgKaNvvfXWPRW19rkwe/bsTnPmzH1DhD8C8qoAiT75gtIG/+zvBorLHeD7YaDb1htWr179axG5oGKKRHCDIx/jd/Hx8eeUythgqC4YA8BQLcnPD3sOwIHiPhORe1944YXLKmLdY7+cfBkiwwPO/QUQ4Su/ve22TypizbMxY8aM+FmzZt03a9actaD6CsRoQGKKyQz4PcFnFdFORMYXN1eQD8DXrgfww7Vr1y1YvXp9+4p6j1Cyc+fOCECGAf7s/2b3b7joMNcADdWSjIyHjz/zzHOPCvBB4CcCgNEFBfoFAL8K5ZpvvPHmo4Dc779a571Up4GldkFOhXkdiiMzM9OKjq4xQCncDvBaASJ9t/iCrvQdhujJVOq/KSnJK3xn+IsWLX4jOFlQ0RxGCL5CmExlf7127dqpSqk/de7c+by9/lerVq2BAGp6riwCVGIMAMNFxwXlsjMYSsvfn3nuvwBuAnzX2ByJgRSue+LRR0MS+PX6G2/cqMAPASr/dT9Psp0ftXZ3Hj169MFQrHM2pk2blkhaN4O4hWSjosl+CBKnQPUZLP43XKm5vox/PpYuXRrvtvVhklbAdUCoMUqJAHwaZKMzXhckBcQCinpt9+6d09PT0+3KeP9z5eDBgx8qpX7tSf7Dg3Xq1L6MnpwHBsNFgzEADNWajIyM2PCI6LWAtAQKlb/XGDjistjxkUceKVcq3gkTJ16rwEyCYUH3/fNEmDx69B0Vmlp26tSpl5OuG0ncRKJdkLL3Ked8ArMBfuR2508bPnx4iZUTFyxYnE6Fj4OU+/fRUZEJSUlJBQsXLowMD4+6H5BxSrFusPIvNBj87f0ApwBqcseObZeR1BX5fZyNQ4cOxQI4ADCGJJTif+rUqXN3VcpkMFQFxgAwVHv+9rd/tKHSqwFEO5Q/SEKRG7V293niiSdOlmXuCRPeGEIlnxEMD1L+EKXuvvvOOyok8+CUKVMaKOUaqSE3KbIHQXoUL5zKPw/EPMKaYln4/Oqrrz6ncsMLFi6eTWBwoOdA7uvbt+/rznGrVq2KE5EHQeteQhoGKP/A5ECOttoPYIpS+OTIkSPLg70PlcHBgwdvBvmBz0CyLCutdu3apgCQ4aLDGACGi4Jnnnn+JoF8QFIBQZ4AwfzTp2OvycgYU+KuuDhee+3f/ZWFGQQjg5U/yVdGj77zoVC+Q2ZmZhNa1vUKHAmwJwhVmLnPr/xzQM5WUFMiI8NmDBw4sFQJeb5cvDjBpWWHZyrfTp4/ZmefbJ6WlpZX3DPr1q0LKyjQ1yslY0HVu2TlX6R9iuRyKC6G1ovz8vLWJiUlVfiVwoMHD84EOMR7TPNL3bp165Gs8quZBkNlYwwAw0XD/2fvzOPjqsr///mcO0laSumWZu69MwmhtGwBBAoIyL5TpOwFQdkUEFkU0J+7IuIXFAQUkF3cEKiAILRWQMsuCgURu9BSCO3MvXe6l7a0Teae5/fHJOkkTTJ3kpks5bxfr8CcO88955npzDzPOec5z3P99T+7CMRdaDFurQa7xRy9EIZNJ37rW9+KZDB/+atfHWRB/ZXEsJZ95Px9/+kjR24zuRT73lOnTt1RhCeBciqp9s7N8/Nm+rnx1oKcpiiPDRkyZPoxxxyzrqfj/f0f/7iZ4JXt9/V58SGHHHRPlPtff/31PQFcBPB0kGOKcAZAch2If0L4hmXxTcuy3hw/fvz7pUwuFARBDcA0yRgJQKnf1FRXn1+q/g2GwYRxAAyfKH5y/c+uVMTNHbcCWszqu6RMvvrqq+d318ftt991FKj/TDLP+Lc5E+80bRx64BVXfL5H9e0feOCBIVVVVYdCqUkEJxHcHu2di1bjv4qKT1Gsx1avHv63888/rNf1DWbOnLm11rKI5Ki8ff05IvpTxS7Vv/HGGxUi6khSn0mqk0Bu08HYt1QKLtherRTfAvgfIWYrYHYsFpu73XbbrerJa/R9/zJS3db6fopYx8TjY57pSV8Gw2DHOACGTxzX//TG7xK4DtgsKBAk10Lhyq9feeV9nd17222/OgnEwySqcsa43dJ/JhtTn77sS1/6sBh9HnzwwW1DkeMUrONBHE62xCogb5aca6eEnEaLTyCb/UepMwo+++zfr1GKP8wP6gOsEw477KCne9PvzJkzh2yzzeijSH0cyWNJbhfR+HfXThOcS3IOiTkA5mWzQ+ZMmOAs7U4X3w9eJbF/S2GjTE3NWBP9b/jEYhwAwyeS66//2UVUvCO3FNxhJYCEgM8hxq9+/Yor5rTec+ttt31eQT1AItaJ8f9YKRx+8cUX/6vQ2NfMnBkbt3jxZ7RWk6gwicSunRh7gAwJ/BsKT1vk9ClTpvynXO/HzJkz7TDUC0Bu3Tq+UvjHoYceekSpx3r77bd31MBxCjya5Gc6rg60D2Qs3G4LVsy1l5OYQ3IuyblKqTkA3nVd98NMJrO91noBW28S/tK2a0oap2EwDCaMA2D4xHLDDTcdA4WpCtgGecY/t5JPkGym4u8ltK63LH0kyDtIqrznW41/llQnX3LJRV3OlO+7777xtKzDCHUUiaMAjsyPG8iLI8gwF7k/AwhnnHXWWcv64r145pnn7qLixXlxBU1aqz2PPPLgOYXv7jlTp061GhoadtMaBymFAwF+BkQiorEvpr2W5EoSta3PA7KfbdsFHTaDYUvFOACGTzQ33HDzblR6GsnadkGB7ff1Q5KKLSftOj4vUBde9pWL220Z3HvvvUlAHQ7ycACHkazrMLtvNf4fE3wJCs+KUs+e87nPvVPKoLcoPPfcc7uI4G20rIa0rIf85IgjDvteX+rRyrvvvpvIZmVvEvtQYR+Ce5Mc3Qvj31l7YTxeM6Gv32uDYSBhHADDJ54bb7yxRqB+S/JYAB2Nf7dtgtdceuklP7rzzjtrSB4mVIcR6nASE1qXtTss7a8D+S8CL4nFF9euWvXKFVdc0enxur5g6tSp1ogRo16i4v6bZtpYOHTokN0OOOCA9f2lV0fmzp1br5TaA1B7KMU9Se4Boq6nzgAgP3Yc5wf9+6oMhv7FOAAGAwAR4c9+fstVCvg/kpWbxwUAnRj/+SBnkDycRANbLH3e8wC5TJGvCuVFaPWK1k2zLr744gFTPveZZ565SsCf5xl/AdTRRx552HP9rVshFi9ePLqpqWlP0toDCntQsBfJXToz/h22WSAiu7iuO7e/X4PB0J8YB8BgyOOmm26aCGU9BMGE/KDATvb9O2t/RPIdkLMomKWUzLrwwgvnDNRl5ueee25cNtT/JTmsxfiDVHcceeThl/W3bsWwYMGCbWKx2JkAv0Zy5+5n/wDJNx3HmdjfehsM/Y1xAAyGDvz0pz8dHotVXAeqS9lSEKeLIMG2tpC3XXrJxV8dqMa+IzNnzoxt2LhxJqkO3PSa8J5ovUdvEgn1JQsWLGhQSl0G8gtsyesfaSsAuMp13Vv6VXmDYQBgHACDoQtuvvnmfUF1N8A9osQFgOpZhfD8Sy65JN2/mhdm+owZNxD8Zt7SfyiWOviYI454tb916w4RsebPXzhZKVxG4vBuZvprlFIzBDi9w/NNikw6Tvf5AgyGTwKqvxUwGAYqV1111b8/Wr1qH5D/D8DHgEDaze/btwl9lED9984775nSx6oWxbRpM06E4P8BACT3HxFcN5CN/7x583ac++6718+fv+BDUh4HcHiL6i0IBAgh/Bsgn6+oqLC11n/q8DxE42lj/A2GHGYFwGCIwE23376tFeqfEPxc7khgl3EALW15KmZZl3+pyKyA5WbGjBnjQ43XSYxs3RMX8h9rVq86uhS1C0rJwoULRzQ1NZ0B8FwQBzBv5aVDZsD/CfG7yljswbq6Oq/1/sbGRQ8pxTPzgwAB9dlk0pnWf6/KYBg4GAfAYCiCX/ziFxOF1s8UWpafuw8KXEelfgSdvXUgRP4/+eSTw2OxipdB7t5q/EEGFTFrjyOPPDLT3/oBuWOJO++88xFQ6hwFnkJyaBeZAJco8iER+d2ECRPe7NjPBx98MEQptYRUw/O2BrxEwt2WZJ+XIDYYBiLGATAYesAvf/mr40H5KcmG9nEBmx85Izkbor510UUX9Cqnfm944403KvxgyVMkjtmUjAhZRRx97LHHzuwvvYBcQOKYMWMOBdTpJE4BUb3J2G9yqEhuVIpPkfzd6tWrZ3RXOnjRokWTRfBkflyAUvxpIpH4Vt+9MoNhYGMcAIOhh1xzzTVqzJixpwv5HUXuXjB5EPCCZfGbF1xwQZ+nn33qqafvB3lBnvGHorrquOOO6Zdo+JkzZ8ZGjhx5GJQ6nYKTSVZ3srQPECGELyqFR5qbm6fuvvvuK6P0/8EHH/5WKZyTFyQoSnHnRCLxbrlfm8EwWDAOgMHQS0SEd9xx92RSvgdy7w7JgjpuDYgQT8BSP7nwvPNm9YV+f/nLX34Aqh/lRfwDVL87ftKx5/bF+K28/PLLw6uqtjpaKR5P4oT8mX57469Cki9B4U8Sho/ttttuRW1PzJ49u3LYsGEByFFtKwmQV+rq6g4s00szGAYlxgEwGErIHXfcdSyV+iYph3YfJAgQ+BtgXX/BBee8UC59nnjiqUupcFuujEGr8ce/h2211SGHHXbYhnKN28qrr84aX1GhPytQxxNycFuWxZbcA5uMP0NFvCSi/hSL8fGGhoagp2M2NjYeL8DTHc7+f7Guru7XpXpdBsOWgHEADIYycNddd31KQ12uyLNJDOnWGQD+BfCONWtWTS1lXYAnnvjLxSDu3GT8CSgshtb7n3DCCWXJVfD2228PW7du3UG0rKMoOJ7kjh328fP39TWpXgL4p8pK67HeGP18GhsbfyfAF/Jm/2uGDh3q1tTUrC1F/wbDloJxAAyGMnL33XdXQ6mLIPgKqRJdBAm2tpcS+DUpd59zzjkf9Gbcxx9/8gIq3Js7sti2778KEjtw8uRjZ5fm1eWCCzds2LCfCI9QioeD3I9kRevsvhPjrxXxEoA/hWH42L777lsSo9/K4sWLhzZnswHBbdry/pN31tfVfaWU4xgMWwLGATAY+oC77767gox9FgpfJHgsSavV+G9aDWhrC8mXAP4+m9346Pnnn7+qmLEef/yJ80Hc18H4byTkmMmTJ/dqu2Hq7NmVNUuXTlRKHQjwcJAHERi2ydhvWtrPa68h+QyJ6WEYTttvv/3KduRw4cKFp5DqsfzMgJZSu9fW1r5TrjENhsGKcQAMhj7mzt/+NhEL5TxCzlfg9h2Mf0dnYAOpppH6sVgsNn3KlCmru+v78cefuFIgPyfbFv4BQivic5MnT55arK7PPvvsCKXUAYD6DC0eRME+ubP5XRr71vYCRTVNhNO22WarFxsaGpp6+n4Vw8KF708leXre8b+X6+u3PagvxjYYBhvGATAY+gkR4a9//btDqXAuyZMIjCjgDDRBcSYgf5aKihlnn3rqh/l9Pf74n68D+J2OiXNE4cqTJ0++tZA+11xzjdp33wN3isX0vqTaB+CBJHZF3kpCm2Hd3Pg3K+JFETVNKtS0gz796fnlfO86Y968ecMrKioDkltteg/w+fr6+gf7WheDYTBgHACDYQDwwAMPDFFKHQdYnwPls0TeLLtd0GA74/6ukM9S4RklPJ7kxZtlzQNuPvnkE6/ubMynnnqqTqmKfUjsS6X2JWQiyOHMM/CbdOiszQyJ6YCaXllpPbPffvt91Hfv2OYsXLjwEoC/ypv9L8lmm+smTJhQssBKg2FLwjgABsMA4/777x8ei1WdSMUpJI4iOaQzB6DN2HfRJvHI22//56wf/vCH8vTTT48XkT1B7klae0KwJxVqur4fmxl/kutBvkLw76T8/ZBDDplFUvfz29XGe+8tfKdlxaI1n8AN22237bf7Wy+DYaBiHACDYQAzderUrTduzB5D8iQqHM+W5DYFtgoA4mOCv6fiLgT3ADG8g3OQt5TfZTsk+AaZM/hKqVf7IndAT5g/f/7BSlkv5GUS1EpxfH19fa9OUxgMWzLGATAYBgkzZ86MBUFwiFCdSMjxpBoXxRmIaOxBsiln8OVFki9ls9mXJ02a1K/L+lFZsOC9R0BMad36IDFt3Lhxn+1vvQyGgYxxAAyGQcqDDz46oaJCHyO5Y4WHEhzWllI3Pw6g2zaWArxfLD7z8UfbvDZlygHr+/t1FcucOXOcWEXFh7n8A62xD3LC9ttv32/FlwyGwYBxAAyGLYDp06dXrVu37kDSOobE4SD3IGgVihNoaWep+D8K3iAxSyn1xqpVq/47ZcqUPjm611vmz59/Lcjv583+F44bN26HgRSfYDAMRIwDYDBsgUydOnVry6rcj8SRSvFAQO0LSkUEZ6C1nSUxH8QskLMoMqu5ufn1SZMmDaiI+g8++GBkU3PzBwRH5uX9/+r48eN/2c+qGQwDHuMAGAyfAJ5++ulRYRgeJOQBCmp/EHuT3KrIOIENBOcCeNeyOAfAPJLz1q1bN7+/HIN58+ZdR6rvtjouIFaH2WztTjvttKZVZvTo0dsMraw8puO9ITDbsqxKZLPJdCbTtl0wfvz4qvVr104OgeeDIFjaV6/FYOhrjANgMHwCmTlzZuzjjz/eQ4T7k9gPuRz+44oMGmw9HhiC+ABUcxVkLmC9S+o5zUOGvHfY3nsvK9drmDdvngvwXZJbt8U2QN0yYcL2V+XLxePxGou8Cjm1zwfkzyJcRUueFa0mE3JpKBgfBEEjALhufDKFTyjw0MW+/2K59DcY+hvjABgMBgDA9OnTtyG5O2lNhMJEBU4EsFOXmQC7zheQXwRoI8A0FXySHoQ+qTxYeN8CfBHx9t5778ae7NfPnTfvDwTPzgtsDCGyww477PB+V/cknPhblsapizKZ9wHAdZxfELK7CKZ5QXATACQd548C2V6B3zAOgGFLJtbfChgMhoFBy5G/l1v+AORqAQCyJ8hdIXo3gdqVQAOAERBB66Y7ALS2BS0zi9yDKhDjAIxDqzgFFEByyXow6823Nsx6880UwaUklwNcoRRWiHAFqZYrJWtIfqyUWk1yndZ6vVKqFoKz8geCyF+6M/5dIYJHSZ4F4CbXdbcS0SNBfAjp8VtpMAwKjANgMBi65KijjloN4PmWvzaeffbZuoqKigaAu4KYAJEdQO4ogJ2zyZ06A120ZQiE40GMFwCkQIRtzoK0yGstbSsQ+b6H5MQAomC9g05RsgzCdbU1NduHCPeB8CkQh/WoL4NhEGEcAEOvSCaTQ1U2O07IpAAUrVexomJ+KpVa0d+6GcrHUUcdtQjAIgB/zb/+2muvbdPc3DxBYO0AYAIV6gmpF+G2IGoJVHTlHOQQQNhlWyBgJ20B3txxxx16vFxP6qmhUqcQ2CcrclkMNA6AYYsnlnTsNzpeFIGXDoLJvek4YdsPkxjf/ipvSfn+ZpW5XCf+uALrciKYmfKCb/RmbEP5mQhUBI59g4TZL4fEVmhdL1WEhFk4jlPv+/6H+fc0NDRUzp49e1CcLTf0jJaCQLNa/toxdepUq76+3hWRegDbgoxDdBJkHGBCBHECSRDDgK6NfWdtUn7RK8VVxeNKss9AZHEmk1mScO1edWcwDAZiAkzc7CoxsTYe33VxJvO/nnRaF4+PC4kpsnmQYbwzeYINAuwAACKyqCdjGvoUBq79OARdpVpd4/t+279jMpkcCp395qqVy2sAfKVvVDQMNKZMmRICWNzy91JXcq+++urQYcOGjQkta4wVhmNIVmvIGEU1EsIRIhgO6K0U1TCAIwGRbDZ8OIoOhJqrK6xNRxZFllO4NuWlViQce44Q03NyWCIiA7LugcFQKrrcAtAWpwDokQMQKpwBc8JgiyVh26d2ZvwJfCTA1hD8Dy1LAol4/LMSZn+BXBDYA32tq2HwccABB6wHkGr5Kykp3z8rv+0FwbWtj9N+cE6bnBdcVuqxDYaBRtcxAILTAfygR70KzzTmf8tFyJPZLkRabq2oGvqjxsbGVQCscaNGbd32lMJdABLFjpG07X01eTKgd6TQErIRDJ/2vCXPASY+22AwGHpLRwdgDYDhLY93Ssbju6UymXeK6dC27V1A7N7SbBfe0xVCfT7ArQBAKVlSzHiGvoeQCXnNRWk/83UAYUs7fH/lytU97bu+vn5k88YN92sIQfmNiLqLlgqJ7I6irTNdx/6egOd0jC8wGAwGQ3G0dwAEz5M4RIBtAEAsng6gKAcgpnCGtM7PBK+B2L/QPZ635NVixjD0O61OIgSYi03Gv1eMHj16m+aNG/5G8GdQ2qO2dgMQl2zWr9D6jcalmQsT8fh+JP7iOM5k4wQYDAZDz1EdWhsEeLKtndsGKAoRnNn6mEoiBeYYBhlERdtDwcpSdTu0qvJ2grelfP8xaHWaUK7R0MdB8fvNMeuDhG2fm85kXhOlL7Egv4eJMzEYDIYes3kMgJapUPxCS2unZLJm91RqyX+jdOa67l4QvUOuxQUa+g2W9zfaSsbju0CpHUBdpYF1KsT7qUxmDno4K43H49tVKLWnpv6osln/r3Hp0qDQPbZtj7VEdhMLY6kZKnKJVmp2Op1e3hMdgNaTFNxZlGwDWOtFZLlSak5v+gQQS9r2XlqJDWCY0lwVko2+789DD/fVSZZkP762pmZ7AepTvv+HvMuzPD9zCgAkXftnAvwYwG89b8mrCdt+r9Zxjl7s+38rxfgGg8HwSWMzB2BkdfUzq1YsXwlgFABIyNMBRHIAFPSZbdaA0Wf/Cdt+DsR2Lc1n0n5wSXfyjuNsa1G+IYIzBKhuTRZCAKKAhGOvBOQ3Quv/PM/rtBhJwnFeAcTO6c3zF/v+y0nb/oUQlwjEohDNMUsnHPtxS8s3W3OHtzIRqAhs+2wQlwPYE2wxhQQ0BNBhmHDt1wXyC8/LPIIIBnbcqFEjNg6tuhqC80KgFkDunDN0zo3SoU469lta8OtRY8bcF/VMfTJZs7uE/AbAEwUYnuszl19FQZBwbR8ijzSHcsOSJUsynb9f9jygbeZf23pdICckHHtha5uC5zXwJonWgiybjn4SpyUc+5C2phUem0otXQAAYUwdpyB/6vpVyAqAza0tRT4SihwPwDgABoPB0ANUxwuzZ89uouDPm64w6jYARTCltaGFD0XWgqgFcvnCBdJproBWXNe+TEHmiuBSANVdiI0CeCVFz3Ec56DORaRu05jYyrXtW4W4DICVJ6QAnJa1rIr8O13X3TFw7NdAPABgL3S+FG1BsB+FDyUc5+Vtq6ud7l5XnW03bBxS9Q4E30eege2AEmAiiTtWrVj+juM423bXJ4BYwolfJ6F6E+Dnkbd33w6BA/BrFZZ6z3Xjn+uir+2Atpzu+e/H1m3XgXFC2CRH5V3LdzKH58uqrFXZ9sKAbSFqQYcxd3Zt+4aEE79LwCsguKL1iSat5xOoL/D6DQaDwdAFmzkAAEByal5zx2SyZvfO5PJx3Zr9AbQYJL7t+/7cUiiYT8KJf4eC2wAMbbtI+AJ5EJBbATwKIH8GO1ZB/pqMx3frrl8BDmbO+G8O8Zrnee+26ZBI7EDRLyNn+FvJAngekLsFci8grwDIq24mB2QrYv/qymCPGzVqRJhLQJJn+LkAwGMiuC3XL/4GYH3ebTso4NmGhoZKdA4TTvwBgN9Fe6emEZA/UHA7cu9XfsrerSl8MOE4X+ukvw8AvA/gfRDNedfXtl0H3qcgEJGVedeyebJr8mV1LGxbwdDCrGi92YqUAoYR/Bw0vpYOgmmt1ysqdEwo2Y7yBoPBYIhGp3kAFvv+3xOOvQwtM2wJOQWFtgG0ajv7T0r02X9EkrZ9aMsecCsbILgq7Qf3IG+/Px6PD4tZ/BEEV7dcGiaKvwGwN7pahqd8HQICWEHiNg15S4mKA/pUEdW2GjJ69OhtqMMZkr/yQDwtUJd6ntcug2EikdgBOrwHQOuSd62C/Gn8+PEHvffeexvzZTdUVX2VQF1LUxP8csr37+2oZjwer4kp9WdADshdkQmrV6w4D8A9HWVd2/4+gM/nXVoKwVfSQfBovlxDQ0Pl6pXLrxTgxy0zewJyUyIRfyedzvy9VS7tBzu1vTbXfg/A9rmXz6c6Jldp4Q4ASDjxFMBcHgDBo+kguKATWYAyHwq7AXg67+rcVBBcnnCc/5FybzKZfCWVSqUBAGFsdwDvdtaVwWAwGArT6QoAgCwgj21qFtwGsMC2EwOS1XikBLq1QxM3YpO+muDJ6SC4Ex2C/TKZzLq0F3wdkLvzLu9V6zhHd9m5oEKAQIV635QXXON5mSdTvn9Pys8ck/b9u1rFhlZWflXQFqsAgg+lveCkjsYfANLp9PyRo8ccjfbFUvbZsG7NlzvKkjxlkyp8uDPj3/LaloQiJwGbIu815OSOcttWVzskvpV3aaVQHdzR+AO5LZ+UF/xUoKZg06qFBa3uRPuVg7KSzerpAKagE6c07fv3CrEUOvvt1mtCOd8Sebyv9DMYDIYtja4cAEAjfxtgh0Si5lNdiSbi8UMItFTP4D+DIGgskX4AgFrb3oe5GXwLcm/K92d0e5OKXYe8ZXgNvZmhbIfgusVLlizs6un6+vohoFyVd2nxhubmi9HNaYPZs2c3hYJzkbfMLuDV2MzISdvSP6G7rWceBMFSEA8B8h8Aj0Hwz44yYWXsSuRvk4Bf9TxvXnf9ep73BIk783SakLDt7t+zEpILPlTTk679vU6e1hS5TQRf3La62mmJU/h4cRC83lf6GQwGw5ZGlw5AOpN5QYBNR+B016sAovLO/lOX/Oy/ppyY36bOLS/tnpjuAAAgAElEQVR3RzqdTgG4lYLbRXApdfd56CvD8LHunm9ev/6AXOGRVuTOZcuWrSmkRxAES0n8Ou9SbSIe37uD2NJND3lubW21212faS+4NO1n9kz7wWn5uczbNBMcl9dMpX3/j4X0BICsxk3Ic5qE7DMHAADSvv9D0dgz6do/Wr+x6UdNzWFbQGLKz9xOK5bIxmInUfPy9RuavtSXuhkMBsOWRtcrAECoiILbABOBCoKntt4Ta9bdHOXqIcL92h4CQdT0xGk/uDoVBJd7QfCrVCbzr25E3y943t/ioflNpfFUFB0AIBT+Jb8tFg9uJ0D8I69Vq7Oxd1zbvqHlBEPX9Ro6IR6P1wBoyBttOiLmRGhZuXl7k1r6kK6ly0I2HQSnAMDQqqoXKyzrKteNn+i68RNc275SdHYaiN2zIketWLHioz7WzWAwGLYounMAEArz9/J3SCQSe3SUCWz7aACjcy3OjJI4p2gId9NDFpWaOBKCDwqKiIzLa65fnMlEPuWQzWbfym9TZPv8tsrqnxPIN2ijSXxTQV5MOPaShGs/krDt8+rHji1YpLwiF6OQdyxRvdWlcCdQkCfPRH19/ZBi7i8BYcoLfgiljlDkQgXuSXAfKFlJFTst7QeXZDKZdX2sk8FgMGxxdDu79H3/lYQTT7dFcWt9OoD/tBMizmh9KNQlj/5voabtkUhvMuF1DqOks+WYTY9lBYrINLh06dK1CcdeB2DY5n0Bi5csWei6NadR1MNoc6baGAXBFBBTmmOWuI49i+BDKtb88OLFy7zN1WzfN4Giiitpckl+pb8wXDsawObjlJmWjIcP9vW4BoPB8Emh2xUA5PaD85f0220DJJPJoQRa9+c3xmJVf0bpUWhvFNd3JdgLCvZJwYi8Vk9moB/nPd6q45Oet+TZimzYAMgt6NpoMxcMKT/X2dj7Ccf5CTo4cVrJNu1uAIrSlSL5ekKEm+lqMBgMhsFPIQcAaHekTya02wYIw0mtlQMJzli0aFHJCsO00wDYkNce2pVgWSHX5rV6YhTzs/B93JlA49KlQdrPXGX7QVKojgFwswCzu+ivCpDvJBz7/nZqhsjXE9K26hAN5jL7bWpTOtXVYDAYDIObgg5AOhc819h2IbcNAAAQStvyvy5D9H8bxKq2h5SOS+R9AyXfuRmDIs7Ijxs1agSAvL106bQ+QSuzgGbP855J+8HVnh/sKlR1pFwI4DG0d4YA4Jxax2kLKhTLaueECTA2qp4AIER+nIG2rK1XdClsMBgMhkFL4RUAQMj8bQA5FQBc190KgkktF9eFYfSo+KIRtJ3PF+GuUW9LOs6xCce+07XtbyRs+7Tx48dX9UKL/KxzQ+tse6cuJTvQVFW1Z35byG7P+nfE87zFKS9zX9oPThOqWrBdtjxoStsxzDAMF6BdxkPdbuyCEPnyXmNjY0eHw2AwGAxbAFEcgI6nAXass+0Gaj0JLcvLBP9SzshsCl7d1ICbSCR2iHjraQC+TOJnULjvvffeay54Rxco4Sv5ba3w2aj3CnFCftsSvtb6uM62G1zb/nrSce5LOvaLyWSy2y0Oz/OWVa3f+Hnk59iXTUVxMpnMEgDzN93BSYi4WhGPx7eD5B8hRHdHJw0Gg8EwiInkAPi+PwuC91rbIXAK1KaAQF2+6H8AAMlp7S5IeFGhe5LJ5FDBpgRCFJmJdgV6iiMkX0J+Rj/BJfF4vOD+eiKRGAPg3LxLy7YZPbrNAcgq2Y3EjQL5ogAHSXPzEYX6fH/lytXISwdMcFX+8yTy8w7Uum58CiJgkVci/zMh7VcaegY31T1Q7eMLDAaDwdB/RHIAAAB5FQJJnAnB8S3NlaNGVZe1Jvti338RyD+fjiuStr1vd/dIGH4feUV7RHhfb3TwPO9jgHflXdo2ZvF2dF4KuJWY6Oy9yMUMtGpy9+zZs5s2ta3nkLevL4o/7KbCHwDAdeNHIm9vX1PaHc3UULflV+yj8Je1NTXtcg90pNZxjiFxad6ljCg1tcsbotMWRCiCbks9GwwGg6HviOwA0ArbtgEE2AUty/8CPtbeoJUHCq5E69l7QYUoPJOw7dM6yjU0NFS6tv0DQPKL4TyfDoLpvdWhoqrqRnBTPAIE5yUce2pnCXpc161zHfspol063febsvqGfDnP85YJ+IfWNoG9V61Y/sS21dVOZzok4/FPU5if2ncdabU7CeB53mLR+EnepWodUy8lbXsSNsdybftSDXkSeZ8HoXwt5/T0DrZbqcABCds+13XdujrbbnBd1xwxNBgMhn4icprZVGrJfxOOPQ9Au+A3qjJG/+ePHwQvJF37uyLIGVDBCBB/yukkL4hwFRXiq5YvP5p5mQMh8ELgfHRVCrgIGhsbV7muezoR/iOvLsBpzTHrswnXfg6C+YBQwJ0p+nAA+TP5ZUrLiUuXLl3bsV8q9S2E4aS8jIfHZStija5jzyTxPwJaBDaBXQSYmHerELwylUua0w4vCH6cdJw927ZBBI4Q05KOPUeAF0Wwmgo2RI4EkOig0f95XlCSf1cNvkXIQS3NGIjfUDRCAioXR/LX7u43GAwGQ3koKs88iUdE8MNNF+Cn05nnS61UV6S84KcJ2/4IxK3YZFx3ArgTiZyJb78gP1eTpwa+31gqHTzPe8t13f0p+gkAO7ZcHgJpDQpkZ3sCr9MKz1rsL31v86dyWe9c1z2comcAbQF9lQSOgeCYVs+lgweznpRvpryg09LBAHTK909NOM7PAbkCLe9My+rNLm3vV3tt1wH8en4J5N4iwF0ELkK7Y5Btz+0C4wAYDAZDv6CQW6Jt/es2kr/lNECbPIE/oJuUuEqrbL68iHR6pExyefBb++xWh3QQ3Glp2RnEb0Gs7lRI4AHyHaHa2/f9TnP2C9AaSLcSKC7Zjed580aOHrO7CC4D8L8uxATEvyA4N+0HB6RSnRv/vD7fzWrZtcXBauxGdBkED1hadk15mdsKqBqmff9rQrW3QP6MLhIQAVgCyK1CtXMk4y+b3jtd4N/L9/25FBwCyCvo6MOQtZ3fZTAYDIZy010A24BnIlARxOMTxbJshbAaopYrkfmLgmAOSrDkH5VEIpFUWjcIMFYAKmDJxjD8T67Gfc9wXbeOWu9GJSM0MIQhlohlpT3P+y+KqEOQT319/ZCmpo/3UmLFQT0GolZA6wWpTGZOT/sscvyRGzZscJVSYWVl5Ycmx4DBYDAYDAaDwWAwGAwGg8FgMBgMBoPBYDAYDAaDwWAwGAwGg8FgMBgMBoPBYDAYDAaDwWAwGAwGg8FgMBgMBoPBYDAYDAaDwWD4ZFDyVMATgYpMMlnDbNYFOVqLbJM3lijyo5A6ZIi1IflRGIaLOquQN4ixHMdJWlrb2sJwAEOpOQQASGY19RpS1mlteb7vLwag+1ddw0CmoaGhcuXKlXGGYYJKjRSR4Wj5LgGAKLUaCLXS/Egr9RGARaUo42wwGLZ8eusAqEQisTu0PhSUA0SwC4kdIKgorhtZBTBFcKEAr1PklWaR1zOZTLeFZvob13WrgXB/itoPwL6AjANRW8TrbwLwgUDmEOplJfLS4iB4C0C2fFoXTzKZHKqam51CcmMzmcWzgOa+0GkLJZa07b00cAiJ/QDsCmAciqzaCWA5wBQgC0XwGpT6Z2Vl5Rum9oLBYMinRw5AIh7fT8izCJyaV8O+1GQBzoTIPXYQPDlQDEsyOXa8hGoKoKYA8qmSD0CshsbjAH6fDoIXMABWCJK2fagQMwvJCdVOnue92xc6bUEwaduHaMpZBE8GUF2mcZogmAHgnnQQzEAfFH8yGAwDm2IcAOW68SkUXgVgn3Ip1CmEn/aCcjkaUYi5bvx0Cr8GYN8+HHcRITdrWvf257KucQDKQsx14+e2fKZ27duh+Xba9/fo2zENBsNAI9LSouvGj6TgRgj750dDEO+PYScCFb5rX0zB1RDU94MKdQLeStHfTtj2jXYQ/HKgrIQYeo7ruidR9A0Q7NgvClBq+mVcg8EwoOjWARg9evQ2Q6qqfk6RL6IMAYMDmaRtH5IhfkXBLv2tC4A4iJsCxz4voeXCdCbzWn8rZCge27bHWgp3QPTp/a2LwWAwqK6esG17l6FVVW8Q8iV8goz/2LFjt0649gNCzBQMCOOfz65QfCXh2jeh+MAwQz+SjMc/bVHegsAYf4PBMCDo1AFI2PZhFvEaIBP6WqH+xHXdnSpj1r8hOA8D1+lREFydcO1nbNse29/KGAqTdJxTRPEFgIn+1sVgMBha2cwBqHWcg0E8BWB4icYQAAP+nL/rxk+k6H8D2Lm/dYmE4DCLeN113Z36WxVD17hu/EShPAygqkRdagAD+niswWAYHLRbRnYcZ1sNeRzAsKJ7EnhCTofIW1Dqv5XNze+tA9bmJflRdXV1I7Bx46isZY2wRGo0sLMADQpygOQMb7/Mul03fgaFf0DvltU3AHhNBP+CkgWWqAVihatUM9dKZbiBTdaQMCbDGapRWsn2FLU9RPYFsT+ArXo45rYQPdNxnMN935/bC90NZSAZj+8mwj8CxebFAAA0gvgrhf+B1m83iTTGYrE1eadBYolEYoSVzY7IWtZIau0IsDMVdoXGZ0CML+FLMRgMWyD5Bk8pyiMQjCnifi3gw0rk3lQQvIjuz6zrRYsWrQSwMu/a31ofxOPxGsvCCRSeCuBoAFYRevSYpOOcLSK/7eF4GyF4guRvYlVVzxeRaOX51gcTgYogET8Yws9DcCqKXHkhYBMy07btw4MgmFPMvYbyUV9fP6R544ZHUZxzlxXIA9T4dTqT+Rdasv11JZtOp5cDWJ53bVrrg0QikZQwnEyF0yA4FAN3S8tgMPQTbT8KSce5SCB3F3Hv80J1led5b5VaKdd166D1V0hcCmBrADrtByV3CJK2fZzktjuK7ftjCm7XSt3oed6yUukzevTobYZWVV0OyFUARhd5+4ehYJ8gCJaWSp9WTB6A4knY9vdBXBv5BsFTotQ3yvH+JRKJHSQMLyNxIYAhAyCvhsFgGAAQAMaPH1/18bq1jQTsiHf9PO0F30SZs4m5rlsNrX9AhS+nvaCylH07jrOzovwTghFF3vpYrDl7+YfLlvml1Cef+vr6kU0bN95IFHf8ksBLI0aPOXL27NlNpdTHOADFUVdXNypsblqEnPNaCA3I99J+5gZ0P+PvNYlEIgkJr4PGUekgMAGJBsMnHAUA69etmxLZ+EO+m/aCr6MPUol6nrfMC4IrtHD/UvZbV1c3Son8pUjjv4aUs9N+cFo5jT8ANDY2rvJ8/0KhOhbtl3i7RYCDVq9cfnMZVTNEINvU9EVEM/4QykVpP3M9ymz8ASCdTqfSXnCeJieXeyyDwTDwaT0F8IUowoQ80zJT6VN8359Vyv7CbNMtRQZJLaalD0x5mT+WUo9CeJ73DK1wPwCRZ9Ui+Irrxo8so1qGAjDi9wmQP3he5v7yarM5pf4+GQyGwYmKx+PDADk4gqxoWldgABSn6Q1J2z4OgnOLuGV+rDn76VRqyX/LplQ3pFJL38tqORjAvIi3kMJ7q6urS3WM01AEiUQiCWK3CKJNYa6uhsFgMPQLqlKpiYh0RlleHez7u2PHjt1aiHuKuGWRUB1V7iX/QmQymSVQ1lEAPox4S31VhfWjcupk6IIw3B/R4jaeLkfApsFgMERF6ciJb9Rfy6tK+amMxb4GIBlRfG0oOM7zvEXl1Ckq6XQ6pcDTAGyMdge/4rpuXVmVMmyGRPw+kTLov08Gg2FwowBEMxIii8urSnmpq6sbBeiro8oL5UsD7Vz9Yt9/Q4ivRxSvUlr/sKwKGTZDkZG+TxQ1qL9PBoNh8KNEJNJesSIz5VamnITNzV8HODKKrEDu9bzMI+XWqSd4XnAHBP+MIivEOfF4fLty62TYhDDa90krNai/TwaDYfCjyGhpSrVIseflBwz19fVDAPlyRPFMrKLqm2VVqHeIKHUZoh3DjMWUurDcChk2ISKRvk8Mw0H7fTIYDFsGMQFXMcIRZFKcPtCnLGSb1p8CMFpmPcH/a0lZPGDxPO/NhG0/CuKMwtJyQUNDwzWlTg5k6BwKV0UJAdRq8H6fektDQ0PlmuXLJ2hyRwHqAD1UhCNIaSa5FsKVmuEHYcj3MpnMB/2tb28ZO3bs1kqpsUqp0SKyvqIiu8qytl5RROpwQyfU1NTEK5XaWSsZp8CxAgwTjUpSPgLUBogsVuQHTVrPzWQyg72AVqx+7NhqbVljmskhFVqvRFXVyt7aqhhElkfMNXcogF/0ZrD+QsAvRhR9Nx0ED5ZVmRKhyRsVJIIDgPiq5csnA3i03DoZACoslwgpfZjLz/9wufUZKNTWVrthc+wskkevWrH8MyC22pT7iCBz/8+9dwKKQkwBCcfOAHiF4OMbs9kn84qLlQXXdeuo9ae7kyGwNhUE3QZxuq67l4K+AILDBNgld1UAAjobg85uyCZs+3WI/F86k3l68/vjJ1KzYPbTrMj0vjZu8Xi8JkYeUkhOaf3m4iVLFpZwaCtp20cL5SSQR0CwvQCgbJrCtn6O2t5rCGKK2YRjvwXwOWr9UCqTeaeEOnVK0rYnSYGieqLUa57ndRkLNHbs2K0rLOtcEpMAHNTcUidGQRAqAs1NSNi2B8o/0n6my9wjyeTY8dBqkghqhHifjD3ZUkcEMQKRotwFPLK6unr4smXL1kSRHygkEokkdHhYNGn+BH2Q4bAU+L4/y3XsFwkUzuFAORHGAegjZFG0U4A8fiJQMQtoLrtK/UgiUbM/QvVtncUkElYPEh7GAZwikFMqY9Y613HuB3lTdz+cvUGJHCTEH7qTEXABgE4dANd1d6TWd0D0EQVeaQzE/iA+DWAzB4DCL4A4tZC+FVSfB9CnkxaLvATENQXERFdUlKRUeXV19fCqioorAPmyAEmAxX6MYgD2AWQfUfy269hvKPD6lO8/gXLltSFuB9Bt/BW1PgNAZ59jK+naXxfBNwGMKjCOC/BsdJF8LOE435MQYmn9UKypafmGoUPHQcJrXTf+jOdlnlSMxV6J9oqw9ZDKWNQI9AEDtZ6EaL/IS23fH1QzMgVG/OLzOPRRdcVPOhpW1O9TMrDtL5VVmX6kLh4fl3Dtp6DVqyBOQGk+f8MIuYKi5yds+/sNDQ0lrQ/SW1w3fgFFvwniiF53puU3UcSEcmavxyoSkmdHEHshnU7P7+VQynXty6oqYu8Dch2iH+HuFgJ7C+SxhGP/M5ms2b0UfZaKbaurnYRjPy+CG1DI+Bcg6cavoMgsoQ5CxYc2Dq2aAZGvDN1q66sUuFfStvdVqVQqDeD9KB2K4OqB9oYVRh8XTU4eHHSzMct6FECUvf0xruuWtJ6CoXM8z3ubwEeRhIkf2bZdX16N+hy6tn1pqPhfCD5bpjGGgLh21Ypl/xoo71/SiX+VwvtQXPnnLklnMjMECAoKCo7OHXHuG5K2vS8gEwrJkXJvb8api8fHJR37eQpuA1Ddm766YV/R6o2E43ytTP0XRW1ttZutiD0P4MDe9tXQ0FApwp1TQfBXao4U4vdpL9ifIsPXr117wohRY34ilC8qACDxWMR+h0monnJdt7a3CvYFDQ0NlQJGyosvtH5fbn1KTSqVWgEi0oyTIgX37AwlIRTgiYiyYxXxdCKRGFNWjfqI+vr6Ia7j/IG55c9u9z9LA/ewiNcT8fh+5R+raxKO8wUBb0ERlTsjkFUFtiJaqMxmN55cwnG7RUeb/S+PVQ59vKdjJBLxI0LF1wU4qKd9REZQAcgtSdu+H/24ShqPx4dJNvYsgB1K0d/KlSsbhPJ6a1tp1CZt+1CQtbCs/86ePbuJwiYFAM2h3InoeyF1EP1vx3HK/4/TSz5asWJ3RKnKRvie571Vfo1Kj2g8H0kOemKZVTG0QMEdkWWBBurw9USi5lPl1KncjBs1akTzhg3/IOSsPh66GhZn1DrO3n08LgAgmRw7AZBfobTGHwDAUH4bRU5JlNNAJSHGSIHH8vuennBI2PY50JwBINqprRIhxAUJ174Pmwrk9SkV5C83BYv2HkvrGEW1rWgLuadQbhHqX7ZuzWhAFABkMpkPBPJk1M4J2Iry94TjfG8iouUR6A8E2DOi6N/QB+VYy4FFPh9FjmC//EB+EkkFwb8BvhpVXoDtoNWrSTd+OfrpB6g3VFdXD99YVfVXED3dZtoAIAWgZxH+ghEaMi2RSJRkj7iooUPr14hY+rlYFmcy/wPweiE5AQ+3bXtsOXTIJ+k4RyIXlNktobBHy/9JxzkbxK+RC9rrCUtbtk16FsgtOC/h2tf0cOwek7Tt44S4oJR9NonMAdA26RPKX4TWZII/yeXFAUEZ0vZjE2pcDeDjyCPklk5+HNj2G7W2vU8plS8VQonmAEScRQ9E1jc3v4VozkttX/xIGHIIeTmAbBG3bCXCXyYc5yXbtks2E+gDYlWx2J+LNP4fAnILBYdWVA0ZlfaDoWk/qE37wXBasa2EameAV0Lwd0R3zGsg4Z/6ckLiuvETUYL92u4QQZRVgJhFFjwx0GtdoCMs/8srPUmhnrTt4wTyG0RdhieaAUwneFEo2M72g8q0H9R4fuCk/aAiFNRAywkA7ooUS9GmPr6btO1JxerfC5QAN5S609zRUL0mkaj5lAAbFGSD53mLIXi2ecOGMxOOc5ESPqHybvhAiOIryBG7a+KfruPcWz92rF3SV9FbNPaIIsaYHpTL/wDQciwz0lHOWIFjKYbS4XnemwB+WfydcoBFvJVw4jf3ZXBXT0na9i1FRL0vgeAraT8Yn/YzV6WC4IXGxsZV+QKpVGq953nz0r5/azoIjlSCTxN4KVLvgv182+6rgC5C+JOuVcFsED+GlhM0uDe17A6lD4BgCiA/Afh2lEFULPYQIhUAi5QTpMfkysbzpMJqFD/7d113R6H8ERFn/gL5M1XYkPaD41O+f28QBI0dArglCIKl6Uzm6bQfXAKq7UXwQwBR8iUoodzTV+XUk278TBBdBdZ/DMHDQvkSlD5AadlNg3sL5SghLif4ELpZNbP9zLXQvEQpWTliVPXvAKCiasi3AdSSuioVBNM77lvFXMd+msAxPXw9awHeQMu6OZVKre9hHyUj4dgBCi9ZbbT9YPigOwGQR8KxpwEo6LUSPC3l+1EDPttI2vahQswsJCdUOw32ktGlJJlMDpUw+wKAnq6QrSDk2rif+dVA/Hy6bvwMCqMdnSWmVa3fePb7K1eu7slYCde+FoLvRxBdB2XtlE6nUz0ZJ+k4ZwukQPAdF0DkYhD/2PwpLBTIlZ6XeRoFVi9aciQk00Hwp27lXHsqBKcXUF2rWLZ28eJlXgG5HpF042eJFDp2LKuEVsLzvMgryePHj6/6eN3aWQQaIoivEcrZnpd5Kmr/+SQSiR2gw2cAbBtB/Oa0H0QuHteRpGO/L4UmXIIzQH4VkAM6PKMp+FUWuLZQyfCxY8duXVVhfSPlBV0Wfks6zrECOQqgBcpHlsYji4JgNrD5fmN2yIaNZwD4d7eKd83WgFwnYfMC17a/0p/ndFvGjrLk/f5A/HEtCuLDKGIStfKjoSSkUqn1FdlwMoB5PexitIC3Bq49N2Hb52AA5XKwbXsshbdFkaXg9rQXnNhT4w8AaS/4ASRSJcxhovU3ejpOEVzU8QIhT2RD+VSLgSq4dZFOL/lnIeMPANT4TQR9lGStQk5CjxEpHP1P8sFijD8ArF+35vsRjX8KSh/UU+MPAOl0ej6UdSByiZwKcUlNTU3BeIfeQIWGzYw/sVqojksFweWFjD8ALF26dG13xh8AUr4/I+0HV6d9/2tpL/hBq/EHOgk4en/lytVVGzYe3bL/1kOYIHHHqhXL5yfd+Jf6I1Bw+fLlLiIFVDFddmXKjOhoe1yDuZ7DYKVx6dKgIhsehgjBXF0i2B7EbxOOPdt145/DAAgUtIibEMnBlntSQXA5SpBhMx0EPwcxtZAcIV9yXbdcZ8cBSALEKe2uAH9L+ZnTy5GWNxUEf4Og4MxehGXZBojH4zUAji44PnVRy/+5WBdGKby2UqiOTKeXRNo26Y50Op0S8syWGILuGFphWV/t7XjdIYLLO1xqUsLJnuc9U85x8+n0h+T9lStXp4PgGOa+5L2Jjt9WhPcGrj034ThfQB/OYJRS0SKCKYPeAVBkJAegUG5qQ3loXLo0qKgacjAFv+5lVztS+MeEY7+ddJyTUYajZ1FIxuO7Afh8BNHnbT9zWSnHFqhLARQqpbyVQljO44hbAWhb3SQwp2XltJigz2IIiQg5AYj9HMeJsrxdFJbFKSi8P//vYg20olwXod+sUJ9Ryq1Fz/PeJHB9QUHKeSivzWoX4yPElxf7/otlHG8zuptJhCkv+AYEZ6Knx3NaEWwPyO8Sjv1OwrZPRx/8cFHrqOVWl5VVkT5ARFZEEtQYWmZVDF3Q2Ni4IRUEXwT4ZUQK6uqWXQXyeNKxX+/jiOUcCtei0CoEsbo51GeWenvN87xlgBQMrtTCLoujlJhsVnB6b7Y3ohCSv4kgRopMKfXYBCIs/xeX+a/WcfZmlKBCyA2et+TZYvqOwsbm8MaCGTsFTm3u6GNf8DvPCx7oo7HaKLiUmA6CqRrcFcD0Eoy3M4ipCSf+ZiIeL1eaUAAAySGRBEX6PVixt4iSqAalJGlKDT0n7ft3a3BPAC/3ti8BJgoxLeHEX07a9qG9164wtm3XCzi5oKDw2iVLlhSaqfeI5lDuR4EU2AQm1tZWu+UYv904grt6cuytWHzfnwviXwX1IUpaGyCZHDsegm6rIwJYs7FZF1VHRUMuR+GJYCqrS39EDsjtnYMomP1VUwp/1nvPOlqx7/TBOJsRaS/R9/0P035wvFA+h8LLbxHgHlB8KuHY0+LxeLmOpkWc7aotoCa3RHoNQhlQxVM+qfi+PzftBwcTvBiQVYXvKAQ/I8TMhG0/tG11dVnjPCzyQhT63RC8N3L06FicoLsAABseSURBVNvLpcOSJUsyEMwoIEbJVhxeLh1yyCqxrGvKO0b+cJFWAfbKZScsDTprnYWChloeKqZMczKZHA0UPNUAgN8pZ6lj6gg5FqQEhZ0KDSH4WUtNnj6nqGAiz8s8bFVU7gziVxGCKKIwKab4v4QT/3bJTwxQR1oBEMrgPgEAQGkVpSAQKIwkZ+gTJOX798Saw10A/A6lKEtKnJmtjM11bftSlC1QsHCqXwHunj17dlk/a6IK18DQ0IVLZfcCkg+21lXvCyqqqh5GLmtit0gYK1kwIFl4+V9BFXf2XzefgsITtKUjR49+pKh+i2RxELyFwsnvdmwJgiwXWQ3cWcb+u6XoH4lFixatTHvBpVThLhA8jN6n0N0K4P+tXrH8rUQiESlxTyRERXpt1Kgq2Zj9hFY6mvOkCv94GPqWD5ct89N+cC617AFiWq87FIwgcXvCsV8r5UwQaAv+q+9WiGjOal32wlpKR1kO527l1EFDPVTO/jvS2Ni4ChKl0FRpkgK1ZHgtVJzmrcW+/0Yx/YrmCRGk/lBuJxK5oM03CwlZVpeJekrBs1GO+5WLHs8SUqml76WD4HNCtTchvT62IMAu0OGrrhsvSU5kAaLt7UeNFRjQRI536G3wmaFMpDKZd9Je8FkNHlxMHYFu2Ee09XrScU4pLBoRi4UDDgXPlmvvPx9VWfnfCLrsivIFHDd6nleKf6eiUNGCAXets+0oZ+u7JVLlP0FRs/+GhoZKEAUD64RWlEqIvYco+DmiqF3LqECfOpEd6fUyoed5b6b8zDEUHIbeBzYNpfD+hG3/OplM9ipinZHrGuhBHxlPHc0BoLAE+82GcuL7/ktp3/9MSx7z3qWoFowQyKMJ174JPS+w0oYWKRQMBhJ9coxp0aJFq1A4t8DWruuWpdQyBf9APxQQW+z7zyFXOKlbQtXrCoExQAoFFK6r2rjxj8V0umLFit1QIBiZwEee5/2nmH57CiOdAtMlP1rZioo19yLfTgnGL1VHqSB4Pu0HBwnVQQBe6FVnxPkSZp8ZO3Zsz6tsRYzuF6iyZnvqIyIlPZGI+QIM/U9LHvO9hHIUIixTdgMhuNp14lN7m5CLYMGUxqGUZPUiCgJgZSEhFYblCYpU0icGqhNCgFG2WHqVByFS5T/B1GKPP6pIabHlNZQiJiYCIiz4GQJZrtMkS8qVujkqvZ4VdMTzvJcBHJqw7eNBXAtgrx52dWBlhfWk67onFJtesoVI5/sJSfSg74GFghNlLkJgSfmVMZQSz8s8B2Af142fTuEPAezck34Inhw49kPwgzPRg4Q19fX1I5s3biiYXEsBE5OO0yMdi0UifOi1hTiAd0o9NkX1OitdTxHytxT5dvdC2N513b1ailIVP0aEYE9YxWX+AwCKNEihMwVQTDrOZqmWy4EgQsVYQVmCAIl+cyLbKLkD0Eo6CKYBmO667okUfQOAHYvuRHC4Qvhn5ArdFJVKNBaGi5pjEZI4EX1eQ7zUiNBhhB9DEelXb9PQY7TnZR4B8GjCcc4C5Dr0rK7Dqa7j/Nbz/QhlXduTzX5cF23BUG7p83Xx7ilL7ouQLPvZ/67wPO/dhOO82kkRmXYorc9AD1aPXNfdCqJPLiD2v3R6yT+L7TtaPRI5SoCjiu27jJQlg6oA/fYZaqXcOcXF87wnbD/YLXfmufisewIenbDtopMkNC5dmkGEIzMQ1LuuO6gT5BASKdo7ls32tCiNYWAQpn3/97RiO5H4FoA1xXZAyFk9mV1JMwdlIamo8TFFIp7nFV46LiNE4TPskksKVHQQpEJ4EoBut1+LzfyXd2PZ9tPLhpTnpFik7Ycy0ydFRWYBzSnfvyerpUEg96LY/R3iB8l4vGAAUgcEwKIIcpalda8jZvuZwvoTqz9ctszvA10MZSaVSq1PecFPhaqh5ShuUQjkZtd1i1uRI0cXO86AgCzHj/fHKEFxo95QuWHDIyh80qkuUfzvJgQstPy/Aaqih1H6Mvg+R0RZToqR7D4VcR/Qp1XFMpnMEs/P/P/27jxKrqrOA/j396q7k5BOIJjueksldKDJAA2ICmhAJIIcFkEckcXxREVxnaOODs44LkfHQXEcFT3jYUYRhNFxBHFw2BdlCTjIEc54kChLiJ10vaXSTRZ7SdKp937zRzUxge5693UtXZ3+fs6Bw+n+vXdvNfWq7nv33t/vA6I4FwYLePbSpjm5BllHswKjeToVSZ8HalETmd9MFgH+odF9oeYKgmCgshVX/wpAloxpCwXJ1ZkaE5mdT8k0bcZ5GiQlh3wTbNi6dbtC/zs1MONuANu2u5Ba+U9vLhaLZvVHXm7W77qqFxVtaP0IEzNSVrQYRXdZcXICNH0P5h6KY1w3nykvsyZmJVhVtcEpQxsnbm9fZRSokpo4hWanICj9l+SSkyB43vggxWlePv+6DM3wg/tFSabBVuMIrjeIuhAZPuct4CJo9d0imTP/7YvvownSAu+jGasrPrB58/M7xsdPEeAJ02NEJdNaAMu0BnslMcWM11ifDhU1y1Wtmpo6lWavYnHzk+VYTwJgXjZVpPpKcpqcSEuscwyC0v1IneYUr2Dbp5ieU6zUMs/PDIThw6bno9Y2o196W7Zs+VNud/k8mBcYOtF13SNMz78rjh+HWenVV7hud5a7odah6Vm1AAC5XOYVuzS7lEqlzZKLz4Pp4kDBuZ7nmSbKmfVVM/dDCaCpOQHUcBpgWXf3YamV/yqZ/2oZADEdeQtp2DZAUxuHhkLXzb9fVG41ibcQnwHAaDX74ODgiOvYDwhwVlqsqLUGQNNTe9bC87zjkMRpuboBxZO+76dmD6PZr1gcfK7g5j+pKiaPaS3E8ekAbkqNVN1psgKnnGhnIyu40b4kl1yvce4zqLY+SnEBgI8hJf9DYllplf/G40rhqhrozvSlXPIVPww/W1s7ZKIlHnsHQek2CB4wiVVIygKVfYnCaGAB4OKenp7ZVRcgidcYxVn4nwb3hFpIMShdBzFLfiNidj2ppUaLduelZY+juioWB9cDqZURu123+42pJ0ur/Ke4pfbCNelb30TVrq0NMtUSAwAAQGJYElFxVKbz5nK3wWzb4ZLdu3a9J9O5Z9BErYS0+ToAgMK6pcHdodaSKPA9k0BVNbqecokYJZEq5/jh3Wwqen1ajKW5qtMAyxzneKQka1NLv5+tZy8nSE9GpgK+h5qkZQYA7fPn3wezL+pMaRknHn3fbRIr0L+rNV96syTl8nth8rdQPBkEQW1FZWjWsaz4HrNAs+tJ29qMBgCW5vjh3WTj4/FNSNkGqtC39fX1TVk2PEFS/e5f8HwQlGouXKNiNJDke6hJWmYA0N/fvw1miXs6s2buU9F/N4oDVkS2fVmWc8+E3t7eeSL4lEmsWtnKddL+YeLRcPrCPcM858ViMQQwkn666dUqoOkbGhoaBpCWE2DJtqGhqaZ7cgqpXvlP9VrUo/qh6nMGUSsBGORxp1q1zABgglFyiY6OjilHspMJgtKdADYaBQu+nM/nG1L8oV52jI5+CoBJSs2Rjo75zamrTa1GATW5nkyvpQSCp1KjRGfnbprZLkmfBpgqKZDruqdLtbtuwe72cvKDafdtb4lR7pfOQqF7tmdnnRVabQBgVP63v78/9U7kJWKBfMUwdkm7ZX0r4/mbZll392GAGuVDEMXVE09WaC4SMbmezK8l1fTMmorVvb29DcmdTlPzS6UHAfRXixHIWybWDu37c63++F9Vb+8fHKxLKXHN5YyysyZl68x6tEfVtdQAoOoo9M+GMY1ypsUwvA7AsyaxCn1Hs8pRZtHb2zsvyVk/hlk2rdEy8PVG94laU6FQWADFgamBap6SWwUPGoR1jo0NZ9qpQ3WRiFTfoqfAYsTx2Xv/bGI6tWrlP8tsS6mRIAgGTDJWioW31atNmlrLDAB6urpsBRYbhJrMIU2mDMXnTYMV+u1pFCBqqB1jI98EcKJZtF5V+5Ydmq1Ux9PzQwBQwXrTcyaJ/BIGC3UF0nKD57nAivUGpMzTq+hLpgHitwBYVOWQjcUoMltQakpxn0HM6wqF7mPr2i69TMsMAHa3tb3VJE4h0y5p60fRTwV6r2H4fLXkjuW23RJzUZ7jfBaKjxiGb1TJXdnQDlFL09gyup4EalwkqjKglF+nN45zPK/7labnpfrYVCptALC2apDi7L2naARS9U5bFdcha/XWFKK4zSROy1bmMvCUjVVw7S/atp1tb31DJEZ72i3goRoa0URy7xcYV/N6RQzcO9ODAM/JfwbQK0zjVfTjQRCMNbJPNDnPtb/uOM5M1zxvE8E7TAJVMl9PJpngLMTWNzCNWvRUI00tELRo1+jo6on/boPqGVViY8nlrqtLv/ZSjKJ7FUhfUyC4yHXdk+vdPv2ZpQmOyAke82z7w5ihJwKebb8bEJP/0VpW4zv4SQVBsAmQy40PELixhV+5bt4s534d9fb2zivY9rWAfNn4IMUPgqDEzH8zRXG8BX2i4ObT0qo2jOvan0RKUpcJu3bu3G2UgfNFufb2mwCkDy4Fp7uVz5SmqrbXfS4Yj+ObkbKwU1XPBQDHcVYBctCUgYK7GpRCvGwJUmsYABDR5Lquri6jxeF1JLMlH0ytXvzC74TgatexH3Mcx7hyVD0st+0+CL5hGP5QFEX9tbZZDMNrILjB+ADFgaJyl+faX2rWG6OQzx+zY3TkYRW8N8NhT5dVP9qwTpGpV6jKf3qOfb/ruq9uZsOe171KFF80Clb8fMuWLZlq22/atGkroN81iRXBVQXbXp3l/LUoOM47t20Z+tdmtdeKBgcHRyC4uVqMCs4FgJxo1ZsahTYsh4jkyt+CWWGglR253I/RpLwAhyxd6riOfWep0NXTjPZm2j53/AIcb0HXFhx7bcG2z3np7+vN87pXxYK1AMwqkqlhumAD7R3zPwTBYxkOaYPi85FjP1aw7VPr1Y+XKhQKB7uOc6Xm5AkAJ2Q4dGusuICFWFrKatHkCc+x75z4ImzoE4GC45yFxLoPhjXXBdO7nqy2+Osw+/DuUMFtXj5/2nTaMeU4ziEFJ3+LQn8ElfSdD/s5SVKnAXoKhYIHlSrrNNSfyJ/SEAMDQwEEZtMLgvM8x/5Jg5/uWAXHeX+5ve13JsXj9heTfsErcIoK7vAcu99z8v+UpQSvie7u7rzn2lcjsdYCONjkGAUe96Pop/XqQ39//04rV34bUvbOTuJVKnjQdey7Xbf7DNRpkLSsu/sw13Gu1LjcL9BPQzM9adhlQd4aRdHv69EXqruzVfCA5zjPeI7z2Xw+v6KeJ3ddd7nn2P+h0DsALDQ87K5iFE1rPc3AwFCQYVqqEzm527Xty1HnGwrXdZe6jnOlBf29QowWPc4FxShaC2BD1aA4PkZVq61t+gGmsd06C4X1BQBDhuFv37blhUcqeVDqq2Db57iO/ZhCvwfTm9H9RFo54GWAfE40+Zxn2+shehsS3B+LPJZ1i5nrugdYqmcDuECh50HNkv5MKEuiH0U9UlHuZWBgKLBt+425yv7mTAu3BDgTap3pOfZGUdyYWMkvgLZfmS6+6+3tnTc2NnaCaHwKRM5PFK+V6b28XSp68UAQVV/92wyafMtzbbNa9HUiVtsnisWi38w2p08PB3BFmyVXuI69DorbLZEHrfb2xyqP1s0dumTJgeMLOt6sKhdAk3MAZKlkOapifSJT11/ioIMP/trWLS9cIkD6AllFuwj+xXPsd6gknw6Czb9ADdey53nHQeMPQJM1MEweNseoKm4QwT9OFZConiiCQ6f6daxybYP6tkcQBEOebf9thunYE5Kc9TvPyX8TVttVvu+/MN22u7q6Oue1W5eoyocVePVcXa0qnm3/BDJ5isgUGwA8LYoNsNSHWlsAjKlqmwILLQudAJZCtVdh9QF6KKY9j6Of8cNSw7a15fP5FW2WPAhgeU0nEuyG4o9QPAOBr4rtIjIsoh1IMD8ROVigLoBDJ/6p9ZHWCCx9q+/XXqSjmoJtr1bDcs3NlkCOCsPQeCtbo3mO/SCArFNECsh6qD4NkQ0qGlgq2yDJSAKZB2ChBSxU1TxEDp+oiNmDad5Rq+j7gqBU8+ru5bbdFwt+jexfwk8B8hMVuTMIgt8h5U6zUCgcjDg+EapvVMF5qFZvQHGjH0XV89pXa8tx3qnQlPTZ8pwfhkZ5FmaKbds9uUrCnaneI0MAlk72CwXuCcKoaY/BPSf/Q0CMdoHtZQzAzwTy80RkbRAEaU8ScoV8/ii1rJOgeg4EbwIwZU0ZycUri8XB6eacQcGxNyhQ/Umf4mI/im6abhv1kPYEoJpDARyqAqDyr8pPpTLRqXvG93v9bhoEcm0xjL5aQz9TlUqlPy5btnRVUm67BcaJdiZReWy/EoKVACBS+aEqJv4udX2AsUHFenvgs9LffkAAPRyCwwGFKKBQQGXPogHdE1ZzU1cGQVSXrV2bomidZ9uXQnAjsg1Gjgb0ClG9wnPsMSjWA9gI0e0AxiDSUXlCqA6AHo3LXqXr9ej13BBFUb/n2g9CMdX6i0m//AHAQv0y/5mQXPsHNC4fBSDLgtkDAKxR6BpRhefYmxToF0FJVbcJoFBZDAuLVNEjwAoFDqiMtRv0QmahWgYADVf58g8/iDo/+p/MwMBQ0NPTc+ruXTu/B2BNo9urieLW9vnz3808/5SFQr4ahGFdk6v4UXRzwc1/UFW+i+k9kTgAgmMBHLvnk3mfmweatgQ3QKYcAEyllA/DWxux928qxWJxh23bZ+Us/BKKY6Z5muUCLK98v0+8bybuPfkumlrLZALcR+VR+uXFMLwMQNysZvv7+3f6YfQuKN4Dw8qEzaRAJKLv9KPofH75UwY7VPDeIAz/oREnLwal70PxPgDjjTg/TU9Z9Weo1E4xporrnwB2N6hLU4qiaLAc65sy7syiGlliGa/CbBL9rcJ6rR9FprkB6s6Pohvay3EfUH0/bRONiOJr83fuOqIYlH48052hqlrqehLgYVi544Igqk851yn4UXQ9rGQ1FEEj20nxSAx8aQbbbymlUmlUFFl2TqnVFn+/YR1KUSqVNi84oPNUQeMXIFYxCsgni8XB6rso9hNWMYg+KpA1Cqyb4b5shOJSPywdHwQzP6/dPzgY+WF0IRJdpcDdM9SNEqBfVrFWFKPo7zds3bp9hvpBhvwwugSKj5hUPGuwp6G4sBhGp/q+b1QFs1a+v/nR9vnz+yYSBdU1f3xVivUCWeOH0Ru4FXZfscj1xsGCB4rFQePiUI2wfv36XcUwvAyKc5F9i3YtygK5VsU60g/Dq9DEJ88zyQKgxTD8URBGRyeQN4jiOwA2Nan9BIpfQnGhHUaH+1F0PVrsD++XSr8OwuhsUbxWFNdlqCMwXcMAfqai59thtMwPS58zWOFKraPsR9G/+UG0UsU6U6HXGOU9r1PbUNwGxbl+GPX5UXQzmrB+Zm/9/f3b/LD0IVi510BwExo3EFAIHlDRS/woOrIYhj9Ck1/rbBCG4SMTiyxTNTLzX1Z+FN2hYvUJ9G8ADDSwqc2q+OdyoiuLYXhZEASNbKvlTLk+wnGcI3OSnKyQ10NxLCpbb7LsNZ6cIoDgUYHcMx7Ht27evLlU8zmbqFAoLEiS3eeLytkAVqPWrYN/tgmJXnrQ0qWPrFu3rqXmUpfbdl9s4Qsz3Y/JzJI8AFYhn+9LRE6ByMkiegwUf4Hat4ECwCaB/EqBuySXu6NYLLbU2hXbtnvaLL1EVS4CcBxqW5O1FcCjqrgTlnVrIz6sXdd9vSD5WLUYVQmDMPx4vdtuFM9x1kD0vGoxolKev3DhpevXr9/VrH6Z6uvr69i6degsqHWxiL4ZilqyPSYQrFOVB8RKbvX90kNoQMKjgmt/R4HuqkGSXOX7mx+td9tZZLkYc4VC14okaT9aND5SgRUCWQLFEhEcpMCSibiyAMMKDEMRKTBoiT4PWM/EwB/CMNzYiBcyU/L5/Io2kdeIhcMS1cMAWS7AEkDmAboIlQRDhvkP5Eq/zqu0qWW1ua7bK0lyNIAjReQQhS6B4CAolgB7PuTGBRhVwXZViQQYVNXnYCXP5nLJukpWvtlh+fLlS+Lx8ZMg8ipRXaEWVohisUIWA1q5RgSjAEaRYFCAQRV9HirPqmU9FQTBM+Bd/lyXKxS6+zTOrQJ0pUJXCMSDYAH0xSyYEgv0Tyr4k6hECg0BeVZUnx4bH/+/rPUv9mfcIdFgnuOsAfQGGP+t5fN+GBqX/iUiIpqOplRYmsuGR0aeXLxo4Tggpxsectqizs6x4ZGR/21ox4iIaE7jAKAJhkdGH1m8qHMxgFUm8SI4Y1Fn54LhkZFfNLhrREQ0R3EA0CTDIyP3LV7ceQgqC6FSieD1ixd35oeHR+4C5z2JiKjOOABoopXDI3cOL+o8QYBew0NOOHDRwld2zF9w59jYWEvtDCAiotmNiwCbLJ/PL2yzcA8gJ5seI8Dv1cr9ZbMSuhAR0f6vNWsB7MdKpdLoeDk5S4CHTY9R4ChJ4t94jvMhcNBGRER1wC+TGdLV1dXZ0Za7Hdlrxz9kQS4fCMPHG9EvIiKaGzgAmEGV6QC5HZWMgpkocI8k+p0FixbdlzF7l3iedzinE4iI5jYOAGaY67oHSJLcCoFpnoB9CbYDuFeAJ0Tlt0gSP87ltre1tY1YO3bM293RsRhx7Kmlh1pqrQL0NAWG/DA6sb6vhIiIZhMOAFpAX19fx7YtL1wD4F1NavI3HAAQEc1tXATYAtatWzfuh9G7JypfNa+MKhERzVkcALSQYlj6NhQXA9gx030hIqL9GwcALcaPopstyBsAeW6m+0JERPsvDgBa0EAYPj5eLr8agqvBKQEiImoADgBa1ODg4IgfRH+dQE6E4HawHgAREdURBwAtLgzDJ/wgOs9K9FgAPwTXBxARUR1wADBLDJRKT/lh9K5yol1QXATFjQA2Zz6RIFTF/fXvIRERzSbMAzDLFQoFT8vl4wAcAdGDVOVAC1ioFnZBZZuIbofKVqgWY5F1YRhunOk+ExERERERERERERERERERERERERERERERERERERERERERERERERERERERERERERERERERERERERERERERERERERERERERERERERERERERERERERERERERERERERERERERERERERERERERERERERERERERERERERERERERERERERERERERERERERERERERERERERERERERERERERERERERERERERERERERERERERERERERERERERERERHtn/4fuDOZNXVuSWYAAAAASUVORK5CYII=;" parent="1" vertex="1">
          <mxGeometry x="200" y="20" width="40" height="40" as="geometry" />
        </mxCell>
      </root>
    </mxGraphModel>
  </diagram>
</mxfile>
